<?xml version="1.0" encoding="UTF-8"?>
<svg version="1.1" xmlns="http://www.w3.org/2000/svg" width="400" height="400">
<path d="M0 0 C132 0 264 0 400 0 C400 132 400 264 400 400 C268 400 136 400 0 400 C0 268 0 136 0 0 Z " fill="#FEFEFE" transform="translate(0,0)"/>
<path d="M0 0 C1.1160249 -0.00054241 1.1160249 -0.00054241 2.25459576 -0.00109577 C4.65072203 0.00113427 7.04613849 0.02393703 9.44213867 0.04760742 C10.9263068 0.05202112 12.41047959 0.0550799 13.89465332 0.0567627 C19.38320947 0.07245842 24.8716655 0.11434229 30.36010742 0.15307617 C42.63198242 0.21495117 54.90385742 0.27682617 67.54760742 0.34057617 C67.54760742 26.08057617 67.54760742 51.82057617 67.54760742 78.34057617 C99.55760742 78.34057617 131.56760742 78.34057617 164.54760742 78.34057617 C164.66851652 110.73973757 164.66851652 110.73973757 164.6940918 124.30737305 C164.7118988 133.67876098 164.73284249 143.05006805 164.77392578 152.42138672 C164.80383112 159.24620827 164.82318312 166.07096427 164.82987291 172.89584953 C164.83378327 176.50946753 164.84297099 180.12289802 164.86479759 183.73645592 C164.88896832 187.77084033 164.88957669 191.80489889 164.88818359 195.83935547 C164.89896942 197.0369751 164.90975525 198.23459473 164.92086792 199.46850586 C164.91674393 200.56921921 164.91261993 201.66993256 164.90837097 202.80400085 C164.91113635 203.75805659 164.91390173 204.71211233 164.91675091 205.69507885 C164.46946254 208.90060795 163.44989688 210.73830235 161.54760742 213.34057617 C154.3156247 218.46058092 146.59428322 217.90780608 138.07885742 217.8581543 C136.51431631 217.86358093 134.94978031 217.87070662 133.38525391 217.87939453 C129.15379203 217.89756667 124.92272203 217.89058581 120.69125366 217.87787819 C116.25338724 217.86771872 111.81555335 217.87715203 107.37768555 217.88342285 C99.92645268 217.8906907 92.47537865 217.88113426 85.02416992 217.86206055 C76.42167685 217.84029342 67.81956305 217.84734541 59.21707916 217.86936617 C51.81809504 217.88754481 44.41922478 217.89006647 37.02022552 217.87961149 C32.60684497 217.87339008 28.19364241 217.87250356 23.78027344 217.88575745 C19.63012017 217.89735131 15.48045371 217.88922619 11.33035278 217.86618042 C9.81146043 217.86091212 8.29252679 217.86237481 6.77365112 217.87123108 C-1.17846796 217.91330727 -7.64355123 217.86743168 -14.45239258 213.34057617 C-18.55459391 208.9965948 -17.79492439 203.65294819 -17.63989258 198.02807617 C-17.62635742 197.09672852 -17.61282227 196.16538086 -17.59887695 195.20581055 C-17.5636614 192.91679971 -17.51441357 190.62899159 -17.45239258 188.34057617 C-18.03093994 188.37199707 -18.6094873 188.40341797 -19.20556641 188.43579102 C-32.38165337 189.05716851 -41.57956422 189.09920954 -51.96411133 180.18432617 C-61.01179448 171.67571593 -64.34132037 163.39638506 -64.88989258 151.09057617 C-64.70247077 141.07522315 -61.18368906 132.37034032 -54.39379883 125.02416992 C-52.45239258 123.34057617 -52.45239258 123.34057617 -49.32348633 121.62963867 C-46.08041453 119.04400592 -45.65576703 117.54722748 -45.16381836 113.50195312 C-45.0591626 112.40113403 -45.0591626 112.40113403 -44.95239258 111.27807617 C-43.10060644 97.54472702 -36.24275804 87.8017438 -25.45239258 79.34057617 C-20.04498517 75.34057617 -20.04498517 75.34057617 -17.45239258 75.34057617 C-17.46904716 74.0981591 -17.46904716 74.0981591 -17.48603821 72.8306427 C-17.58629834 65.01801867 -17.66238675 57.20561125 -17.71145344 49.39249134 C-17.73752765 45.37580189 -17.77288436 41.35964479 -17.82958984 37.34326172 C-17.88398967 33.46584036 -17.91382949 29.58893042 -17.92677879 25.71115685 C-17.93600459 24.23314044 -17.95402116 22.75515146 -17.98104286 21.27735329 C-18.01744346 19.20382243 -18.02233397 17.13239364 -18.02001953 15.05859375 C-18.03667412 13.28987663 -18.03667412 13.28987663 -18.05366516 11.48542786 C-17.09763372 6.48507165 -13.99812341 4.52040514 -10.10566711 1.54936218 C-6.70019537 -0.00211187 -3.66764692 -0.05782596 0 0 Z " fill="#633AF9" transform="translate(142.452392578125,63.659423828125)"/>
<path d="M0 0 C4.52254721 3.86996489 8.42921167 8.2389489 12 13 C12.57041016 12.67837891 13.14082031 12.35675781 13.72851562 12.02539062 C20.95185626 8.76463926 32.33665211 9.92434613 39.73828125 12.09765625 C49.88826083 16.93405059 55.80547893 23.65235917 60 34 C60.1546875 34.73089844 60.309375 35.46179688 60.46875 36.21484375 C60.6440625 36.80394531 60.819375 37.39304688 61 38 C62.98077953 39.03755118 64.98529902 40.02995879 67 41 C74.75122785 46.24698501 79.17175172 53.85875861 81 63 C81.83598497 71.22051888 79.80056614 79.0329898 75.01171875 85.81640625 C69.36638617 92.35875195 63.66490378 97.53451657 55 99 C53.29259786 99.09251862 51.58227729 99.13881709 49.87239075 99.14717102 C48.86185638 99.15432632 47.85132202 99.16148163 46.81016541 99.16885376 C45.71241287 99.17154266 44.61466034 99.17423157 43.48364258 99.17700195 C42.31879333 99.18357315 41.15394409 99.19014435 39.95379639 99.19691467 C36.10070733 99.21661733 32.24765719 99.2283035 28.39453125 99.23828125 C27.07665808 99.24235678 25.7587849 99.2464323 24.40097618 99.25063133 C18.14431479 99.26966612 11.88766506 99.28390005 5.63098031 99.2922433 C-1.56948296 99.30200602 -8.76963805 99.32830713 -15.96999282 99.36874419 C-21.54982411 99.39899529 -27.1295675 99.41372069 -32.70947915 99.41702431 C-36.03541727 99.41936478 -39.36095203 99.43019619 -42.68681908 99.45348549 C-46.40368394 99.47789538 -50.11974904 99.47690788 -53.83666992 99.4699707 C-55.46811699 99.48918579 -55.46811699 99.48918579 -57.13252258 99.50878906 C-67.06423356 99.44148306 -74.96086233 96.77663943 -82.2421875 89.9375 C-90.03371409 81.34950625 -90.61440475 73.13844194 -90.3984375 61.98046875 C-89.9323054 53.08594095 -85.57081961 48.28563518 -79.3125 42.375 C-75.45059289 39 -75.45059289 39 -72 39 C-72.04640625 38.34515625 -72.0928125 37.6903125 -72.140625 37.015625 C-72.61692713 24.97198533 -68.7990095 15.13994592 -61 6 C-44.18469547 -11.78421613 -20.11527884 -13.59305206 0 0 Z " fill="#FDFDFD" transform="translate(174,148)"/>
<path d="M0 0 C3.53197981 1.7659899 5.93527039 3.44090906 8.9375 5.9375 C9.90945312 6.74316406 10.88140625 7.54882812 11.8828125 8.37890625 C14.50152585 10.57383413 17.10331938 12.78823919 19.70385742 15.00463867 C25.34330411 19.80873857 31.07114651 24.46468731 36.91381836 29.01953125 C41.33794572 32.46987137 45.69570493 35.99248756 50.02734375 39.55859375 C53.6508977 42.53457433 57.29459789 45.4852644 60.9375 48.4375 C66.88743072 53.26102516 72.78760096 58.13824026 78.64453125 63.07421875 C81.04330771 65.09908034 81.04330771 65.09908034 84 67 C84 67.66 84 68.32 84 69 C56.28 69 28.56 69 0 69 C0 46.23 0 23.46 0 0 Z " fill="#6339F9" transform="translate(221,65)"/>
<path d="M0 0 C1.1160249 -0.00054241 1.1160249 -0.00054241 2.25459576 -0.00109577 C4.65072203 0.00113427 7.04613849 0.02393703 9.44213867 0.04760742 C10.9263068 0.05202112 12.41047959 0.0550799 13.89465332 0.0567627 C19.38320947 0.07245842 24.8716655 0.11434229 30.36010742 0.15307617 C42.63198242 0.21495117 54.90385742 0.27682617 67.54760742 0.34057617 C67.54760742 26.08057617 67.54760742 51.82057617 67.54760742 78.34057617 C67.21760742 78.34057617 66.88760742 78.34057617 66.54760742 78.34057617 C66.53214622 76.9975367 66.53214622 76.9975367 66.51637268 75.62736511 C66.41845853 67.19588336 66.3159527 58.76447271 66.20826817 50.33310986 C66.15306699 45.99830352 66.09965144 41.6634904 66.05029297 37.32861328 C66.00260808 33.14645298 65.95026371 28.96437474 65.89466667 24.78231239 C65.87426183 23.18551994 65.85554565 21.58870499 65.8385334 19.99187279 C65.81444798 17.75800818 65.78439914 15.52429841 65.75292969 13.29052734 C65.73738541 12.01811691 65.72184113 10.74570648 65.70582581 9.43473816 C65.68398206 6.30408674 65.68398206 6.30408674 64.54760742 3.34057617 C55.78515063 3.29416942 47.02273636 3.25866466 38.26018333 3.23695183 C34.1910708 3.22652906 30.12204255 3.21239748 26.05297852 3.18969727 C22.1237264 3.16791501 18.1945552 3.15599621 14.26524734 3.15082169 C12.76858879 3.14713558 11.27193449 3.13993754 9.77531052 3.12911606 C7.67375988 3.11452939 5.57254064 3.11260119 3.47094727 3.11352539 C1.67891373 3.10686356 1.67891373 3.10686356 -0.14932251 3.10006714 C-3.55399693 3.34797437 -6.27649579 4.12106956 -9.45239258 5.34057617 C-8.95739258 6.33057617 -8.95739258 6.33057617 -8.45239258 7.34057617 C-10.43239258 8.00057617 -12.41239258 8.66057617 -14.45239258 9.34057617 C-14.46270004 10.16298798 -14.47300751 10.98539978 -14.48362732 11.83273315 C-14.58149426 19.57287532 -14.68399314 27.31293555 -14.79173183 35.05294609 C-14.84696056 39.03242068 -14.90038047 43.01190261 -14.94970703 46.99145508 C-14.99735135 50.82997258 -15.04969416 54.66839958 -15.10533333 58.50680923 C-15.12575658 59.97324503 -15.14446972 61.43970564 -15.1614666 62.90618515 C-15.18551134 64.95585883 -15.21556558 67.00536099 -15.24707031 69.05493164 C-15.26261459 70.22297333 -15.27815887 71.39101501 -15.29417419 72.5944519 C-15.45239258 75.34057617 -15.45239258 75.34057617 -16.45239258 77.34057617 C-15.0344785 76.88611653 -13.61811212 76.42682673 -12.20239258 75.96557617 C-11.41348633 75.7103418 -10.62458008 75.45510742 -9.81176758 75.19213867 C-7.47558155 74.4446112 -7.47558155 74.4446112 -5.67114258 73.21557617 C-2.21933762 71.85430098 1.17923792 72.39593222 4.79760742 72.71557617 C5.91522461 72.8006543 5.91522461 72.8006543 7.05541992 72.88745117 C8.8869585 73.02833875 10.71742094 73.18309501 12.54760742 73.34057617 C12.54760742 74.00057617 12.54760742 74.66057617 12.54760742 75.34057617 C13.72323242 75.44370117 14.89885742 75.54682617 16.11010742 75.65307617 C20.37246645 76.16972575 23.68848277 77.49141227 27.54760742 79.34057617 C27.05260742 80.82557617 27.05260742 80.82557617 26.54760742 82.34057617 C25.41323242 81.72182617 24.27885742 81.10307617 23.11010742 80.46557617 C11.43269467 74.67817653 -0.27114733 75.44934505 -12.45239258 79.34057617 C-22.37096173 82.84749884 -30.29092123 90.69012863 -35.27270508 99.80932617 C-38.12536119 105.93025718 -39.47854725 111.473355 -39.70239258 118.21557617 C-39.89770508 121.00854492 -39.89770508 121.00854492 -40.45239258 123.34057617 C-43.57739258 125.52807617 -43.57739258 125.52807617 -45.47583008 126.32885742 C-51.11177428 129.2136589 -55.19700015 135.61893167 -57.45239258 141.34057617 C-57.89646296 144.64176493 -57.91708233 147.88853952 -57.88989258 151.21557617 C-57.90987305 152.07538086 -57.92985352 152.93518555 -57.95043945 153.82104492 C-57.94401455 162.28906152 -54.84405875 168.49220946 -49.22973633 174.73510742 C-43.50030975 179.91047956 -37.07099314 182.45971987 -29.42485046 182.47428894 C-27.9046077 182.48068642 -27.9046077 182.48068642 -26.35365295 182.48721313 C-24.69456154 182.48653336 -24.69456154 182.48653336 -23.00195312 182.48583984 C-21.24766998 182.49087776 -21.24766998 182.49087776 -19.45794678 182.49601746 C-15.58499087 182.50552985 -11.71207819 182.50747077 -7.83911133 182.50854492 C-6.5032175 182.50996843 -5.16732385 182.51156433 -3.83143044 182.51333046 C3.16625778 182.52257989 10.16392697 182.52666595 17.16162109 182.52587891 C23.67471482 182.52527858 30.18772559 182.53582254 36.70079833 182.55162257 C42.30009674 182.56471966 47.89936812 182.57006188 53.49868172 182.5694235 C56.83951734 182.5691691 60.18022064 182.57291343 63.52105141 182.58260155 C67.25043228 182.59240308 70.97960004 182.58952247 74.70898438 182.58349609 C76.35896675 182.59192535 76.35896675 182.59192535 78.0422821 182.6005249 C85.87691455 182.56836861 92.00597869 182.10333624 98.23510742 176.90307617 C98.96084961 176.30624023 99.6865918 175.7094043 100.43432617 175.09448242 C101.48040039 174.22629883 101.48040039 174.22629883 102.54760742 173.34057617 C103.87516059 172.33291533 105.20668506 171.33037665 106.54760742 170.34057617 C106.21760742 171.99057617 105.88760742 173.64057617 105.54760742 175.34057617 C104.55760742 175.34057617 103.56760742 175.34057617 102.54760742 175.34057617 C102.87760742 176.33057617 103.20760742 177.32057617 103.54760742 178.34057617 C98.79760742 181.21557617 98.79760742 181.21557617 96.54760742 182.34057617 C96.87760742 183.00057617 97.20760742 183.66057617 97.54760742 184.34057617 C96.84893555 184.40116211 96.15026367 184.46174805 95.43041992 184.52416992 C94.5203418 184.60795898 93.61026367 184.69174805 92.67260742 184.77807617 C91.31522461 184.89989258 91.31522461 184.89989258 89.93041992 185.02416992 C87.53649882 185.21046902 87.53649882 185.21046902 85.54760742 186.34057617 C84.20406611 186.42041611 82.85653755 186.43804531 81.51071167 186.42286682 C80.66654694 186.41582733 79.8223822 186.40878784 78.95263672 186.40153503 C78.02475342 186.38858902 77.09687012 186.37564301 76.14086914 186.36230469 C74.67739548 186.34789337 74.67739548 186.34789337 73.18435669 186.33319092 C69.94859785 186.30012081 66.71297068 186.259819 63.47729492 186.21948242 C61.23813343 186.19518914 58.99896703 186.17134519 56.75979614 186.14793396 C50.85783297 186.08501428 44.95595652 186.01597 39.05407715 185.94567871 C33.03503377 185.87506638 27.01592875 185.81020696 20.99682617 185.74487305 C9.18035219 185.61575911 -2.63603819 185.48017919 -14.45239258 185.34057617 C-13.95739258 187.81557617 -13.95739258 187.81557617 -13.45239258 190.34057617 C-14.11239258 190.34057617 -14.77239258 190.34057617 -15.45239258 190.34057617 C-15.45239258 196.28057617 -15.45239258 202.22057617 -15.45239258 208.34057617 C-14.79239258 208.34057617 -14.13239258 208.34057617 -13.45239258 208.34057617 C-13.12239258 209.33057617 -12.79239258 210.32057617 -12.45239258 211.34057617 C-11.46239258 212.00057617 -10.47239258 212.66057617 -9.45239258 213.34057617 C-9.45239258 214.00057617 -9.45239258 214.66057617 -9.45239258 215.34057617 C-12.37056293 214.47301201 -14.11157579 213.73926751 -16.10864258 211.40307617 C-18.0657472 206.9426982 -17.77246638 202.83812582 -17.63989258 198.02807617 C-17.62635742 197.09672852 -17.61282227 196.16538086 -17.59887695 195.20581055 C-17.5636614 192.91679971 -17.51441357 190.62899159 -17.45239258 188.34057617 C-18.03093994 188.37199707 -18.6094873 188.40341797 -19.20556641 188.43579102 C-32.38165337 189.05716851 -41.57956422 189.09920954 -51.96411133 180.18432617 C-61.01179448 171.67571593 -64.34132037 163.39638506 -64.88989258 151.09057617 C-64.70247077 141.07522315 -61.18368906 132.37034032 -54.39379883 125.02416992 C-52.45239258 123.34057617 -52.45239258 123.34057617 -49.32348633 121.62963867 C-46.08041453 119.04400592 -45.65576703 117.54722748 -45.16381836 113.50195312 C-45.0591626 112.40113403 -45.0591626 112.40113403 -44.95239258 111.27807617 C-43.10060644 97.54472702 -36.24275804 87.8017438 -25.45239258 79.34057617 C-20.04498517 75.34057617 -20.04498517 75.34057617 -17.45239258 75.34057617 C-17.46904716 74.0981591 -17.46904716 74.0981591 -17.48603821 72.8306427 C-17.58629834 65.01801867 -17.66238675 57.20561125 -17.71145344 49.39249134 C-17.73752765 45.37580189 -17.77288436 41.35964479 -17.82958984 37.34326172 C-17.88398967 33.46584036 -17.91382949 29.58893042 -17.92677879 25.71115685 C-17.93600459 24.23314044 -17.95402116 22.75515146 -17.98104286 21.27735329 C-18.01744346 19.20382243 -18.02233397 17.13239364 -18.02001953 15.05859375 C-18.03667412 13.28987663 -18.03667412 13.28987663 -18.05366516 11.48542786 C-17.09763372 6.48507165 -13.99812341 4.52040514 -10.10566711 1.54936218 C-6.70019537 -0.00211187 -3.66764692 -0.05782596 0 0 Z " fill="#7052DE" transform="translate(142.452392578125,63.659423828125)"/>
<path d="M0 0 C4.455 0.99 4.455 0.99 9 2 C9 12.23 9 22.46 9 33 C13.95 33 18.9 33 24 33 C24 34.98 24 36.96 24 39 C16.41 39 8.82 39 1 39 C0.67 27.78 0.34 16.56 0 5 C-0.99 5 -1.98 5 -3 5 C-3.33 5.99 -3.66 6.98 -4 8 C-4.66 8.33 -5.32 8.66 -6 9 C-5.34 9.33 -4.68 9.66 -4 10 C-4 19.57 -4 29.14 -4 39 C-6.31 39 -8.62 39 -11 39 C-11.06058594 37.68644531 -11.12117188 36.37289062 -11.18359375 35.01953125 C-11.26803256 33.28384459 -11.35267888 31.54816802 -11.4375 29.8125 C-11.47681641 28.94818359 -11.51613281 28.08386719 -11.55664062 27.19335938 C-11.76347016 23.04085878 -12.00103531 19.05462138 -13 15 C-14.32 15 -15.64 15 -17 15 C-16.773125 16.051875 -16.54625 17.10375 -16.3125 18.1875 C-15.96061991 22.48043713 -16.28605965 23.74327158 -19 27 C-22.95179356 30.18338925 -26.01530948 30.29321709 -31 30 C-31 30.99 -31 31.98 -31 33 C-30.10796875 32.95359375 -29.2159375 32.9071875 -28.296875 32.859375 C-27.12640625 32.82328125 -25.9559375 32.7871875 -24.75 32.75 C-23.58984375 32.70359375 -22.4296875 32.6571875 -21.234375 32.609375 C-18 33 -18 33 -15.60546875 34.796875 C-13.28728676 37.97802985 -13.51996873 40.1597498 -14 44 C-15.28403441 46.43966538 -16.04729719 47.66610883 -18.671875 48.5859375 C-21.79829621 49.14197886 -24.82536184 49.20964443 -28 49.25 C-29.216875 49.27578125 -30.43375 49.3015625 -31.6875 49.328125 C-35.19588623 48.98059617 -36.59982646 48.54240605 -39 46 C-39.31900332 42.87376745 -39.41441874 40.82883747 -38 38 C-37.34 38 -36.68 38 -36 38 C-36.391875 37.113125 -36.78375 36.22625 -37.1875 35.3125 C-38 32 -38 32 -36.5 29.375 C-36.005 28.59125 -35.51 27.8075 -35 27 C-35.64863526 25.65780236 -36.3178419 24.32547446 -37 23 C-37.31894839 19.82170731 -37.06510946 17.01781015 -36 14 C-33.77655818 11.95443353 -31.85010481 11.20004413 -29 10 C-28.34 9.67 -27.68 9.34 -27 9 C-25.00039988 8.960008 -22.99952758 8.95653201 -21 9 C-20.67 7.68 -20.34 6.36 -20 5 C-16.535 4.505 -16.535 4.505 -13 4 C-13 3.01 -13 2.02 -13 1 C-11.39592672 0.97291433 -9.7917215 0.95356517 -8.1875 0.9375 C-7.29417969 0.92589844 -6.40085938 0.91429687 -5.48046875 0.90234375 C-3 1 -3 1 0 2 C0 1.34 0 0.68 0 0 Z " fill="#F9F3FD" transform="translate(181,292)"/>
<path d="M0 0 C17 0 17 0 21.4375 2.75 C26.56260169 8.28008248 26.50506444 14.0203339 26.3125 21.28125 C25.93279554 25.7997331 25.21607343 29.66353879 22 33 C16 36 16 36 0 36 C0 24.12 0 12.24 0 0 Z " fill="#6746DD" transform="translate(101,295)"/>
<path d="M0 0 C1.32 0 2.64 0 4 0 C4 1.65 4 3.3 4 5 C3.01 5.33 2.02 5.66 1 6 C1.26876953 6.88751953 1.26876953 6.88751953 1.54296875 7.79296875 C3.27938482 14.24401754 3.27938482 14.24401754 1.9375 17.875 C-1.45920763 21.60042127 -3.70709936 22.93641472 -8.8125 23.1875 C-9.864375 23.125625 -10.91625 23.06375 -12 23 C-12 23.99 -12 24.98 -12 26 C-10.66195312 25.93039062 -10.66195312 25.93039062 -9.296875 25.859375 C-8.12640625 25.82328125 -6.9559375 25.7871875 -5.75 25.75 C-4.00976562 25.68039062 -4.00976562 25.68039062 -2.234375 25.609375 C1 26 1 26 3.39453125 27.796875 C5.71271324 30.97802985 5.48003127 33.1597498 5 37 C3.71596559 39.43966538 2.95270281 40.66610883 0.328125 41.5859375 C-2.79829621 42.14197886 -5.82536184 42.20964443 -9 42.25 C-10.216875 42.27578125 -11.43375 42.3015625 -12.6875 42.328125 C-16.19588623 41.98059617 -17.59982646 41.54240605 -20 39 C-20.31900332 35.87376745 -20.41441874 33.82883747 -19 31 C-18.34 31 -17.68 31 -17 31 C-17.391875 30.113125 -17.78375 29.22625 -18.1875 28.3125 C-19 25 -19 25 -17.5 22.375 C-17.005 21.59125 -16.51 20.8075 -16 20 C-16.64863526 18.65780236 -17.3178419 17.32547446 -18 16 C-18.31938834 12.81732319 -18.03433114 10.03070146 -17 7 C-13.13509564 3.76610043 -10.67572878 2.79185828 -5.6875 2.9375 C-3.8621875 2.9684375 -3.8621875 2.9684375 -2 3 C-1.34 2.01 -0.68 1.02 0 0 Z " fill="#5532C4" transform="translate(162,299)"/>
<path d="M0 0 C1.1160249 -0.00054241 1.1160249 -0.00054241 2.25459576 -0.00109577 C4.65072203 0.00113427 7.04613849 0.02393703 9.44213867 0.04760742 C10.9263068 0.05202112 12.41047959 0.0550799 13.89465332 0.0567627 C19.38320947 0.07245842 24.8716655 0.11434229 30.36010742 0.15307617 C42.63198242 0.21495117 54.90385742 0.27682617 67.54760742 0.34057617 C67.54760742 26.08057617 67.54760742 51.82057617 67.54760742 78.34057617 C67.21760742 78.34057617 66.88760742 78.34057617 66.54760742 78.34057617 C66.53214622 76.9975367 66.53214622 76.9975367 66.51637268 75.62736511 C66.41845853 67.19588336 66.3159527 58.76447271 66.20826817 50.33310986 C66.15306699 45.99830352 66.09965144 41.6634904 66.05029297 37.32861328 C66.00260808 33.14645298 65.95026371 28.96437474 65.89466667 24.78231239 C65.87426183 23.18551994 65.85554565 21.58870499 65.8385334 19.99187279 C65.81444798 17.75800818 65.78439914 15.52429841 65.75292969 13.29052734 C65.73738541 12.01811691 65.72184113 10.74570648 65.70582581 9.43473816 C65.68398206 6.30408674 65.68398206 6.30408674 64.54760742 3.34057617 C55.78515063 3.29416942 47.02273636 3.25866466 38.26018333 3.23695183 C34.1910708 3.22652906 30.12204255 3.21239748 26.05297852 3.18969727 C22.1237264 3.16791501 18.1945552 3.15599621 14.26524734 3.15082169 C12.76858879 3.14713558 11.27193449 3.13993754 9.77531052 3.12911606 C7.67375988 3.11452939 5.57254064 3.11260119 3.47094727 3.11352539 C2.27625824 3.10908417 1.08156921 3.10464294 -0.14932251 3.10006714 C-3.55399693 3.34797437 -6.27649579 4.12106956 -9.45239258 5.34057617 C-9.12239258 6.00057617 -8.79239258 6.66057617 -8.45239258 7.34057617 C-10.43239258 8.00057617 -12.41239258 8.66057617 -14.45239258 9.34057617 C-14.46785378 10.57419388 -14.46785378 10.57419388 -14.48362732 11.83273315 C-14.58149426 19.57287532 -14.68399314 27.31293555 -14.79173183 35.05294609 C-14.84696056 39.03242068 -14.90038047 43.01190261 -14.94970703 46.99145508 C-14.99735135 50.82997258 -15.04969416 54.66839958 -15.10533333 58.50680923 C-15.12575658 59.97324503 -15.14446972 61.43970564 -15.1614666 62.90618515 C-15.18551134 64.95585883 -15.21556558 67.00536099 -15.24707031 69.05493164 C-15.26261459 70.22297333 -15.27815887 71.39101501 -15.29417419 72.5944519 C-15.45239258 75.34057617 -15.45239258 75.34057617 -16.45239258 77.34057617 C-15.0344785 76.88611653 -13.61811212 76.42682673 -12.20239258 75.96557617 C-11.41348633 75.7103418 -10.62458008 75.45510742 -9.81176758 75.19213867 C-7.47558155 74.4446112 -7.47558155 74.4446112 -5.67114258 73.21557617 C-2.21933762 71.85430098 1.17923792 72.39593222 4.79760742 72.71557617 C5.91522461 72.8006543 5.91522461 72.8006543 7.05541992 72.88745117 C8.8869585 73.02833875 10.71742094 73.18309501 12.54760742 73.34057617 C12.54760742 74.00057617 12.54760742 74.66057617 12.54760742 75.34057617 C13.72323242 75.44370117 14.89885742 75.54682617 16.11010742 75.65307617 C20.37246645 76.16972575 23.68848277 77.49141227 27.54760742 79.34057617 C27.05260742 80.82557617 27.05260742 80.82557617 26.54760742 82.34057617 C25.41323242 81.72182617 24.27885742 81.10307617 23.11010742 80.46557617 C11.48485421 74.70402713 -0.3281737 75.37688923 -12.45239258 79.34057617 C-15.24209611 80.5323799 -17.79393133 81.86365326 -20.45239258 83.34057617 C-21.44239258 83.83557617 -21.44239258 83.83557617 -22.45239258 84.34057617 C-22.45239258 83.02057617 -22.45239258 81.70057617 -22.45239258 80.34057617 C-23.11239258 80.34057617 -23.77239258 80.34057617 -24.45239258 80.34057617 C-24.45239258 81.00057617 -24.45239258 81.66057617 -24.45239258 82.34057617 C-25.77239258 82.01057617 -27.09239258 81.68057617 -28.45239258 81.34057617 C-26.99789857 80.33500007 -25.53866814 79.33627183 -24.07739258 78.34057617 C-23.2652832 77.78370117 -22.45317383 77.22682617 -21.61645508 76.65307617 C-19.45239258 75.34057617 -19.45239258 75.34057617 -17.45239258 75.34057617 C-17.46349564 74.51229813 -17.47459869 73.68402008 -17.48603821 72.8306427 C-17.58629834 65.01801867 -17.66238675 57.20561125 -17.71145344 49.39249134 C-17.73752765 45.37580189 -17.77288436 41.35964479 -17.82958984 37.34326172 C-17.88398967 33.46584036 -17.91382949 29.58893042 -17.92677879 25.71115685 C-17.93600459 24.23314044 -17.95402116 22.75515146 -17.98104286 21.27735329 C-18.01744346 19.20382243 -18.02233397 17.13239364 -18.02001953 15.05859375 C-18.03112259 13.87944901 -18.04222565 12.70030426 -18.05366516 11.48542786 C-17.09763372 6.48507165 -13.99812341 4.52040514 -10.10566711 1.54936218 C-6.70019537 -0.00211187 -3.66764692 -0.05782596 0 0 Z " fill="#7152DE" transform="translate(142.452392578125,63.659423828125)"/>
<path d="M0 0 C4.57627119 3.15254237 4.57627119 3.15254237 6 6 C6.20393196 8.78804122 6.32370547 11.52161133 6.375 14.3125 C6.41238281 15.07240234 6.44976562 15.83230469 6.48828125 16.61523438 C6.55567359 20.92460022 6.40482199 22.49693945 3.6015625 25.98046875 C-0.48032996 29.14914503 -2.80423491 29.43298042 -8 29 C-13.53846154 25.92307692 -13.53846154 25.92307692 -15 23 C-15.17759374 20.21381629 -15.2775623 17.47552812 -15.3125 14.6875 C-15.34150391 13.92759766 -15.37050781 13.16769531 -15.40039062 12.38476562 C-15.44517127 8.41995635 -15.30229245 6.47773566 -13.12890625 3.04296875 C-8.95553771 -0.96193354 -5.53912386 -1.61557779 0 0 Z " fill="#633CE9" transform="translate(224,303)"/>
<path d="M0 0 C5.16015982 5.43908738 5.10310911 8.78236204 5 16 C0.38 16 -4.24 16 -9 16 C-8.34 17.65 -7.68 19.3 -7 21 C-7 21.99 -7 22.98 -7 24 C-4.50447516 23.21869929 -4.50447516 23.21869929 -2 22 C-1.67 21.01 -1.34 20.02 -1 19 C0.98 19 2.96 19 5 19 C4.63662961 25.41954359 4.63662961 25.41954359 1.875 27.9375 C-2.69229563 29.6254136 -6.27813647 29.68874541 -10.8125 27.875 C-13.76294607 25.34604622 -14.24740748 23.83138011 -15 20 C-15.40954301 14.14440627 -15.68182201 8.36364402 -13 3 C-8.90149406 -0.8340862 -5.37886603 -1.53681886 0 0 Z " fill="#552FD9" transform="translate(298,303)"/>
<path d="M0 0 C1.98 0 3.96 0 6 0 C6 6.6 6 13.2 6 20 C6.66 20 7.32 20 8 20 C8.268125 19.278125 8.53625 18.55625 8.8125 17.8125 C11.1875 12.1875 11.1875 12.1875 13 10 C16.6875 9.6875 16.6875 9.6875 20 10 C18.91032347 13.08741684 17.75947626 15.32986113 15.8125 18 C13.7374306 20.76208566 13.7374306 20.76208566 14.2265625 23.3984375 C15.03299644 26.11098801 16.10378874 28.20628218 17.5625 30.625 C20 34.6713881 20 34.6713881 20 38 C17.69 38 15.38 38 13 38 C11.68 34.7 10.36 31.4 9 28 C8.34 28.33 7.68 28.66 7 29 C6.53348793 31.12576782 6.53348793 31.12576782 6.375 33.5625 C6.26285156 34.80193359 6.26285156 34.80193359 6.1484375 36.06640625 C6.09945313 36.70449219 6.05046875 37.34257812 6 38 C4.02 38 2.04 38 0 38 C0 25.46 0 12.92 0 0 Z " fill="#5D3BD6" transform="translate(260,293)"/>
<path d="M0 0 C0.33 0.66 0.66 1.32 1 2 C0.67 2.99 0.34 3.98 0 5 C-0.99 5 -1.98 5 -3 5 C-2.67 5.99 -2.34 6.98 -2 8 C-6.75 10.875 -6.75 10.875 -9 12 C-8.67 12.66 -8.34 13.32 -8 14 C-8.69867188 14.06058594 -9.39734375 14.12117187 -10.1171875 14.18359375 C-11.02726563 14.26738281 -11.93734375 14.35117188 -12.875 14.4375 C-13.77992188 14.51871094 -14.68484375 14.59992188 -15.6171875 14.68359375 C-18.01110861 14.86989285 -18.01110861 14.86989285 -20 16 C-21.34354131 16.07983994 -22.69106988 16.09746914 -24.03689575 16.08229065 C-25.30314285 16.07173141 -25.30314285 16.07173141 -26.5949707 16.06095886 C-27.522854 16.04801285 -28.4507373 16.03506683 -29.40673828 16.02172852 C-30.38238739 16.01212097 -31.3580365 16.00251343 -32.36325073 15.99261475 C-35.59900957 15.95954463 -38.83463674 15.91924283 -42.0703125 15.87890625 C-44.30947399 15.85461296 -46.54864039 15.83076902 -48.78781128 15.80735779 C-54.68977445 15.74443811 -60.5916509 15.67539382 -66.49353027 15.60510254 C-72.51257365 15.53449021 -78.53167867 15.46963079 -84.55078125 15.40429688 C-96.36725523 15.27518294 -108.18364561 15.13960302 -120 15 C-119.67 16.65 -119.34 18.3 -119 20 C-119.66 20 -120.32 20 -121 20 C-121 25.94 -121 31.88 -121 38 C-120.34 38 -119.68 38 -119 38 C-118.67 38.99 -118.34 39.98 -118 41 C-117.01 41.66 -116.02 42.32 -115 43 C-115 43.66 -115 44.32 -115 45 C-118.65316671 43.75023244 -119.78065836 43.32901247 -122 40 C-122.22705078 37.5480957 -122.22705078 37.5480957 -122.1953125 34.67578125 C-122.18886719 33.64775391 -122.18242188 32.61972656 -122.17578125 31.56054688 C-122.15902344 30.48869141 -122.14226562 29.41683594 -122.125 28.3125 C-122.11597656 27.22904297 -122.10695313 26.14558594 -122.09765625 25.02929688 C-122.0740734 22.3526429 -122.04116126 19.67643203 -122 17 C-123.13179687 17.02320313 -124.26359375 17.04640625 -125.4296875 17.0703125 C-126.91145175 17.08906901 -128.39322312 17.10726934 -129.875 17.125 C-130.62136719 17.14175781 -131.36773437 17.15851563 -132.13671875 17.17578125 C-134.09194461 17.1933959 -136.04742021 17.10320189 -138 17 C-138.66 16.34 -139.32 15.68 -140 15 C-140 14.34 -140 13.68 -140 13 C-139.38285094 12.99668985 -138.76570189 12.99337971 -138.12985134 12.98996925 C-123.0976047 12.90866907 -108.06546631 12.81655375 -93.03336239 12.71247292 C-85.76388073 12.66239922 -78.49441005 12.61595581 -71.22485352 12.578125 C-64.88704396 12.54513373 -58.54932094 12.50526334 -52.21160704 12.45720994 C-48.85734772 12.43201568 -45.50314528 12.41021377 -42.14881706 12.39665604 C-38.39978523 12.37977196 -34.65102974 12.35073066 -30.90209961 12.31884766 C-29.79582718 12.31668747 -28.68955475 12.31452728 -27.54975891 12.31230164 C-19.69202503 12.22694923 -13.52380926 11.7350555 -7.25 6.5625 C-6.51265625 5.96566406 -5.7753125 5.36882812 -5.015625 4.75390625 C-3.26452105 3.23017432 -1.61227958 1.66840324 0 0 Z " fill="#6848CC" transform="translate(248,234)"/>
<path d="M0 0 C0.70125 0.06703125 1.4025 0.1340625 2.125 0.203125 C4 0.75 4 0.75 6 3.75 C6.57189542 10.04084967 6.57189542 10.04084967 4.4375 12.6875 C2.53327858 15.41964377 2.99895306 17.32507304 3.5390625 20.51171875 C4.31319933 24.2708747 5.12409037 28.0127856 6 31.75 C1.38 31.75 -3.24 31.75 -8 31.75 C-7.36934845 25.9690275 -6.34844868 20.4056294 -5 14.75 C-5.99 14.09 -6.98 13.43 -8 12.75 C-9.04169177 8.80645258 -9.40024777 6.6267332 -7.6875 2.875 C-5.21288361 -0.2411836 -3.792806 -0.41832419 0 0 Z " fill="#6B4BDF" transform="translate(160,186.25)"/>
<path d="M0 0 C3.38084626 2.37572981 3.92879305 3.64396525 4.75 7.75 C4.87375 9.35875 4.87375 9.35875 5 11 C2.69 11 0.38 11 -2 11 C-2 9.35 -2 7.7 -2 6 C-3.65 5.67 -5.3 5.34 -7 5 C-7.88327729 8.0526063 -8.1633007 10.82505177 -8.1875 14 C-8.20167969 14.845625 -8.21585938 15.69125 -8.23046875 16.5625 C-7.98543096 19.15408616 -7.30584901 20.77024992 -6 23 C-5.01 23 -4.02 23 -3 23 C-2.67 21.35 -2.34 19.7 -2 18 C0.31 18 2.62 18 5 18 C4.76928323 21.9990906 4.56356875 24.33396421 1.9375 27.4375 C-1.83973675 29.44666848 -4.80927829 29.99900033 -9 29 C-12.21954645 26.46546343 -13.70432435 24.88702695 -15 21 C-15.96997464 7.02863454 -15.96997464 7.02863454 -12 2 C-7.75863122 -0.92183182 -4.92576548 -1.60622787 0 0 Z " fill="#5831D8" transform="translate(250,303)"/>
<path d="M0 0 C2.31 0 4.62 0 7 0 C7 9.9 7 19.8 7 30 C11.95 30 16.9 30 22 30 C22 31.98 22 33.96 22 36 C14.74 36 7.48 36 0 36 C0 24.12 0 12.24 0 0 Z " fill="#5D3ACC" transform="translate(183,295)"/>
<path d="M0 0 C4 2 4 2 5 4 C4.01 4 3.02 4 2 4 C2 24.79 2 45.58 2 67 C13.22857997 66.85092928 13.22857997 66.85092928 24.45703125 66.69335938 C29.0391939 66.62717234 33.62135536 66.56196317 38.20361328 66.50268555 C41.89950258 66.45481167 45.59530427 66.4024621 49.2910881 66.34705925 C50.69839663 66.32673954 52.10572907 66.30801001 53.5130806 66.29092598 C55.49005984 66.2666507 57.46695904 66.23610551 59.44384766 66.20532227 C61.12929184 66.18200584 61.12929184 66.18200584 62.8487854 66.15821838 C65.96779188 66.00161713 68.92413816 65.51643673 72 65 C74.375 65.4375 74.375 65.4375 76 66 C76 64.68 76 63.36 76 62 C78.94956528 63.36944102 81.52468811 64.87830409 84 67 C84 67.66 84 68.32 84 69 C56.28 69 28.56 69 0 69 C0 46.23 0 23.46 0 0 Z " fill="#886EE7" transform="translate(221,65)"/>
<path d="M0 0 C1.32 0 2.64 0 4 0 C4 1.65 4 3.3 4 5 C3.01 5.33 2.02 5.66 1 6 C1.26876953 6.88751953 1.26876953 6.88751953 1.54296875 7.79296875 C3.29577817 14.30492131 3.29577817 14.30492131 1.75 17.9375 C0 20 0 20 -2 22 C-2.99 21.67 -3.98 21.34 -5 21 C-4.67 20.34 -4.34 19.68 -4 19 C-6.64 19 -9.28 19 -12 19 C-12.33 15.37 -12.66 11.74 -13 8 C-13.99 9.485 -13.99 9.485 -15 11 C-15.66 11 -16.32 11 -17 11 C-16.875 8.6875 -16.875 8.6875 -16 6 C-12.53678666 3.55041008 -9.89420779 2.85657569 -5.75 3 C-4.5125 3 -3.275 3 -2 3 C-1.34 2.01 -0.68 1.02 0 0 Z " fill="#684ACE" transform="translate(162,299)"/>
<path d="M0 0 C9 1 9 1 11.03515625 2.62890625 C12.33670962 5.82746047 12.43381805 8.48751414 12.4375 11.9375 C12.45683594 13.14277344 12.47617188 14.34804688 12.49609375 15.58984375 C11.8986269 19.69684029 11.19626851 21.33896761 8 24 C5.36 24 2.72 24 0 24 C0 16.08 0 8.16 0 0 Z " fill="#FAF9FC" transform="translate(108,301)"/>
<path d="M0 0 C0.99 0.33 1.98 0.66 3 1 C3.04674806 16.8031893 3.08200259 32.6063599 3.10362434 48.40960121 C3.11393113 55.74753762 3.12798002 63.08543103 3.15087891 70.42333984 C3.1708311 76.82004303 3.18372079 83.21671506 3.18817699 89.6134485 C3.19078128 92.99957725 3.19688999 96.38561691 3.21146011 99.77171707 C3.22596058 103.55440827 3.22797851 107.33691442 3.22705078 111.11962891 C3.23424133 112.23884735 3.24143188 113.3580658 3.24884033 114.51119995 C3.23496776 119.73247106 3.12878771 124.12513347 1 129 C0.67 129 0.34 129 0 129 C0 86.43 0 43.86 0 0 Z " fill="#F1E4FE" transform="translate(307,142)"/>
<path d="M0 0 C32.01 0 64.02 0 97 0 C97.1209091 32.3991614 97.1209091 32.3991614 97.14648438 45.96679688 C97.16429138 55.33818481 97.18523507 64.70949188 97.22631836 74.08081055 C97.2562237 80.9056321 97.2755757 87.7303881 97.28226548 94.55527335 C97.28617584 98.16889136 97.29536357 101.78232185 97.31719017 105.39587975 C97.3413609 109.43026416 97.34196927 113.46432272 97.34057617 117.4987793 C97.351362 118.69639893 97.36214783 119.89401855 97.3732605 121.12792969 C97.36913651 122.22864304 97.36501251 123.32935638 97.36076355 124.46342468 C97.36352893 125.41748042 97.36629431 126.37153616 97.36914349 127.35450268 C96.92382277 130.54593041 95.9012593 132.416341 94 135 C91.3125 136.3125 91.3125 136.3125 89 137 C89.33 136.01 89.66 135.02 90 134 C90.99 134 91.98 134 93 134 C95.0848023 127.13751764 95.30531038 120.76174332 95.31884766 113.6171875 C95.32889328 112.39682297 95.3389389 111.17645844 95.34928894 109.91911316 C95.37476721 106.59527586 95.39169108 103.27160699 95.40471697 99.94771194 C95.42041698 96.46566234 95.44718505 92.98369764 95.4727478 89.50170898 C95.51941457 82.91817921 95.55621697 76.33463324 95.58942068 69.75102329 C95.6314904 61.51494636 95.68682483 53.27896522 95.7421875 45.04296875 C95.84081505 30.36203191 95.91947449 15.68107206 96 1 C64.32 1 32.64 1 0 1 C0 0.67 0 0.34 0 0 Z " fill="#8369D7" transform="translate(210,142)"/>
<path d="M0 0 C0 0.66 0 1.32 0 2 C0.66 2.33 1.32 2.66 2 3 C1.360625 3.391875 0.72125 3.78375 0.0625 4.1875 C-2.52588239 6.46213907 -2.52803124 7.63842656 -3 11 C-3.36537078 16.83743554 -3.67106254 22.65787493 -1 28 C0.993252 29.87310888 0.993252 29.87310888 3 31 C1.515 31.495 1.515 31.495 0 32 C0 31.34 0 30.68 0 30 C-0.99 30 -1.98 30 -3 30 C-3.33 30.66 -3.66 31.32 -4 32 C-4.33 31.67 -4.66 31.34 -5 31 C-7.67058851 30.85884839 -10.32432238 30.95752893 -13 31 C-13 30.67 -13 30.34 -13 30 C-11.02 30 -9.04 30 -7 30 C-7.77537109 28.57107422 -7.77537109 28.57107422 -8.56640625 27.11328125 C-9.23251137 25.84674336 -9.89783515 24.57979432 -10.5625 23.3125 C-11.07586914 22.37374023 -11.07586914 22.37374023 -11.59960938 21.41601562 C-13.04684782 18.62386872 -14.01831846 16.51902295 -13.90625 13.34375 C-12.87269742 10.6707692 -11.58288478 8.53304852 -9.9375 6.1875 C-9.11572266 5.00220703 -9.11572266 5.00220703 -8.27734375 3.79296875 C-7.64505859 2.90544922 -7.64505859 2.90544922 -7 2 C-7.66 1.67 -8.32 1.34 -9 1 C-2.25 -1.125 -2.25 -1.125 0 0 Z " fill="#F8F3FB" transform="translate(287,301)"/>
<path d="M0 0 C2.1875 0.3125 2.1875 0.3125 4 1 C4 2.98 4 4.96 4 7 C2.02 7.66 0.04 8.32 -2 9 C-2.33 15.6 -2.66 22.2 -3 29 C-5.31 29 -7.62 29 -10 29 C-10 19.76 -10 10.52 -10 1 C-8.35 1 -6.7 1 -5 1 C-4.34 1.66 -3.68 2.32 -3 3 C-2.5875 2.484375 -2.175 1.96875 -1.75 1.4375 C-0.88375 0.7259375 -0.88375 0.7259375 0 0 Z " fill="#5C39C2" transform="translate(318,302)"/>
<path d="M0 0 C2.31 0 4.62 0 7 0 C7.33 2.31 7.66 4.62 8 7 C7.34 7 6.68 7 6 7 C6 17.23 6 27.46 6 38 C4.02 38 2.04 38 0 38 C0 28.43 0 18.86 0 9 C0.66 9 1.32 9 2 9 C2 8.34 2 7.68 2 7 C1.34 6.67 0.68 6.34 0 6 C0 4.02 0 2.04 0 0 Z " fill="#5436B5" transform="translate(132,293)"/>
<path d="M0 0 C0.33 0 0.66 0 1 0 C1 22.77 1 45.54 1 69 C9.29289322 66.47140452 9.29289322 66.47140452 14 64 C16.80458415 64.01689509 19.4677163 64.12921522 22.25 64.375 C23.36761719 64.46007812 23.36761719 64.46007812 24.5078125 64.546875 C26.33935108 64.68776258 28.16981352 64.84251884 30 65 C30 65.66 30 66.32 30 67 C31.175625 67.103125 32.35125 67.20625 33.5625 67.3125 C37.82485903 67.82914958 41.14087534 69.1508361 45 71 C44.505 72.485 44.505 72.485 44 74 C42.865625 73.38125 41.73125 72.7625 40.5625 72.125 C28.93724679 66.36345096 17.12421888 67.03631306 5 71 C2.21029647 72.19180373 -0.34153875 73.52307708 -3 75 C-3.99 75.495 -3.99 75.495 -5 76 C-5 74.68 -5 73.36 -5 72 C-5.66 72 -6.32 72 -7 72 C-7 72.66 -7 73.32 -7 74 C-8.32 73.67 -9.64 73.34 -11 73 C-9.54550599 71.9944239 -8.08627557 70.99569565 -6.625 70 C-5.81289062 69.443125 -5.00078125 68.88625 -4.1640625 68.3125 C-2 67 -2 67 0 67 C0 44.89 0 22.78 0 0 Z " fill="#886EE0" transform="translate(125,72)"/>
<path d="M0 0 C2.31 0 4.62 0 7 0 C7 9.24 7 18.48 7 28 C4.69 28 2.38 28 0 28 C0 18.76 0 9.52 0 0 Z " fill="#6E52CE" transform="translate(170,303)"/>
<path d="M0 0 C0 0.66 0 1.32 0 2 C0.99 2.33 1.98 2.66 3 3 C3 3.66 3 4.32 3 5 C3.33 5 3.66 5 4 5 C4.09765625 11.15234375 4.09765625 11.15234375 4 13 C2.21852702 14.78147298 -0.45879772 14.337761 -2.875 14.5 C-6.18718188 14.72347251 -8.84376196 14.94792065 -12 16 C-12.62644556 5.90726598 -12.62644556 5.90726598 -10.1875 2.375 C-6.71081914 0.18965775 -4.01865351 -0.10861226 0 0 Z " fill="#6037DD" transform="translate(297,304)"/>
<path d="M0 0 C0.33 0 0.66 0 1 0 C1.00808685 0.89313904 1.01617371 1.78627808 1.02450562 2.70648193 C1.10244248 11.12299486 1.1897305 19.53934762 1.28752708 27.95565414 C1.33747549 32.28257795 1.38380565 36.60947752 1.421875 40.93652344 C1.45874622 45.11227032 1.50511114 49.28781369 1.55806351 53.46338654 C1.5765977 55.05654582 1.59170928 56.64974872 1.60334396 58.24297333 C1.62022325 60.47436875 1.64926172 62.70529907 1.68115234 64.93652344 C1.69447601 66.20671326 1.70779968 67.47690308 1.7215271 68.7855835 C1.98128055 71.78392118 2.41796694 73.48421521 4 76 C4.86205048 75.99777939 5.72410095 75.99555878 6.61227417 75.99327087 C14.81827377 75.97306238 23.02426477 75.95792256 31.23028374 75.94818783 C35.4469905 75.94301456 39.66367636 75.93602064 43.88037109 75.92456055 C47.96528447 75.91353069 52.05017799 75.90768159 56.13510513 75.90512276 C57.67765744 75.90330408 59.22020891 75.89975501 60.76275253 75.89426994 C71.8759507 75.85639903 82.91010461 76.28120199 94 77 C94 77.33 94 77.66 94 78 C62.98 78 31.96 78 0 78 C0 52.26 0 26.52 0 0 Z " fill="#F2E6FE" transform="translate(210,64)"/>
<path d="M0 0 C1.32 0 2.64 0 4 0 C3.67 9.57 3.34 19.14 3 29 C4.98 29.66 6.96 30.32 9 31 C5.60379269 33.08997373 2.94836905 33.2632246 -1 33 C-2 32 -2 32 -2.11352539 29.40795898 C-2.10828857 28.28204346 -2.10305176 27.15612793 -2.09765625 25.99609375 C-2.09443359 24.78115234 -2.09121094 23.56621094 -2.08789062 22.31445312 C-2.07951172 21.03505859 -2.07113281 19.75566406 -2.0625 18.4375 C-2.05798828 17.15423828 -2.05347656 15.87097656 -2.04882812 14.54882812 C-2.03699545 11.36583978 -2.02051068 8.18294238 -2 5 C-1.34 5 -0.68 5 0 5 C0 3.35 0 1.7 0 0 Z " fill="#5B30E2" transform="translate(104,297)"/>
<path d="M0 0 C2.08218362 -0.10832169 4.16599129 -0.18573541 6.25 -0.25 C7.99023438 -0.31960938 7.99023438 -0.31960938 9.765625 -0.390625 C13 0 13 0 15.39453125 1.796875 C17.71271324 4.97802985 17.48003127 7.1597498 17 11 C15.71795798 13.43587983 14.95013178 14.66098584 12.3359375 15.59375 C9.16266488 16.1456235 6.09428071 16.13172084 2.875 16.125 C1.63492188 16.12757813 0.39484375 16.13015625 -0.8828125 16.1328125 C-4 16 -4 16 -6 15 C-6.40729228 12.67843403 -6.74438677 10.3431213 -7 8 C-5.68 7.67 -4.36 7.34 -3 7 C-3 7.99 -3 8.98 -3 10 C1.29 10 5.58 10 10 10 C10.33 9.34 10.66 8.68 11 8 C13.475 8.495 13.475 8.495 16 9 C15.67 7.02 15.34 5.04 15 3 C14.33613281 2.93941406 13.67226562 2.87882812 12.98828125 2.81640625 C4.21792619 1.98418278 4.21792619 1.98418278 0 1 C0 0.67 0 0.34 0 0 Z " fill="#5A38D2" transform="translate(150,325)"/>
<path d="M0 0 C0.33 0 0.66 0 1 0 C1.33 6.27 1.66 12.54 2 19 C3.98 17.68 5.96 16.36 8 15 C8 18 8 18 6.9375 20.4375 C5.92253577 23.21173555 5.99512304 24.2868322 7 27 C6.34 27 5.68 27 5 27 C4.938125 28.27875 4.87625 29.5575 4.8125 30.875 C4.77769531 31.59429687 4.74289063 32.31359375 4.70703125 33.0546875 C4.80371094 33.69664062 4.90039062 34.33859375 5 35 C8.04681061 37.03120707 8.60118324 37.24659875 12.01171875 37.1953125 C13.14770508 37.18564453 13.14770508 37.18564453 14.30664062 37.17578125 C15.09232422 37.15902344 15.87800781 37.14226562 16.6875 37.125 C17.48478516 37.11597656 18.28207031 37.10695313 19.10351562 37.09765625 C21.069139 37.07411585 23.03460775 37.03824547 25 37 C22.57315277 39.42684723 21.80190342 39.29564393 18.46484375 39.44921875 C17.12776367 39.51399414 17.12776367 39.51399414 15.76367188 39.58007812 C14.83103516 39.61552734 13.89839844 39.65097656 12.9375 39.6875 C11.53274414 39.75807617 11.53274414 39.75807617 10.09960938 39.83007812 C4.99405633 40.05559495 4.99405633 40.05559495 3 40 C2 39 2 39 1.90234375 37.15234375 C1.93489583 35.1015625 1.96744792 33.05078125 2 31 C1.05125 31.061875 0.1025 31.12375 -0.875 31.1875 C-1.90625 31.125625 -2.9375 31.06375 -4 31 C-4.66 30.01 -5.32 29.02 -6 28 C-4.02 28 -2.04 28 0 28 C0 18.76 0 9.52 0 0 Z " fill="#E1D5FB" transform="translate(138,303)"/>
<path d="M0 0 C2.27444817 0.52487265 4.42360943 1.15128908 6.625 1.9375 C11.0211805 3.32148275 15.47319653 4.15905232 20 5 C20.33 6.98 20.66 8.96 21 11 C18.525 10.505 18.525 10.505 16 10 C15.67 10.99 15.34 11.98 15 13 C11.37 13 7.74 13 4 13 C3.67 11.68 3.34 10.36 3 9 C4.58272601 7.41727399 6.38034003 7.65264253 8.5625 7.4375 C9.38878906 7.35371094 10.21507812 7.26992188 11.06640625 7.18359375 C12.02353516 7.09271484 12.02353516 7.09271484 13 7 C8.83861737 6.91840426 5.0527516 7.01751476 1 8 C0.67 5.36 0.34 2.72 0 0 Z " fill="#5829EC" transform="translate(145,323)"/>
<path d="M0 0 C3.38084626 2.37572981 3.92879305 3.64396525 4.75 7.75 C4.87375 9.35875 4.87375 9.35875 5 11 C2.69 11 0.38 11 -2 11 C-2 9.35 -2 7.7 -2 6 C-3.65 5.67 -5.3 5.34 -7 5 C-7.66 6.32 -8.32 7.64 -9 9 C-9.33 8.34 -9.66 7.68 -10 7 C-10.99 6.67 -11.98 6.34 -13 6 C-12.979375 7.175625 -12.95875 8.35125 -12.9375 9.5625 C-12.93052739 13.47413467 -13.35749657 17.14497944 -14 21 C-14.33 21 -14.66 21 -15 21 C-15.57949732 6.53402994 -15.57949732 6.53402994 -12 2 C-7.75863122 -0.92183182 -4.92576548 -1.60622787 0 0 Z " fill="#6845E2" transform="translate(250,303)"/>
<path d="M0 0 C1.65 0.33 3.3 0.66 5 1 C5.95530645 4.23275701 6.16460378 7.19675639 6.1875 10.5625 C6.20167969 11.51253906 6.21585938 12.46257812 6.23046875 13.44140625 C6 16 6 16 4 19 C1.375 19.1875 1.375 19.1875 -1 19 C-3.35199995 14.4430001 -3.62635454 10.01991396 -3 5 C-1.5 1.9375 -1.5 1.9375 0 0 Z " fill="#F4ECFB" transform="translate(218,308)"/>
<path d="M0 0 C2.875 2.0625 2.875 2.0625 5 4 C4.67 4.66 4.34 5.32 4 6 C3.67 5.525625 3.34 5.05125 3 4.5625 C0.00964464 2.22628488 -3.26067974 2.03015581 -7 2 C-10.11673602 2.66763053 -10.11673602 2.66763053 -11.1796875 5.07421875 C-12.19410477 8.69230703 -12.21756036 12.09228565 -12.125 15.8125 C-12.11146484 16.85180664 -12.11146484 16.85180664 -12.09765625 17.91210938 C-12.07426157 19.60822395 -12.03839641 21.30415871 -12 23 C-11.34 23.33 -10.68 23.66 -10 24 C-10 24.66 -10 25.32 -10 26 C-9.34 26 -8.68 26 -8 26 C-8.495 25.195625 -8.99 24.39125 -9.5 23.5625 C-11.34527349 19.17997546 -11.28061086 15.67684769 -11 11 C-10.34 11 -9.68 11 -9 11 C-8.34 14.96 -7.68 18.92 -7 23 C-5.02 23 -3.04 23 -1 23 C-1 23.66 -1 24.32 -1 25 C-2.65 25 -4.3 25 -6 25 C-6 25.99 -6 26.98 -6 28 C-4.35 28 -2.7 28 -1 28 C-1 28.33 -1 28.66 -1 29 C-6.70035501 29.4560284 -9.54784247 28.60412752 -14 25 C-15.62062503 21.75874994 -15.26791352 18.24550138 -15.3125 14.6875 C-15.34150391 13.92759766 -15.37050781 13.16769531 -15.40039062 12.38476562 C-15.44517127 8.41995635 -15.30229245 6.47773566 -13.12890625 3.04296875 C-8.95553771 -0.96193354 -5.53912386 -1.61557779 0 0 Z " fill="#6241CD" transform="translate(224,303)"/>
<path d="M0 0 C0.33 0 0.66 0 1 0 C1.33 11.22 1.66 22.44 2 34 C7.47825081 34.4472136 7.47825081 34.4472136 10 33 C8.68 32.34 7.36 31.68 6 31 C6 22.75 6 14.5 6 6 C6.33 6 6.66 6 7 6 C7 13.92 7 21.84 7 30 C14.49948928 29.78811503 14.49948928 29.78811503 17.5 26.9375 C18.2425 25.9784375 18.2425 25.9784375 19 25 C18.67 26.98 18.34 28.96 18 31 C18.66 31.33 19.32 31.66 20 32 C19.67 32.99 19.34 33.98 19 35 C12.98335642 37.00554786 6.3420992 36 0 36 C0 24.12 0 12.24 0 0 Z " fill="#5D3CC4" transform="translate(101,295)"/>
<path d="M0 0 C2.31 0 4.62 0 7 0 C5.91032347 3.08741684 4.75947626 5.32986113 2.8125 8 C0.7374306 10.76208566 0.7374306 10.76208566 1.2265625 13.3984375 C2.03299644 16.11098801 3.10378874 18.20628218 4.5625 20.625 C7 24.6713881 7 24.6713881 7 28 C4.69 28 2.38 28 0 28 C-1.32 24.37 -2.64 20.74 -4 17 C-3.01 16.67 -2.02 16.34 -1 16 C-1.226875 15.0925 -1.45375 14.185 -1.6875 13.25 C-2 10 -2 10 -0.5625 7.625 C0.2109375 6.820625 0.2109375 6.820625 1 6 C0.67 5.67 0.34 5.34 0 5 C-0.33 5.66 -0.66 6.32 -1 7 C-1.66 7 -2.32 7 -3 7 C-1.125 2.25 -1.125 2.25 0 0 Z " fill="#5F37D8" transform="translate(273,303)"/>
<path d="M0 0 C4.455 0.99 4.455 0.99 9 2 C9 2.33 9 2.66 9 3 C6.69 3 4.38 3 2 3 C2 14.88 2 26.76 2 39 C1.67 39 1.34 39 1 39 C0.67 27.78 0.34 16.56 0 5 C-0.99 5 -1.98 5 -3 5 C-3 5.66 -3 6.32 -3 7 C-5.64 7 -8.28 7 -11 7 C-11 5.02 -11 3.04 -11 1 C-9.741875 0.979375 -8.48375 0.95875 -7.1875 0.9375 C-6.47980469 0.92589844 -5.77210938 0.91429687 -5.04296875 0.90234375 C-3 1 -3 1 0 2 C0 1.34 0 0.68 0 0 Z " fill="#E0D4F7" transform="translate(181,292)"/>
<path d="M0 0 C5.16015982 5.43908738 5.10310911 8.78236204 5 16 C0.38 16 -4.24 16 -9 16 C-9 15.67 -9 15.34 -9 15 C-3.555 14.505 -3.555 14.505 2 14 C2 11.69 2 9.38 2 7 C1.34 6.67 0.68 6.34 0 6 C0.33 5.34 0.66 4.68 1 4 C0.34 3.67 -0.32 3.34 -1 3 C-1 2.34 -1 1.68 -1 1 C-2.27875 1.268125 -3.5575 1.53625 -4.875 1.8125 C-5.59429687 1.96332031 -6.31359375 2.11414063 -7.0546875 2.26953125 C-9.37046549 2.92308838 -9.37046549 2.92308838 -11 6 C-11.66 6 -12.32 6 -13 6 C-13 11.94 -13 17.88 -13 24 C-16.0133088 17.9733824 -15.64866606 12.02710827 -14.25 5.5 C-11.25928103 -0.48143794 -6.19043241 -1.76869497 0 0 Z " fill="#6243C4" transform="translate(298,303)"/>
<path d="M0 0 C0.66 0 1.32 0 2 0 C2 0.99 2 1.98 2 3 C1.34 3 0.68 3 0 3 C-0.33 11.58 -0.66 20.16 -1 29 C-1.99 29 -2.98 29 -4 29 C-5.04110806 24.69283519 -5.21724529 20.47210322 -5.25 16.0625 C-5.270625 15.37220703 -5.29125 14.68191406 -5.3125 13.97070312 C-5.34854352 9.21746335 -4.42064138 6.07049958 -2 2 C-1.34 2 -0.68 2 0 2 C0 1.34 0 0.68 0 0 Z " fill="#6846E6" transform="translate(84,196)"/>
<path d="M0 0 C0.5775 0.185625 1.155 0.37125 1.75 0.5625 C3.97214494 1.16952281 3.97214494 1.16952281 6 0.4375 C8.62473206 -0.13666014 9.75722562 0.63831556 12 2 C12 2.66 12 3.32 12 4 C10.35546875 5.18359375 10.35546875 5.18359375 8.1875 6.4375 C5.40578131 8.05383563 3.18823319 9.63229027 1 12 C0.690625 11.360625 0.38125 10.72125 0.0625 10.0625 C-3.09768575 6.90231425 -6.68333908 7.18099207 -11 7 C-10.67 6.34 -10.34 5.68 -10 5 C-7.95966465 4.80568235 -5.91932344 4.61142512 -3.87890625 4.41796875 C-1.77378478 4.1671504 -1.77378478 4.1671504 -0.5 1.9375 C-0.335 1.298125 -0.17 0.65875 0 0 Z " fill="#FCFBF6" transform="translate(300,296)"/>
<path d="M0 0 C0 0.66 0 1.32 0 2 C1.32 2.33 2.64 2.66 4 3 C3.67 4.98 3.34 6.96 3 9 C2.01 8.67 1.02 8.34 0 8 C-0.66 9.65 -1.32 11.3 -2 13 C-2.66 12.01 -3.32 11.02 -4 10 C-5.32 10 -6.64 10 -8 10 C-8.48695652 2.57391304 -8.48695652 2.57391304 -6.25 -0.0625 C-3.6468225 -1.14715729 -2.58518155 -1.01560704 0 0 Z " fill="#6841F5" transform="translate(161,188)"/>
<path d="M0 0 C2.97 0.495 2.97 0.495 6 1 C6.66 1.99 7.32 2.98 8 4 C6.35 3.67 4.7 3.34 3 3 C3 3.66 3 4.32 3 5 C3.66 5 4.32 5 5 5 C5 5.66 5 6.32 5 7 C5.66 7 6.32 7 7 7 C7 7.66 7 8.32 7 9 C5.68 9 4.36 9 3 9 C3 8.34 3 7.68 3 7 C2.34 7 1.68 7 1 7 C1.33 7.99 1.66 8.98 2 10 C2.0878506 11.73345807 2.11764814 13.47013269 2.11352539 15.20581055 C2.11344986 16.26668381 2.11337433 17.32755707 2.11329651 18.420578 C2.10813522 19.56440445 2.10297394 20.7082309 2.09765625 21.88671875 C2.0962413 23.05886429 2.09482635 24.23100983 2.09336853 25.43867493 C2.08776388 29.18830907 2.07521056 32.93788385 2.0625 36.6875 C2.0574856 39.22721268 2.05292259 41.7669263 2.04882812 44.30664062 C2.03779294 50.53778073 2.02105025 56.76888612 2 63 C1.34 63 0.68 63 0 63 C0 42.21 0 21.42 0 0 Z " fill="#6742EF" transform="translate(223,69)"/>
<path d="M0 0 C1.32 0 2.64 0 4 0 C4 8.25 4 16.5 4 25 C2.68 25 1.36 25 0 25 C0 16.75 0 8.5 0 0 Z " fill="#6035EE" transform="translate(133,305)"/>
<path d="M0 0 C0.33 0 0.66 0 1 0 C1.02578125 1.03640625 1.0515625 2.0728125 1.078125 3.140625 C1.13441951 4.51045801 1.19176655 5.88024805 1.25 7.25 C1.26417969 7.93191406 1.27835938 8.61382812 1.29296875 9.31640625 C1.45974253 12.75194615 1.72264379 14.65950579 3.921875 17.359375 C4.60765625 17.90078125 5.2934375 18.4421875 6 19 C6.66 19.66 7.32 20.32 8 21 C6.59054634 21.56016748 5.1719969 22.09748502 3.75 22.625 C2.96109375 22.92664063 2.1721875 23.22828125 1.359375 23.5390625 C-1 24 -1 24 -2.84960938 23.0546875 C-5.30443495 21.85068586 -7.04480762 21.69058432 -9.765625 21.5859375 C-10.65507812 21.54726563 -11.54453125 21.50859375 -12.4609375 21.46875 C-13.38132813 21.4378125 -14.30171875 21.406875 -15.25 21.375 C-16.18585938 21.33632813 -17.12171875 21.29765625 -18.0859375 21.2578125 C-20.39043054 21.16375156 -22.69492013 21.07810601 -25 21 C-25 20.67 -25 20.34 -25 20 C-17.74 20 -10.48 20 -3 20 C-3 18.02 -3 16.04 -3 14 C-2.67 14 -2.34 14 -2 14 C-2 15.98 -2 17.96 -2 20 C-1.01857619 15.75266168 -0.69079621 11.52675467 -0.4375 7.1875 C-0.39431641 6.49462891 -0.35113281 5.80175781 -0.30664062 5.08789062 C-0.20138547 3.39211314 -0.10027137 1.69607948 0 0 Z " fill="#E4D8FB" transform="translate(208,311)"/>
<path d="M0 0 C1.98 0.495 1.98 0.495 4 1 C4.33 6.94 4.66 12.88 5 19 C3.68 19.33 2.36 19.66 1 20 C-1 18 -1 18 -1.23046875 15.8984375 C-1.13889527 10.52057694 -0.78848574 5.32227877 0 0 Z " fill="#5932D6" transform="translate(237,309)"/>
<path d="M0 0 C0 0.66 0 1.32 0 2 C0.99 2.33 1.98 2.66 3 3 C2.505 3.598125 2.01 4.19625 1.5 4.8125 C-0.28276418 6.97029994 -0.28276418 6.97029994 0 10 C-6.75 10.125 -6.75 10.125 -9 9 C-9.75 6.625 -9.75 6.625 -10 4 C-7.16124653 -0.25813021 -4.8137938 -0.13010254 0 0 Z " fill="#633FE5" transform="translate(297,304)"/>
<path d="M0 0 C3.63 0 7.26 0 11 0 C11 0.66 11 1.32 11 2 C12.32 2.33 13.64 2.66 15 3 C14.01 3.495 14.01 3.495 13 4 C18.28 4.33 23.56 4.66 29 5 C29 11.93 29 18.86 29 26 C28.67 26 28.34 26 28 26 C28 19.4 28 12.8 28 6 C25.79570313 6.03480469 25.79570313 6.03480469 23.546875 6.0703125 C21.61458841 6.08907256 19.68229633 6.10727251 17.75 6.125 C16.29787109 6.15013672 16.29787109 6.15013672 14.81640625 6.17578125 C13.41455078 6.18544922 13.41455078 6.18544922 11.984375 6.1953125 C11.12553711 6.20578613 10.26669922 6.21625977 9.38183594 6.22705078 C6.82096404 5.98293323 5.20488971 5.28990512 3 4 C3 3.01 3 2.02 3 1 C2.01 0.67 1.02 0.34 0 0 Z " fill="#7F62DD" transform="translate(97,246)"/>
<path d="M0 0 C1.03325757 3.09977271 1.04037295 5.07871122 0.9375 8.3125 C0.90907517 12.61601982 1.03813117 16.07626233 3 20 C4.993252 21.87310888 4.993252 21.87310888 7 23 C6.01 23.33 5.02 23.66 4 24 C4 23.34 4 22.68 4 22 C3.01 22 2.02 22 1 22 C0.67 22.66 0.34 23.32 0 24 C-0.33 23.67 -0.66 23.34 -1 23 C-3.67058851 22.85884839 -6.32432238 22.95752893 -9 23 C-9 22.67 -9 22.34 -9 22 C-7.02 22 -5.04 22 -3 22 C-3.7425 20.6078125 -3.7425 20.6078125 -4.5 19.1875 C-6 16 -6 16 -6 13 C-5.01 13 -4.02 13 -3 13 C-1.4523445 9.90468901 -1.55590549 6.6333237 -1.28125 3.21484375 C-1 1 -1 1 0 0 Z " fill="#ECE1FA" transform="translate(283,309)"/>
<path d="M0 0 C1.98 0.66 3.96 1.32 6 2 C6 3.32 6 4.64 6 6 C6.66 6 7.32 6 8 6 C8.29003906 7.03060547 8.29003906 7.03060547 8.5859375 8.08203125 C8.84632813 8.98308594 9.10671875 9.88414062 9.375 10.8125 C9.63023437 11.70582031 9.88546875 12.59914062 10.1484375 13.51953125 C10.95266661 16.20467896 10.95266661 16.20467896 13 19 C13.70923808 24.96594388 12.95955133 30.36628992 11 36 C10.34 36 9.68 36 9 36 C9 37.65 9 39.3 9 41 C7.68 41.66 6.36 42.32 5 43 C5.268125 42.38125 5.53625 41.7625 5.8125 41.125 C9.86313474 30.46543489 11.49979392 22.6105304 7.2890625 11.765625 C5.31110425 7.52200547 2.78128853 3.75473951 0 0 Z " fill="#6F4FDC" transform="translate(244,191)"/>
<path d="M0 0 C1.65 0.33 3.3 0.66 5 1 C5 2.65 5 4.3 5 6 C7.31 6 9.62 6 12 6 C12 6.33 12 6.66 12 7 C10.02 7 8.04 7 6 7 C5.67 7.66 5.34 8.32 5 9 C2.525 8.01 2.525 8.01 0 7 C0.33 9.64 0.66 12.28 1 15 C1.99 15.33 2.98 15.66 4 16 C4.33 15.01 4.66 14.02 5 13 C5 14.65 5 16.3 5 18 C3.68 18.33 2.36 18.66 1 19 C-2.28139696 14.89825379 -2.32403033 11.43189487 -2.30078125 6.40234375 C-1.98365957 3.86948878 -1.27224682 2.19475249 0 0 Z " fill="#EEE4FD" transform="translate(243,308)"/>
<path d="M0 0 C0.66 0 1.32 0 2 0 C1.878592 4.00646398 0.44090418 5.81131258 -2.3125 8.5 C-3.25222656 9.38365234 -3.25222656 9.38365234 -4.2109375 10.28515625 C-6.37200073 12.35656838 -8.19428846 14.61646076 -10 17 C-9.67 15.35 -9.34 13.7 -9 12 C-9.99 12 -10.98 12 -12 12 C-12 12.66 -12 13.32 -12 14 C-12.66 13.67 -13.32 13.34 -14 13 C-13.09066991 11.72390677 -12.17217147 10.45434447 -11.25 9.1875 C-10.73953125 8.47980469 -10.2290625 7.77210938 -9.703125 7.04296875 C-7.93156757 4.91791247 -6.36744606 3.4322145 -4 2 C-2.68 2 -1.36 2 0 2 C0 1.34 0 0.68 0 0 Z " fill="#7054DA" transform="translate(118,144)"/>
<path d="M0 0 C2.0625 1.6875 2.0625 1.6875 4 4 C3.75 6.75 3.75 6.75 3 9 C3.66 9 4.32 9 5 9 C5.33 10.65 5.66 12.3 6 14 C3.03 14 0.06 14 -3 14 C-3.29341888 8.32723489 -3.00559652 5.00932754 0 0 Z " fill="#6842F8" transform="translate(158,203)"/>
<path d="M0 0 C1.32 0 2.64 0 4 0 C4 1.65 4 3.3 4 5 C3.01 5.33 2.02 5.66 1 6 C1 9.3 1 12.6 1 16 C0.01 16 -0.98 16 -2 16 C-2.66 13.03 -3.32 10.06 -4 7 C-5.65 7 -7.3 7 -9 7 C-8.67 6.34 -8.34 5.68 -8 5 C-5.69 5 -3.38 5 -1 5 C-0.67 3.35 -0.34 1.7 0 0 Z " fill="#623DEC" transform="translate(162,299)"/>
<path d="M0 0 C0.33 0 0.66 0 1 0 C1 2.97 1 5.94 1 9 C0.67 8.34 0.34 7.68 0 7 C-1.98 7 -3.96 7 -6 7 C-6.33 8.32 -6.66 9.64 -7 11 C-8.65 11.33 -10.3 11.66 -12 12 C-12.66 9.36 -13.32 6.72 -14 4 C-9.38 4 -4.76 4 0 4 C0 2.68 0 1.36 0 0 Z " fill="#FCF4FD" transform="translate(303,315)"/>
<path d="M0 0 C0.8723412 2.99480917 1.10829766 5.63575911 1.0625 8.75 C1.05347656 9.54921875 1.04445312 10.3484375 1.03515625 11.171875 C1.01775391 12.07679688 1.01775391 12.07679688 1 13 C3.64 13 6.28 13 9 13 C8.67 14.32 8.34 15.64 8 17 C5.03 17 2.06 17 -1 17 C-1.68473395 14.67190457 -2.34853151 12.33762223 -3 10 C-3.4021875 8.63875 -3.4021875 8.63875 -3.8125 7.25 C-4 5 -4 5 -2.625 3.3125 C-2.08875 2.879375 -1.5525 2.44625 -1 2 C-0.67 1.34 -0.34 0.68 0 0 Z " fill="#5D30EA" transform="translate(149,305)"/>
<path d="M0 0 C1.11761719 0.0918457 1.11761719 0.0918457 2.2578125 0.18554688 C4.08982155 0.3382143 5.92014316 0.51089754 7.75 0.6875 C7.75 1.3475 7.75 2.0075 7.75 2.6875 C8.925625 2.790625 10.10125 2.89375 11.3125 3 C15.57485903 3.51664958 18.89087534 4.8383361 22.75 6.6875 C22.42 7.6775 22.09 8.6675 21.75 9.6875 C20.615625 9.06875 19.48125 8.45 18.3125 7.8125 C8.64626249 3.06328956 -1.68416171 3.14846654 -12.25 2.6875 C-8.56627606 -1.08347003 -4.87888257 -0.48702626 0 0 Z " fill="#6747E2" transform="translate(147.25,136.3125)"/>
<path d="M0 0 C1.98 0.99 1.98 0.99 4 2 C3.01 2.33 2.02 2.66 1 3 C1.33 24.12 1.66 45.24 2 67 C1.34 67 0.68 67 0 67 C0 44.89 0 22.78 0 0 Z " fill="#6445D0" transform="translate(222,66)"/>
<path d="M0 0 C0.66 0 1.32 0 2 0 C2.33333333 1.33333333 2.66666667 2.66666667 3 4 C3.28875 4.639375 3.5775 5.27875 3.875 5.9375 C4 8 4 8 2 10.75 C-1.63336334 13.47502251 -3.56322479 13.43497796 -8 13 C-8 12.01 -8 11.02 -8 10 C-6.35 10 -4.7 10 -3 10 C-2.814375 8.3603125 -2.814375 8.3603125 -2.625 6.6875 C-2 3 -2 3 0 0 Z " fill="#542CD6" transform="translate(226,318)"/>
<path d="M0 0 C0.99 0 1.98 0 3 0 C3 7.92 3 15.84 3 24 C2.01 24 1.02 24 0 24 C0 16.08 0 8.16 0 0 Z " fill="#5A2CEF" transform="translate(172,305)"/>
<path d="M0 0 C1.32 0.33 2.64 0.66 4 1 C4.33 2.32 4.66 3.64 5 5 C4.34 5 3.68 5 3 5 C3 11.27 3 17.54 3 24 C2.01 24 1.02 24 0 24 C-0.25 16.375 -0.25 16.375 2 13 C1.34 13 0.68 13 0 13 C0 8.71 0 4.42 0 0 Z " fill="#5F32E9" transform="translate(310,305)"/>
<path d="M0 0 C1.32 0 2.64 0 4 0 C3.84660156 0.63292969 3.69320312 1.26585937 3.53515625 1.91796875 C2.81937036 6.04026849 2.63849837 10.13766507 2.4375 14.3125 C2.39431641 15.14845703 2.35113281 15.98441406 2.30664062 16.84570312 C2.20114693 18.89696935 2.10012685 20.9484648 2 23 C1.01 22.67 0.02 22.34 -1 22 C-1.0270817 19.27076612 -1.04687847 16.54180363 -1.0625 13.8125 C-1.07087891 13.04357422 -1.07925781 12.27464844 -1.08789062 11.48242188 C-1.10491934 7.51473211 -0.98604115 3.87428766 0 0 Z " fill="#5F35F0" transform="translate(104,297)"/>
<path d="M0 0 C0.66 0.33 1.32 0.66 2 1 C2 1.99 2 2.98 2 4 C3.65 4 5.3 4 7 4 C7 4.99 7 5.98 7 7 C6.05382812 6.67515625 5.10765625 6.3503125 4.1328125 6.015625 C-0.60682243 4.66553272 -5.2282236 4.70660169 -10.125 4.75 C-11.44564453 4.73839844 -11.44564453 4.73839844 -12.79296875 4.7265625 C-17.29524728 4.74014403 -20.91578914 4.86468644 -25 7 C-25.33 6.01 -25.66 5.02 -26 4 C-20.4897515 1.67507787 -15.48887115 1.76625489 -9.625 1.875 C-8.23474609 1.88853516 -8.23474609 1.88853516 -6.81640625 1.90234375 C-4.54399923 1.92577063 -2.2721382 1.95857252 0 2 C0 1.34 0 0.68 0 0 Z " fill="#6C4FD8" transform="translate(210,155)"/>
<path d="M0 0 C0.33 0 0.66 0 1 0 C1.06058594 0.74765625 1.12117188 1.4953125 1.18359375 2.265625 C1.26738281 3.25046875 1.35117187 4.2353125 1.4375 5.25 C1.51871094 6.22453125 1.59992188 7.1990625 1.68359375 8.203125 C1.92628356 10.9214494 1.92628356 10.9214494 2.5625 13.19921875 C3.16138672 15.66427925 2.56467475 17.55307608 2 20 C2 20.99 2 21.98 2 23 C0.68 23 -0.64 23 -2 23 C-2.1031366 15.58562466 -2.10153363 8.3435575 -1 1 C-0.67 0.67 -0.34 0.34 0 0 Z " fill="#612FF9" transform="translate(263,306)"/>
<path d="M0 0 C0.05441656 1.89551022 0.09298035 3.7914792 0.125 5.6875 C0.14820312 6.74324219 0.17140625 7.79898437 0.1953125 8.88671875 C-0.00608913 12.09706071 -0.40127266 14.20976832 -2 17 C-3.32 17.33 -4.64 17.66 -6 18 C-5.34 12.39 -4.68 6.78 -4 1 C-1 0 -1 0 0 0 Z " fill="#5F32E8" transform="translate(125,308)"/>
<path d="M0 0 C2.08218362 -0.10832169 4.16599129 -0.18573541 6.25 -0.25 C7.99023438 -0.31960938 7.99023438 -0.31960938 9.765625 -0.390625 C13 0 13 0 15.39453125 1.796875 C17.71271324 4.97802985 17.48003127 7.1597498 17 11 C15.5 13.4375 15.5 13.4375 14 15 C13.01 14.67 12.02 14.34 11 14 C11.33 13.34 11.66 12.68 12 12 C11.01 11.67 10.02 11.34 9 11 C9.66 10.01 10.32 9.02 11 8 C12.65 8.33 14.3 8.66 16 9 C15.67 7.02 15.34 5.04 15 3 C14.33613281 2.93941406 13.67226562 2.87882812 12.98828125 2.81640625 C4.21792619 1.98418278 4.21792619 1.98418278 0 1 C0 0.67 0 0.34 0 0 Z " fill="#5332C6" transform="translate(150,325)"/>
<path d="M0 0 C0.66 0.33 1.32 0.66 2 1 C1.42208519 4.98119095 0.18914835 7.7244425 -1.9375 11.125 C-2.72447266 12.39730469 -2.72447266 12.39730469 -3.52734375 13.6953125 C-4.66530768 15.47621096 -5.82768327 17.2415249 -7 19 C-6.505 14.545 -6.505 14.545 -6 10 C-5.34 10 -4.68 10 -4 10 C-4 9.01 -4 8.02 -4 7 C-4.66 7 -5.32 7 -6 7 C-6 7.66 -6 8.32 -6 9 C-6.66 8.67 -7.32 8.34 -8 8 C-7.04578192 6.85073734 -6.08647955 5.70569459 -5.125 4.5625 C-4.59132813 3.92441406 -4.05765625 3.28632813 -3.5078125 2.62890625 C-2 1 -2 1 0 0 Z " fill="#7053D8" transform="translate(90,189)"/>
<path d="M0 0 C0.66 0.33 1.32 0.66 2 1 C0.625 2.5 0.625 2.5 -1 4 C-1.66 4 -2.32 4 -3 4 C-3 4.66 -3 5.32 -3 6 C-3.66 6 -4.32 6 -5 6 C-5.33 8.31 -5.66 10.62 -6 13 C-6.99 13 -7.98 13 -9 13 C-9.99 13.495 -9.99 13.495 -11 14 C-11.66 13.67 -12.32 13.34 -13 13 C-13.66 14.65 -14.32 16.3 -15 18 C-15.66 17.67 -16.32 17.34 -17 17 C-12.27977884 10.11634414 -6.95938332 4.63958888 0 0 Z " fill="#F2E9FB" transform="translate(125,144)"/>
<path d="M0 0 C1.65 0 3.3 0 5 0 C5 0.99 5 1.98 5 3 C4.01 2.67 3.02 2.34 2 2 C2 6.29 2 10.58 2 15 C2.66 15 3.32 15 4 15 C3.5359375 16.2684375 3.5359375 16.2684375 3.0625 17.5625 C1.98461179 21.0497854 1.43418696 24.38177535 1 28 C0.67 28 0.34 28 0 28 C0 18.76 0 9.52 0 0 Z " fill="#6B4BD1" transform="translate(308,303)"/>
<path d="M0 0 C1.99954746 -0.04254356 4.00041636 -0.04080783 6 0 C7 1 7 1 7.0625 4.5625 C7.041875 5.696875 7.02125 6.83125 7 8 C5.02 8.33 3.04 8.66 1 9 C-1 6 -1 6 -0.625 2.8125 C-0.41875 1.884375 -0.2125 0.95625 0 0 Z " fill="#F6F0FD" transform="translate(151,308)"/>
<path d="M0 0 C2.97 0.33 5.94 0.66 9 1 C9.66 2.32 10.32 3.64 11 5 C10.01 4.34 9.02 3.68 8 3 C7.01 3.495 7.01 3.495 6 4 C6 3.34 6 2.68 6 2 C4.35 2 2.7 2 1 2 C1 8.93 1 15.86 1 23 C3.31 22.01 5.62 21.02 8 20 C8.99 19.67 9.98 19.34 11 19 C9.125 22.875 9.125 22.875 8 24 C5.36 24 2.72 24 0 24 C0 16.08 0 8.16 0 0 Z " fill="#F7EBFE" transform="translate(108,301)"/>
<path d="M0 0 C1.51400391 0.01740234 1.51400391 0.01740234 3.05859375 0.03515625 C4.07050781 0.04417969 5.08242187 0.05320312 6.125 0.0625 C7.29869141 0.07990234 7.29869141 0.07990234 8.49609375 0.09765625 C9.05859375 2.03515625 9.05859375 2.03515625 9.49609375 4.09765625 C8.49609375 5.09765625 8.49609375 5.09765625 5.9921875 5.1953125 C4.47818359 5.17791016 4.47818359 5.17791016 2.93359375 5.16015625 C1.92167969 5.15113281 0.90976563 5.14210938 -0.1328125 5.1328125 C-0.91527344 5.12121094 -1.69773438 5.10960937 -2.50390625 5.09765625 C-3.06640625 3.16015625 -3.06640625 3.16015625 -3.50390625 1.09765625 C-2.50390625 0.09765625 -2.50390625 0.09765625 0 0 Z " fill="#FBF2FE" transform="translate(151.50390625,330.90234375)"/>
<path d="M0 0 C2.31 0 4.62 0 7 0 C7.33 2.31 7.66 4.62 8 7 C7.34 7 6.68 7 6 7 C6 7.99 6 8.98 6 10 C4.02 10 2.04 10 0 10 C0.66 9.67 1.32 9.34 2 9 C2 8.34 2 7.68 2 7 C1.34 6.67 0.68 6.34 0 6 C0 4.02 0 2.04 0 0 Z " fill="#E7E1F8" transform="translate(132,293)"/>
<path d="M0 0 C1.4375 2.5 1.4375 2.5 1.1875 5.75 C0.94 6.6575 0.6925 7.565 0.4375 8.5 C-0.2225 8.5 -0.8825 8.5 -1.5625 8.5 C-1.8925 7.18 -2.2225 5.86 -2.5625 4.5 C-5.83204202 5.06371414 -7.38825883 5.99962266 -9.5625 8.5 C-9.8925 5.86 -10.2225 3.22 -10.5625 0.5 C-3.28816372 -1.92477876 -3.28816372 -1.92477876 0 0 Z " fill="#F7F3F9" transform="translate(323.5625,298.5)"/>
<path d="M0 0 C0.66 0 1.32 0 2 0 C2.66 3.96 3.32 7.92 4 12 C5.98 12 7.96 12 10 12 C10 12.66 10 13.32 10 14 C8.35 14 6.7 14 5 14 C5 14.99 5 15.98 5 17 C6.65 17 8.3 17 10 17 C10 17.33 10 17.66 10 18 C4.97745369 18.2954439 2.10457614 17.98514628 -2 15 C-1.67 14.01 -1.34 13.02 -1 12 C-0.34 12.33 0.32 12.66 1 13 C1 13.66 1 14.32 1 15 C1.66 15 2.32 15 3 15 C2.505 14.195625 2.01 13.39125 1.5 12.5625 C-0.34527349 8.17997546 -0.28061086 4.67684769 0 0 Z " fill="#532DCA" transform="translate(213,314)"/>
<path d="M0 0 C4.65135442 4.50131073 5.18931891 6.60288535 5.3125 13.125 C5.34633401 19.43015501 4.6546154 23.77912086 1 29 C0.01 29.33 -0.98 29.66 -2 30 C-1.67 28.68 -1.34 27.36 -1 26 C-0.34 26 0.32 26 1 26 C2.05746722 21.66861427 2.18340937 17.43424698 2.1875 13 C2.19974609 12.30132812 2.21199219 11.60265625 2.22460938 10.8828125 C2.23616236 6.80075782 1.81364524 3.67030183 0 0 Z " fill="#6A4DCD" transform="translate(122,299)"/>
<path d="M0 0 C0.99 0.495 0.99 0.495 2 1 C1.67 3.64 1.34 6.28 1 9 C5.29 9 9.58 9 14 9 C14 8.34 14 7.68 14 7 C11.36 7 8.72 7 6 7 C6.33 6.34 6.66 5.68 7 5 C11.29 5.33 15.58 5.66 20 6 C20 7.32 20 8.64 20 10 C13.4 10 6.8 10 0 10 C0 6.7 0 3.4 0 0 Z " fill="#562CD2" transform="translate(184,320)"/>
<path d="M0 0 C4.75 1.875 4.75 1.875 7 3 C7 2.34 7 1.68 7 1 C7.99 1 8.98 1 10 1 C10 1.66 10 2.32 10 3 C11.32 3.33 12.64 3.66 14 4 C13.835 4.928125 13.67 5.85625 13.5 6.8125 C12.92251612 9.95621353 12.92251612 9.95621353 13 13 C12.34 12.319375 11.68 11.63875 11 10.9375 C8.01066497 7.93093537 4.80268054 5.19821266 1.57421875 2.453125 C1.05472656 1.97359375 0.53523437 1.4940625 0 1 C0 0.67 0 0.34 0 0 Z " fill="#6E4DE5" transform="translate(171,146)"/>
<path d="M0 0 C2.29633824 3.44450737 2.54016485 5.93812283 3 10 C5.64 10 8.28 10 11 10 C11 10.66 11 11.32 11 12 C6.71 12 2.42 12 -2 12 C-1.125 3.375 -1.125 3.375 0 0 Z " fill="#5A29ED" transform="translate(187,317)"/>
<path d="M0 0 C3.82512645 2.17289397 7.17031714 4.63977477 10.5625 7.4375 C11.49191406 8.19933594 12.42132813 8.96117188 13.37890625 9.74609375 C15.70066458 11.7425983 17.87127498 13.80115228 20 16 C17.0625 15.625 17.0625 15.625 14 15 C13.67 14.34 13.34 13.68 13 13 C11.68 13 10.36 13 9 13 C8.54625 12.030625 8.0925 11.06125 7.625 10.0625 C6.34213779 6.92920418 6.34213779 6.92920418 4 6 C4 5.34 4 4.68 4 4 C3.34 4 2.68 4 2 4 C2 3.34 2 2.68 2 2 C1.34 2 0.68 2 0 2 C0 1.34 0 0.68 0 0 Z " fill="#7053DE" transform="translate(248,87)"/>
<path d="M0 0 C2 3 2 3 1.875 5.9375 C0.89462199 9.36882304 -0.30062548 10.73600847 -3 13 C-3.99 12.67 -4.98 12.34 -6 12 C-5.67 11.34 -5.34 10.68 -5 10 C-7.64 10 -10.28 10 -13 10 C-12.67 8.68 -12.34 7.36 -12 6 C-11.67 6.66 -11.34 7.32 -11 8 C-9.02 8 -7.04 8 -5 8 C-4.67 6.68 -4.34 5.36 -4 4 C-3.67 4.99 -3.34 5.98 -3 7 C-2.01 7 -1.02 7 0 7 C0 4.69 0 2.38 0 0 Z " fill="#5F3ECB" transform="translate(163,308)"/>
<path d="M0 0 C0.8971875 0.309375 0.8971875 0.309375 1.8125 0.625 C-0.1675 1.615 -0.1675 1.615 -2.1875 2.625 C-2.1875 3.285 -2.1875 3.945 -2.1875 4.625 C-1.5275 4.625 -0.8675 4.625 -0.1875 4.625 C-0.8475 5.945 -1.5075 7.265 -2.1875 8.625 C-2.5175 7.965 -2.8475 7.305 -3.1875 6.625 C-4.1775 6.295 -5.1675 5.965 -6.1875 5.625 C-6.166875 6.800625 -6.14625 7.97625 -6.125 9.1875 C-6.11802739 13.09913467 -6.54499657 16.76997944 -7.1875 20.625 C-7.5175 20.625 -7.8475 20.625 -8.1875 20.625 C-8.75290084 6.51091967 -8.75290084 6.51091967 -5.1875 1.625 C-2.1875 -0.375 -2.1875 -0.375 0 0 Z " fill="#6042C3" transform="translate(243.1875,303.375)"/>
<path d="M0 0 C0.33 0 0.66 0 1 0 C1 1.65 1 3.3 1 5 C2.98 3.68 4.96 2.36 7 1 C7 4 7 4 5.9375 6.4375 C4.92253577 9.21173555 4.99512304 10.2868322 6 13 C5.34 13 4.68 13 4 13 C4 13.66 4 14.32 4 15 C3.01 14.67 2.02 14.34 1 14 C1 13.01 1 12.02 1 11 C0.67 11 0.34 11 0 11 C0 7.37 0 3.74 0 0 Z " fill="#F0E5FD" transform="translate(139,317)"/>
<path d="M0 0 C0.66 0 1.32 0 2 0 C2.66 1.98 3.32 3.96 4 6 C4.33 6 4.66 6 5 6 C5.33 4.02 5.66 2.04 6 0 C6.33 0 6.66 0 7 0 C7 4.62 7 9.24 7 14 C6.01 13.01 5.02 12.02 4 11 C4.33 10.34 4.66 9.68 5 9 C4.34 9 3.68 9 3 9 C2.67 9.99 2.34 10.98 2 12 C1.67 12 1.34 12 1 12 C0.67 8.04 0.34 4.08 0 0 Z " fill="#643ED8" transform="translate(223,309)"/>
<path d="M0 0 C2.44897847 3.67346771 2.31537716 5.66356399 2 10 C1.34 10.66 0.68 11.32 0 12 C0 9.36 0 6.72 0 4 C-0.99 3.67 -1.98 3.34 -3 3 C-3.33 2.34 -3.66 1.68 -4 1 C-7.29075996 1.37904208 -7.29075996 1.37904208 -10 3 C-10.23075082 4.34747084 -10.41153063 5.70377565 -10.5625 7.0625 C-10.7790625 9.0115625 -10.7790625 9.0115625 -11 11 C-11.66 10.34 -12.32 9.68 -13 9 C-12.86812899 5.3735473 -12.70551003 2.90305284 -10.4375 0 C-6.60790778 -1.57111476 -4.03026796 -0.91006051 0 0 Z " fill="#6B53C5" transform="translate(164,187)"/>
<path d="M0 0 C2.31 0 4.62 0 7 0 C6.74438677 2.3431213 6.40729228 4.67843403 6 7 C5.01 7.495 5.01 7.495 4 8 C3.67 7.01 3.34 6.02 3 5 C2.01 5.66 1.02 6.32 0 7 C-2.6875 7.125 -2.6875 7.125 -5 7 C-5 6.01 -5 5.02 -5 4 C-3.02 4.495 -3.02 4.495 -1 5 C-0.67 3.35 -0.34 1.7 0 0 Z " fill="#5C3CC4" transform="translate(248,321)"/>
<path d="M0 0 C2 2 2 2 2.125 4.828125 C2.04204668 7.09897225 1.95871684 9.36980577 1.875 11.640625 C2.00476801 15.12814023 2.74389116 17.76159439 4 21 C3.34 21 2.68 21 2 21 C2 20.34 2 19.68 2 19 C1.01 18.67 0.02 18.34 -1 18 C-1.02698422 15.56242587 -1.04683099 13.12515085 -1.0625 10.6875 C-1.07087891 9.99720703 -1.07925781 9.30691406 -1.08789062 8.59570312 C-1.10307906 5.4516975 -1.00193327 3.00579981 0 0 Z " fill="#5D2EEF" transform="translate(212,308)"/>
<path d="M0 0 C0.33 0 0.66 0 1 0 C1.06058594 1.21558594 1.12117188 2.43117188 1.18359375 3.68359375 C1.26798332 5.26824228 1.3526321 6.85287702 1.4375 8.4375 C1.47681641 9.23994141 1.51613281 10.04238281 1.55664062 10.86914062 C1.4054296 14.75239561 1.4054296 14.75239561 3 18 C3.04080783 19.99958364 3.04254356 22.00045254 3 24 C2.34 24.33 1.68 24.66 1 25 C1 24.34 1 23.68 1 23 C0.4225 22.87625 -0.155 22.7525 -0.75 22.625 C-3.02335767 21.99351176 -4.9253529 21.11141809 -7 20 C-4.69 20 -2.38 20 0 20 C0 13.4 0 6.8 0 0 Z " fill="#F5ECF9" transform="translate(315,311)"/>
<path d="M0 0 C2.31 0 4.62 0 7 0 C5.54955729 4.10958767 3.48889248 7.43258745 1 11 C0.4465236 8.92446352 0 7.15634036 0 5 C-0.33 5.66 -0.66 6.32 -1 7 C-1.66 7 -2.32 7 -3 7 C-1.125 2.25 -1.125 2.25 0 0 Z " fill="#654AC0" transform="translate(273,303)"/>
<path d="M0 0 C0.33 0.66 0.66 1.32 1 2 C0.67 2.99 0.34 3.98 0 5 C-0.99 5 -1.98 5 -3 5 C-2.67 5.99 -2.34 6.98 -2 8 C-5.85477249 10.56984833 -9.52040582 11.85814266 -14 13 C-14 12.34 -14 11.68 -14 11 C-11.953125 9.4140625 -11.953125 9.4140625 -9.25 7.625 C-5.79351515 5.33078345 -2.84916037 3.02224021 0 0 Z " fill="#7556DE" transform="translate(248,234)"/>
<path d="M0 0 C0.33 0 0.66 0 1 0 C1 4.95 1 9.9 1 15 C-0.32 15 -1.64 15 -3 15 C-3 11.7 -3 8.4 -3 5 C-2.01 5 -1.02 5 0 5 C0 3.35 0 1.7 0 0 Z " fill="#592AE9" transform="translate(136,315)"/>
<path d="M0 0 C0.33 0 0.66 0 1 0 C1 3.96 1 7.92 1 12 C2.98 12.495 2.98 12.495 5 13 C5 12.34 5 11.68 5 11 C5.66 11.33 6.32 11.66 7 12 C6.21718695 13.33855056 5.42348123 14.67073644 4.625 16 C4.18414062 16.7425 3.74328125 17.485 3.2890625 18.25 C2.86367188 18.8275 2.43828125 19.405 2 20 C1.34 20 0.68 20 0 20 C0 13.4 0 6.8 0 0 Z " fill="#DCCFFA" transform="translate(266,293)"/>
<path d="M0 0 C0.33 0.99 0.66 1.98 1 3 C-0.40445835 5.2636564 -2.1967913 7.0208685 -4 9 C-4.474375 8.360625 -4.94875 7.72125 -5.4375 7.0625 C-9.05420035 4.15149728 -12.47204894 4.19350218 -17 4 C-16.67 3.34 -16.34 2.68 -16 2 C-14.741875 1.979375 -13.48375 1.95875 -12.1875 1.9375 C-11.47980469 1.92589844 -10.77210938 1.91429687 -10.04296875 1.90234375 C-8 2 -8 2 -5 3 C-2.32323453 1.62750037 -2.32323453 1.62750037 0 0 Z " fill="#F2ECF9" transform="translate(306,299)"/>
<path d="M0 0 C0.99 0.33 1.98 0.66 3 1 C3 1.99 3 2.98 3 4 C3.66 4 4.32 4 5 4 C5.33 5.65 5.66 7.3 6 9 C4.02 9.66 2.04 10.32 0 11 C0 7.37 0 3.74 0 0 Z " fill="#6232F3" transform="translate(285,309)"/>
<path d="M0 0 C2.125 0.9375 2.125 0.9375 4 2 C3.67 2.33 3.34 2.66 3 3 C2.63239269 5.32817964 2.29758419 7.6618385 2 10 C1.34 10 0.68 10 0 10 C-0.33 10.66 -0.66 11.32 -1 12 C-1.66 11.34 -2.32 10.68 -3 10 C-3 7 -3 7 -2 5 C-2 4.67 -2 4.34 -2 4 C-2 3.01 -2 2.02 -2 1 C-1.34 0.67 -0.68 0.34 0 0 Z " fill="#FDFDF9" transform="translate(279,308)"/>
<path d="M0 0 C3.3 1.65 6.6 3.3 10 5 C8.02 5.99 8.02 5.99 6 7 C6 7.66 6 8.32 6 9 C0.25 7.375 0.25 7.375 -2 4 C-1.01 4 -0.02 4 1 4 C0.67 2.68 0.34 1.36 0 0 Z " fill="#7053D9" transform="translate(94,240)"/>
<path d="M0 0 C5.11723176 3.19826985 9.52692892 6.95834187 14 11 C13.01 11.33 12.02 11.66 11 12 C11 11.34 11 10.68 11 10 C9.02 10.33 7.04 10.66 5 11 C4.855625 10.21625 4.71125 9.4325 4.5625 8.625 C4.12201075 6.03578982 4.12201075 6.03578982 3 4 C2.34 4 1.68 4 1 4 C0.67 2.68 0.34 1.36 0 0 Z " fill="#6E4EE3" transform="translate(283,115)"/>
<path d="M0 0 C1.67299959 0.65061095 3.33859237 1.32033324 5 2 C5.66128906 2.25910156 6.32257813 2.51820313 7.00390625 2.78515625 C9.55883692 4.34011405 10.34033782 5.9149226 11.6875 8.5625 C13.07055098 11.47673783 13.07055098 11.47673783 15 14 C15.04063832 15.66617115 15.042721 17.33388095 15 19 C13.88830305 17.33245458 12.78846454 15.65617302 11.73828125 13.94921875 C8.74391779 9.19925589 5.75710234 5.55098883 1.3203125 2.09375 C0.88460937 1.7328125 0.44890625 1.371875 0 1 C0 0.67 0 0.34 0 0 Z " fill="#7257D8" transform="translate(219,163)"/>
<path d="M0 0 C0.66 0.33 1.32 0.66 2 1 C-0.04004397 4.06006595 -0.69269325 4.77157178 -4 6 C-6.75 6.125 -6.75 6.125 -9 6 C-9 5.34 -9 4.68 -9 4 C-12.63 4 -16.26 4 -20 4 C-20 3.67 -20 3.34 -20 3 C-18.89140625 2.95101563 -17.7828125 2.90203125 -16.640625 2.8515625 C-15.17705935 2.77650785 -13.71351888 2.70096119 -12.25 2.625 C-11.15558594 2.57859375 -11.15558594 2.57859375 -10.0390625 2.53125 C-6.18243531 2.32088852 -3.36684467 1.87954921 0 0 Z " fill="#E7D9FC" transform="translate(121,328)"/>
<path d="M0 0 C0.33 0 0.66 0 1 0 C1 6.6 1 13.2 1 20 C1.66 20 2.32 20 3 20 C3.33 20.99 3.66 21.98 4 23 C4.99 23.66 5.98 24.32 7 25 C7 25.66 7 26.32 7 27 C3.34683329 25.75023244 2.21934164 25.32901247 0 22 C-0.22705078 19.63989258 -0.22705078 19.63989258 -0.1953125 16.89453125 C-0.18886719 15.91162109 -0.18242188 14.92871094 -0.17578125 13.91601562 C-0.15902344 12.89185547 -0.14226562 11.86769531 -0.125 10.8125 C-0.11597656 9.77673828 -0.10695313 8.74097656 -0.09765625 7.67382812 C-0.0740786 5.11565315 -0.0411703 2.55794252 0 0 Z " fill="#6141D8" transform="translate(126,252)"/>
<path d="M0 0 C0.33 0.66 0.66 1.32 1 2 C1.66 2 2.32 2 3 2 C2.67 3.32 2.34 4.64 2 6 C1.34 6 0.68 6 0 6 C0 10.29 0 14.58 0 19 C-1.98 19.99 -1.98 19.99 -4 21 C-4.66 20.34 -5.32 19.68 -6 19 C-4.68 18.67 -3.36 18.34 -2 18 C-2.02320312 17.28714844 -2.04640625 16.57429688 -2.0703125 15.83984375 C-2.17815674 10.11639606 -1.92057311 5.40161186 0 0 Z " fill="#DFD3FC" transform="translate(104,169)"/>
<path d="M0 0 C1.98 0 3.96 0 6 0 C5.6875 3.375 5.6875 3.375 5 7 C4.01 7.66 3.02 8.32 2 9 C1.34 8.34 0.68 7.68 0 7 C0.99 6.01 1.98 5.02 3 4 C1.68 3.67 0.36 3.34 -1 3 C-0.67 2.01 -0.34 1.02 0 0 Z " fill="#5A39C0" transform="translate(297,322)"/>
<path d="M0 0 C0.99 0 1.98 0 3 0 C3.33 1.65 3.66 3.3 4 5 C5.32 5.33 6.64 5.66 8 6 C8 6.66 8 7.32 8 8 C5.36 7.67 2.72 7.34 0 7 C-0.38133299 5.0085944 -0.71325582 3.00720923 -1 1 C-0.67 0.67 -0.34 0.34 0 0 Z " fill="#5429EC" transform="translate(144,332)"/>
<path d="M0 0 C-0.33 0.66 -0.66 1.32 -1 2 C-3.80078125 2.37890625 -3.80078125 2.37890625 -7.3125 2.5625 C-11.85822318 2.76667208 -11.85822318 2.76667208 -16.29296875 3.65234375 C-16.85628906 3.76707031 -17.41960937 3.88179687 -18 4 C-18.66 3.34 -19.32 2.68 -20 2 C-13.23514355 0.3879491 -6.95041086 -0.26618595 0 0 Z " fill="#E8DDFC" transform="translate(152,139)"/>
<path d="M0 0 C1.65 0.33 3.3 0.66 5 1 C5.33 2.65 5.66 4.3 6 6 C3.69 6 1.38 6 -1 6 C-0.67 4.02 -0.34 2.04 0 0 Z " fill="#FBF3FC" transform="translate(291,308)"/>
<path d="M0 0 C2.1875 0.3125 2.1875 0.3125 4 1 C4 2.98 4 4.96 4 7 C1.625 6.6875 1.625 6.6875 -1 6 C-1.66 5.01 -2.32 4.02 -3 3 C-1.75 1.4375 -1.75 1.4375 0 0 Z " fill="#6247CD" transform="translate(318,302)"/>
<path d="M0 0 C0.66 0.33 1.32 0.66 2 1 C2 1.99 2 2.98 2 4 C3.65 4 5.3 4 7 4 C7 4.99 7 5.98 7 7 C6.01902344 6.68289062 5.03804687 6.36578125 4.02734375 6.0390625 C-0.11926782 4.85431634 -4.14539137 4.5634915 -8.4375 4.375 C-9.16904297 4.33632812 -9.90058594 4.29765625 -10.65429688 4.2578125 C-12.43583532 4.16466016 -14.21788122 4.08129714 -16 4 C-16 3.67 -16 3.34 -16 3 C-10.72 3 -5.44 3 0 3 C0 2.01 0 1.02 0 0 Z " fill="#8469E1" transform="translate(210,155)"/>
<path d="M0 0 C0.99 0 1.98 0 3 0 C3.05391993 1.79133978 3.09275571 3.58313899 3.125 5.375 C3.14820313 6.37273437 3.17140625 7.37046875 3.1953125 8.3984375 C3 11 3 11 1 13 C-0.00496852 9.98509443 -0.10335303 7.95818308 -0.0625 4.8125 C-0.05347656 3.91144531 -0.04445312 3.01039063 -0.03515625 2.08203125 C-0.02355469 1.39496094 -0.01195312 0.70789063 0 0 Z " fill="#6037EE" transform="translate(172,305)"/>
<path d="M0 0 C0 0.99 0 1.98 0 3 C-0.66 3 -1.32 3 -2 3 C-2 3.66 -2 4.32 -2 5 C1.465 4.505 1.465 4.505 5 4 C2.44008376 6.01136276 -0.04590299 7.62845496 -3 9 C-3 7.68 -3 6.36 -3 5 C-3.66 5 -4.32 5 -5 5 C-5 5.66 -5 6.32 -5 7 C-6.32 6.67 -7.64 6.34 -9 6 C-6.03 4.02 -3.06 2.04 0 0 Z " fill="#7256D7" transform="translate(123,139)"/>
<path d="M0 0 C0.99 0.33 1.98 0.66 3 1 C2.67 1.33 2.34 1.66 2 2 C2.51686071 7.78883995 3.65344738 13.352323 5 19 C4.34 19 3.68 19 3 19 C2.67 17.02 2.34 15.04 2 13 C1.34 13 0.68 13 0 13 C0 8.71 0 4.42 0 0 Z " fill="#7155D8" transform="translate(161,199)"/>
<path d="M0 0 C0.556875 0.268125 1.11375 0.53625 1.6875 0.8125 C-1.3125 3.8125 -4.3125 6.8125 -7.3125 9.8125 C-7.9725 9.4825 -8.6325 9.1525 -9.3125 8.8125 C-7.66495848 4.76853446 -4.80734346 -0.3897846 0 0 Z " fill="#F2ECFD" transform="translate(98.3125,189.1875)"/>
<path d="M0 0 C2.08218362 -0.10832169 4.16599129 -0.18573541 6.25 -0.25 C7.99023438 -0.31960938 7.99023438 -0.31960938 9.765625 -0.390625 C13.57666013 0.06964494 14.65511755 1.05148444 17 4 C16.01 4.495 16.01 4.495 15 5 C15 4.34 15 3.68 15 3 C14.33613281 2.93941406 13.67226562 2.87882812 12.98828125 2.81640625 C4.21792619 1.98418278 4.21792619 1.98418278 0 1 C0 0.67 0 0.34 0 0 Z " fill="#5936BA" transform="translate(150,325)"/>
<path d="M0 0 C4.60470588 1.45411765 4.60470588 1.45411765 6.3125 3.8125 C7.09802451 6.31189617 7.14472595 8.39493282 7 11 C5.02 11 3.04 11 1 11 C2.32 10.67 3.64 10.34 5 10 C5 8.35 5 6.7 5 5 C4.01 5.33 3.02 5.66 2 6 C2 5.01 2 4.02 2 3 C1.34 2.67 0.68 2.34 0 2 C0 1.34 0 0.68 0 0 Z " fill="#6044BE" transform="translate(248,303)"/>
<path d="M0 0 C1.98 0 3.96 0 6 0 C6 1.65 6 3.3 6 5 C4.02 5 2.04 5 0 5 C0 3.35 0 1.7 0 0 Z " fill="#5C46C2" transform="translate(132,293)"/>
<path d="M0 0 C1.98 0 3.96 0 6 0 C6 1.65 6 3.3 6 5 C4.02 5 2.04 5 0 5 C0 3.35 0 1.7 0 0 Z " fill="#664FC0" transform="translate(170,293)"/>
<path d="M0 0 C0.33 0 0.66 0 1 0 C1.12375 0.9075 1.2475 1.815 1.375 2.75 C1.92802286 5.62571885 2.68078293 7.44951366 4 10 C4 10.99 4 11.98 4 13 C2.68 13 1.36 13 0 13 C0 8.71 0 4.42 0 0 Z " fill="#5B2BEB" transform="translate(261,316)"/>
<path d="M0 0 C1.9451 2.91765 2.45276317 4.62537285 3 8 C2.01 8 1.02 8 0 8 C0 7.34 0 6.68 0 6 C-0.99 6 -1.98 6 -3 6 C-2.625 3.5625 -2.625 3.5625 -2 1 C-1.34 0.67 -0.68 0.34 0 0 Z " fill="#6034DF" transform="translate(288,318)"/>
<path d="M0 0 C2.875 2.0625 2.875 2.0625 5 4 C4.67 4.66 4.34 5.32 4 6 C3.67 5.525625 3.34 5.05125 3 4.5625 C-0.66246177 1.70120175 -5.49021572 2 -10 2 C-7.88659441 -2.22681118 -3.88738946 -1.01072126 0 0 Z " fill="#6247C0" transform="translate(224,303)"/>
<path d="M0 0 C2.64 1.98 5.28 3.96 8 6 C6.02 6.99 6.02 6.99 4 8 C1 6 1 6 0.3125 2.875 C0.209375 1.92625 0.10625 0.9775 0 0 Z " fill="#6A47E6" transform="translate(240,80)"/>
<path d="M0 0 C0.86625 0.3403125 0.86625 0.3403125 1.75 0.6875 C1.09 1.3475 0.43 2.0075 -0.25 2.6875 C0.08 3.3475 0.41 4.0075 0.75 4.6875 C-1.56 5.0175 -3.87 5.3475 -6.25 5.6875 C-6.25 4.6975 -6.25 3.7075 -6.25 2.6875 C-4.08146295 0.51896295 -3.10906228 -0.43181421 0 0 Z " fill="#7457E4" transform="translate(133.25,66.3125)"/>
<path d="M0 0 C0.33 0 0.66 0 1 0 C1.08132187 2.56314499 1.14064175 5.12368418 1.1875 7.6875 C1.22520508 8.7693457 1.22520508 8.7693457 1.26367188 9.87304688 C1.32672457 14.47589338 0.77816458 17.30307233 -2 21 C-2.99 20.34 -3.98 19.68 -5 19 C-4.35546875 18.49984375 -3.7109375 17.9996875 -3.046875 17.484375 C-0.34876055 14.20956433 -0.33465669 11.32121729 -0.25 7.25 C-0.22035156 6.55261719 -0.19070312 5.85523438 -0.16015625 5.13671875 C-0.08981542 3.42509187 -0.04260054 1.71254185 0 0 Z " fill="#D2C3F2" transform="translate(230,311)"/>
<path d="M0 0 C0.66 0 1.32 0 2 0 C2.66666667 2.66666667 3.33333333 5.33333333 4 8 C2.68 7.67 1.36 7.34 0 7 C-0.33 7.66 -0.66 8.32 -1 9 C-2.60031344 5.79937313 -1.03173691 3.27728194 0 0 Z " fill="#5E31F0" transform="translate(226,318)"/>
<path d="M0 0 C3.96 0 7.92 0 12 0 C10.02 0.99 10.02 0.99 8 2 C8.99 2.66 9.98 3.32 11 4 C9.02 4 7.04 4 5 4 C5 3.01 5 2.02 5 1 C3.68 1 2.36 1 1 1 C1 2.65 1 4.3 1 6 C0.67 6 0.34 6 0 6 C0 4.02 0 2.04 0 0 Z " fill="#6343DF" transform="translate(103,296)"/>
<path d="M0 0 C0.28875 0.61875 0.5775 1.2375 0.875 1.875 C1.93720042 4.13325765 1.93720042 4.13325765 4 6 C4.125 9.125 4.125 9.125 4 12 C4.66 12 5.32 12 6 12 C5.67 12.99 5.34 13.98 5 15 C0.38548205 10.98737569 0.67374079 5.77492108 0 0 Z " fill="#5B39D0" transform="translate(144,310)"/>
<path d="M0 0 C1.32 0 2.64 0 4 0 C4 1.65 4 3.3 4 5 C3.01 5.33 2.02 5.66 1 6 C0.67 6.66 0.34 7.32 0 8 C-0.38063221 5.6739143 -0.71269945 3.33944736 -1 1 C-0.67 0.67 -0.34 0.34 0 0 Z " fill="#6549C8" transform="translate(162,299)"/>
<path d="M0 0 C0.90105469 0.01804688 1.80210937 0.03609375 2.73046875 0.0546875 C3.41753906 0.07789063 4.10460937 0.10109375 4.8125 0.125 C5.1425 0.785 5.4725 1.445 5.8125 2.125 C4.76449219 2.21587891 4.76449219 2.21587891 3.6953125 2.30859375 C2.78523437 2.39238281 1.87515625 2.47617188 0.9375 2.5625 C0.03257812 2.64371094 -0.87234375 2.72492188 -1.8046875 2.80859375 C-4.19860861 2.99489285 -4.19860861 2.99489285 -6.1875 4.125 C-6.8475 3.465 -7.5075 2.805 -8.1875 2.125 C-4.87379 -0.08414 -3.8428979 -0.09981553 0 0 Z " fill="#6A46EA" transform="translate(234.1875,245.875)"/>
<path d="M0 0 C0.66 0.33 1.32 0.66 2 1 C1.67 2.65 1.34 4.3 1 6 C-0.32 6.33 -1.64 6.66 -3 7 C-3.1875 4.625 -3.1875 4.625 -3 2 C-2.01 1.34 -1.02 0.68 0 0 Z " fill="#6948E7" transform="translate(90,189)"/>
<path d="M0 0 C0.66 0 1.32 0 2 0 C1.67 1.65 1.34 3.3 1 5 C-2 6 -2 6 -5 6 C-4.67 4.68 -4.34 3.36 -4 2 C-2.68 2 -1.36 2 0 2 C0 1.34 0 0.68 0 0 Z " fill="#6745E4" transform="translate(118,144)"/>
<path d="M0 0 C0.66 0 1.32 0 2 0 C2.33 0.99 2.66 1.98 3 3 C6.50294871 4.71567661 6.50294871 4.71567661 10 6 C10 6.99 10 7.98 10 9 C6.66666667 7.33333333 3.33333333 5.66666667 0 4 C0 2.68 0 1.36 0 0 Z " fill="#745AD5" transform="translate(234,182)"/>
<path d="M0 0 C2.49361571 1.20381448 4.68143083 2.45428722 7 4 C7 4.66 7 5.32 7 6 C4.69 6 2.38 6 0 6 C0 4.02 0 2.04 0 0 Z " fill="#6D4FD9" transform="translate(297,127)"/>
<path d="M0 0 C8.57142857 2.85714286 8.57142857 2.85714286 12 7 C9.0625 6.625 9.0625 6.625 6 6 C5.67 5.34 5.34 4.68 5 4 C3.68 4 2.36 4 1 4 C0.67 2.68 0.34 1.36 0 0 Z " fill="#6745E5" transform="translate(256,96)"/>
<path d="M0 0 C2 2 2 2 2.5 4.0625 C2.665 4.701875 2.83 5.34125 3 6 C3.66 6.33 4.32 6.66 5 7 C5 7.99 5 8.98 5 10 C1.125 9.125 1.125 9.125 0 8 C-0.14115161 5.32941149 -0.04247107 2.67567762 0 0 Z " fill="#5A2AF1" transform="translate(237,318)"/>
<path d="M0 0 C2.64 0 5.28 0 8 0 C7.01 0.495 7.01 0.495 6 1 C6.33 1.99 6.66 2.98 7 4 C5.02 4 3.04 4 1 4 C0.67 2.68 0.34 1.36 0 0 Z " fill="#5633D4" transform="translate(290,314)"/>
<path d="M0 0 C0.99 0.33 1.98 0.66 3 1 C3 3.31 3 5.62 3 8 C2.01 8 1.02 8 0 8 C-0.38063221 5.6739143 -0.71269945 3.33944736 -1 1 C-0.67 0.67 -0.34 0.34 0 0 Z " fill="#6034F0" transform="translate(226,308)"/>
<path d="M0 0 C2.97 0.495 2.97 0.495 6 1 C5.67 2.32 5.34 3.64 5 5 C5 4.01 5 3.02 5 2 C3.05925139 2.27617533 3.05925139 2.27617533 1 3 C0.01 4.485 0.01 4.485 -1 6 C-3.97 5.505 -3.97 5.505 -7 5 C-7 4.67 -7 4.34 -7 4 C-5.02 4 -3.04 4 -1 4 C-0.67 2.68 -0.34 1.36 0 0 Z " fill="#D7CBF2" transform="translate(161,297)"/>
<path d="M0 0 C0 0.66 0 1.32 0 2 C0.66 2.33 1.32 2.66 2 3 C1.34 3 0.68 3 0 3 C0 3.66 0 4.32 0 5 C-2.9719385 3.87548273 -5.33440687 2.77706209 -8 1 C-5.07175348 0.02391783 -3.04386724 -0.08226668 0 0 Z " fill="#6943F2" transform="translate(178,144)"/>
<path d="M0 0 C1.98 0.66 3.96 1.32 6 2 C6 2.66 6 3.32 6 4 C6.61875 4.12375 7.2375 4.2475 7.875 4.375 C10 5 10 5 12 7 C11.34 7.66 10.68 8.32 10 9 C8.33043913 7.69118353 6.66441696 6.37785174 5 5.0625 C4.071875 4.33160156 3.14375 3.60070312 2.1875 2.84765625 C1.465625 2.23792969 0.74375 1.62820312 0 1 C0 0.67 0 0.34 0 0 Z " fill="#E2D6FB" transform="translate(292,122)"/>
<path d="M0 0 C3.63 0 7.26 0 11 0 C11 0.33 11 0.66 11 1 C8.36 1.33 5.72 1.66 3 2 C3 2.99 3 3.98 3 5 C1.68 4.67 0.36 4.34 -1 4 C-0.67 2.68 -0.34 1.36 0 0 Z " fill="#E2D0FD" transform="translate(149,331)"/>
<path d="M0 0 C0.99 0 1.98 0 3 0 C3 2.64 3 5.28 3 8 C2.01 8 1.02 8 0 8 C0 5.36 0 2.72 0 0 Z " fill="#5A2AEE" transform="translate(310,321)"/>
<path d="M0 0 C0.78375 0.04125 1.5675 0.0825 2.375 0.125 C2.045 1.445 1.715 2.765 1.375 4.125 C-0.935 4.125 -3.245 4.125 -5.625 4.125 C-4.13829365 1.15158729 -3.39577812 0.16170372 0 0 Z " fill="#562FDD" transform="translate(155.625,317.875)"/>
<path d="M0 0 C0.66 0 1.32 0 2 0 C3.37432457 3.81756824 2.67975039 7.07255329 2 11 C1.34 11 0.68 11 0 11 C0 7.37 0 3.74 0 0 Z " fill="#6135F7" transform="translate(310,305)"/>
<path d="M0 0 C5.65394631 -0.34615998 9.03006806 0.56574762 14 3 C13.67 3.99 13.34 4.98 13 6 C12.48050781 5.72285156 11.96101562 5.44570312 11.42578125 5.16015625 C7.63783995 3.19266733 4.29300887 1.53662611 0 1 C0 0.67 0 0.34 0 0 Z " fill="#7D60DD" transform="translate(156,140)"/>
<path d="M0 0 C3.98381075 2.16264012 6.88983545 4.71211176 10 8 C8.35 8 6.7 8 5 8 C4.67 6.68 4.34 5.36 4 4 C3.01 4 2.02 4 1 4 C0.67 2.68 0.34 1.36 0 0 Z " fill="#7255DF" transform="translate(268,103)"/>
<path d="M0 0 C0.33 1.32 0.66 2.64 1 4 C2.98 4 4.96 4 7 4 C7 4.33 7 4.66 7 5 C4.36 5 1.72 5 -1 5 C-1.33 6.32 -1.66 7.64 -2 9 C-2 6.36 -2 3.72 -2 1 C-1.34 0.67 -0.68 0.34 0 0 Z " fill="#EEE2FE" transform="translate(169,327)"/>
<path d="M0 0 C0.66 0.33 1.32 0.66 2 1 C2.625 3.0625 2.625 3.0625 3 5 C1.68 5 0.36 5 -1 5 C-1 6.98 -1 8.96 -1 11 C-1.33 11 -1.66 11 -2 11 C-2.05399736 9.54207116 -2.09279177 8.08357288 -2.125 6.625 C-2.15980469 5.40683594 -2.15980469 5.40683594 -2.1953125 4.1640625 C-2 2 -2 2 0 0 Z " fill="#D8C6F8" transform="translate(268,320)"/>
<path d="M0 0 C0.66 0 1.32 0 2 0 C2.33 3.63 2.66 7.26 3 11 C2.34 11 1.68 11 1 11 C-0.20272819 8.59454362 -0.10071472 7.05003047 -0.0625 4.375 C-0.05347656 3.55773437 -0.04445312 2.74046875 -0.03515625 1.8984375 C-0.02355469 1.27195312 -0.01195312 0.64546875 0 0 Z " fill="#603CC8" transform="translate(213,314)"/>
<path d="M0 0 C1.10844919 3.32534757 0.84454356 5.62182575 0 9 C-0.99 9.33 -1.98 9.66 -3 10 C-3.6875 7.6875 -3.6875 7.6875 -4 5 C-2.625 3.3125 -2.625 3.3125 -1 2 C-0.67 1.34 -0.34 0.68 0 0 Z " fill="#6238EE" transform="translate(149,305)"/>
<path d="M0 0 C1.134375 0.020625 2.26875 0.04125 3.4375 0.0625 C3.1075 0.7225 2.7775 1.3825 2.4375 2.0625 C1.798125 2.18625 1.15875 2.31 0.5 2.4375 C-1.76101273 2.87189427 -1.76101273 2.87189427 -2.8125 5.125 C-3.06 5.764375 -3.3075 6.40375 -3.5625 7.0625 C-4.625 5.1875 -4.625 5.1875 -5.5625 3.0625 C-3.91100715 -0.24048571 -4.06508444 0.07131727 0 0 Z " fill="#6F4EDC" transform="translate(218.5625,306.9375)"/>
<path d="M0 0 C0.33 0.99 0.66 1.98 1 3 C0.34 3 -0.32 3 -1 3 C-1 3.66 -1 4.32 -1 5 C-2.98 5.33 -4.96 5.66 -7 6 C-5.81636731 2.44910192 -3.99368042 0 0 0 Z " fill="#FBFBF1" transform="translate(295,296)"/>
<path d="M0 0 C0.66 1.32 1.32 2.64 2 4 C0.76055724 4.86941494 -0.49207059 5.72005457 -1.75 6.5625 C-2.44609375 7.03816406 -3.1421875 7.51382812 -3.859375 8.00390625 C-6 9 -6 9 -8.265625 8.65234375 C-8.83796875 8.43707031 -9.4103125 8.22179687 -10 8 C-4.25 5 -4.25 5 -2 5 C-1.34 3.35 -0.68 1.7 0 0 Z " fill="#E4D8FD" transform="translate(306,272)"/>
<path d="M0 0 C-0.33 0.99 -0.66 1.98 -1 3 C-4.3 2.67 -7.6 2.34 -11 2 C-11 1.34 -11 0.68 -11 0 C-9.54263913 -0.19491452 -8.08405407 -0.38069358 -6.625 -0.5625 C-5.81289062 -0.66691406 -5.00078125 -0.77132813 -4.1640625 -0.87890625 C-2 -1 -2 -1 0 0 Z " fill="#F5EDF9" transform="translate(225,332)"/>
<path d="M0 0 C0.33 0 0.66 0 1 0 C1 2.97 1 5.94 1 9 C0.67 8.34 0.34 7.68 0 7 C-1.98 7 -3.96 7 -6 7 C-5.34 6.01 -4.68 5.02 -4 4 C-2.68 4 -1.36 4 0 4 C0 2.68 0 1.36 0 0 Z " fill="#D0C0EC" transform="translate(303,315)"/>
<path d="M0 0 C0.99 1.32 1.98 2.64 3 4 C2.01 4.66 1.02 5.32 0 6 C-0.72382467 8.05925139 -0.72382467 8.05925139 -1 10 C-1.66 9.34 -2.32 8.68 -3 8 C-2.64700993 4.55834679 -1.95418308 2.93127462 0 0 Z " fill="#F0E3FC" transform="translate(276,309)"/>
<path d="M0 0 C0.66 0.33 1.32 0.66 2 1 C1.3125 3.375 1.3125 3.375 0 6 C-2.625 7.3125 -2.625 7.3125 -5 8 C-4.67 6.68 -4.34 5.36 -4 4 C-3.01 4 -2.02 4 -1 4 C-0.67 2.68 -0.34 1.36 0 0 Z " fill="#603AE1" transform="translate(273,306)"/>
<path d="M0 0 C1.32 0 2.64 0 4 0 C3.75 2.375 3.75 2.375 3 5 C0.9375 6.3125 0.9375 6.3125 -1 7 C-0.67 4.69 -0.34 2.38 0 0 Z " fill="#663FF6" transform="translate(104,297)"/>
<path d="M0 0 C1.5625 1.8125 1.5625 1.8125 3 4 C2.67 4.99 2.34 5.98 2 7 C0.02 5.68 -1.96 4.36 -4 3 C-2.68 2.01 -1.36 1.02 0 0 Z " fill="#EBE6F6" transform="translate(268,97)"/>
<path d="M0 0 C3.81684226 1.55500981 6.19195732 4.03595495 9 7 C7.35 7 5.7 7 4 7 C4 6.01 4 5.02 4 4 C2.68 3.34 1.36 2.68 0 2 C0 1.34 0 0.68 0 0 Z " fill="#7254E0" transform="translate(231,73)"/>
<path d="M0 0 C2 1.8125 2 1.8125 4 4 C4 4.99 4 5.98 4 7 C2.02 7 0.04 7 -2 7 C-2 6.34 -2 5.68 -2 5 C-1.01 5 -0.02 5 1 5 C0.67 3.35 0.34 1.7 0 0 Z " fill="#5234BA" transform="translate(276,324)"/>
<path d="M0 0 C1.32 0 2.64 0 4 0 C3.67 1.98 3.34 3.96 3 6 C3.99 6.33 4.98 6.66 6 7 C4.68 7.33 3.36 7.66 2 8 C1.34 5.36 0.68 2.72 0 0 Z " fill="#E8D6FE" transform="translate(289,319)"/>
<path d="M0 0 C0.66 0 1.32 0 2 0 C2.66 2.31 3.32 4.62 4 7 C3.01 7 2.02 7 1 7 C1 6.34 1 5.68 1 5 C0.34 5 -0.32 5 -1 5 C-0.67 3.35 -0.34 1.7 0 0 Z " fill="#5F30F5" transform="translate(269,313)"/>
<path d="M0 0 C2.62386487 3.06117568 3 3.73173127 3 8 C2.01 8 1.02 8 0 8 C-1.125 2.25 -1.125 2.25 0 0 Z " fill="#5D34F0" transform="translate(160,307)"/>
<path d="M0 0 C1.1875 1.6875 1.1875 1.6875 2 4 C0.62949926 7.385943 -0.38613526 8.70020559 -3.6875 10.3125 C-4.450625 10.539375 -5.21375 10.76625 -6 11 C-5.67 10.01 -5.34 9.02 -5 8 C-4.01 8 -3.02 8 -2 8 C-1.34 5.36 -0.68 2.72 0 0 Z " fill="#6E52D3" transform="translate(305,268)"/>
<path d="M0 0 C0.66 0 1.32 0 2 0 C1.5206753 4.31392226 0.2542015 6.16569547 -3 9 C-3.33 8.34 -3.66 7.68 -4 7 C-3.67 6.34 -3.34 5.68 -3 5 C-2.34 5 -1.68 5 -1 5 C-0.67 3.35 -0.34 1.7 0 0 Z " fill="#5E3BC9" transform="translate(124,320)"/>
<path d="M0 0 C2 3 2 3 2 6 C3.43750191 7.68798827 3.43750191 7.68798827 5 9 C3.35 8.67 1.7 8.34 0 8 C-0.79953138 4.71303767 -1.09658936 3.28976808 0 0 Z " fill="#EADCFE" transform="translate(151,308)"/>
<path d="M0 0 C6.75 -0.125 6.75 -0.125 9 1 C9 1.66 9 2.32 9 3 C7.02 3.33 5.04 3.66 3 4 C3 3.01 3 2.02 3 1 C2.01 0.67 1.02 0.34 0 0 Z " fill="#6B45F0" transform="translate(97,246)"/>
<path d="M0 0 C3.96 1.98 3.96 1.98 8 4 C4 5 4 5 2 4 C1.67 4.66 1.34 5.32 1 6 C0.34 5.34 -0.32 4.68 -1 4 C-0.34 3.67 0.32 3.34 1 3 C0.67 2.01 0.34 1.02 0 0 Z " fill="#EFE5FC" transform="translate(214,161)"/>
<path d="M0 0 C0.99 0.33 1.98 0.66 3 1 C1.35 2.98 -0.3 4.96 -2 7 C-2.66 6.01 -3.32 5.02 -4 4 C-2.68 2.68 -1.36 1.36 0 0 Z M-6 5 C-5.01 5.495 -5.01 5.495 -4 6 C-4.99 6.495 -4.99 6.495 -6 7 C-6 6.34 -6 5.68 -6 5 Z " fill="#ECE3FC" transform="translate(107,150)"/>
<path d="M0 0 C3.68754757 0.49831724 5.60490662 1.10067643 8 4 C7.34 4.66 6.68 5.32 6 6 C3.97945196 4.35830472 1.97956942 2.69088222 0 1 C0 0.67 0 0.34 0 0 Z " fill="#EEE3FB" transform="translate(272,105)"/>
<path d="M0 0 C0.99 0.33 1.98 0.66 3 1 C2.39816251 3.02045442 1.72693904 5.02111039 1 7 C0.01 7.495 0.01 7.495 -1 8 C-1.125 2.25 -1.125 2.25 0 0 Z " fill="#FAFBF1" transform="translate(138,333)"/>
<path d="M0 0 C0.99 0 1.98 0 3 0 C3 1.65 3 3.3 3 5 C1.68 5.33 0.36 5.66 -1 6 C-0.67 4.02 -0.34 2.04 0 0 Z " fill="#5C2BF3" transform="translate(120,320)"/>
<path d="M0 0 C0.99 0 1.98 0 3 0 C3.33 0.99 3.66 1.98 4 3 C4.99 3.66 5.98 4.32 7 5 C7 5.66 7 6.32 7 7 C4.625 6.3125 4.625 6.3125 2 5 C0.6875 2.375 0.6875 2.375 0 0 Z " fill="#7056D6" transform="translate(126,272)"/>
<path d="M0 0 C2.99324263 1.0975223 3.84610901 1.67682892 5.25 4.625 C5.4975 5.40875 5.745 6.1925 6 7 C4.35 6.67 2.7 6.34 1 6 C0.67 4.02 0.34 2.04 0 0 Z " fill="#6744F3" transform="translate(83,230)"/>
<path d="M0 0 C0.66 0 1.32 0 2 0 C2.12375 0.639375 2.2475 1.27875 2.375 1.9375 C2.684375 2.9584375 2.684375 2.9584375 3 4 C3.66 4.33 4.32 4.66 5 5 C5 5.66 5 6.32 5 7 C2.97954558 6.39816251 0.97888961 5.72693904 -1 5 C-1.33 4.34 -1.66 3.68 -2 3 C-1.34 3 -0.68 3 0 3 C0 2.01 0 1.02 0 0 Z " fill="#6742F2" transform="translate(238,181)"/>
<path d="M0 0 C3.37462715 0.54723683 5.08235 1.0549 8 3 C7.67 3.99 7.34 4.98 7 6 C5.83054208 5.19152271 4.66449539 4.37810888 3.5 3.5625 C2.8503125 3.11003906 2.200625 2.65757813 1.53125 2.19140625 C1.0259375 1.79824219 0.520625 1.40507813 0 1 C0 0.67 0 0.34 0 0 Z " fill="#EBE1FA" transform="translate(280,112)"/>
<path d="M0 0 C0.33 0 0.66 0 1 0 C1 1.98 1 3.96 1 6 C1.99 6.33 2.98 6.66 4 7 C3.34 7.66 2.68 8.32 2 9 C-0.125 8.625 -0.125 8.625 -2 8 C-1.67 7.67 -1.34 7.34 -1 7 C-0.63239269 4.67182036 -0.29758419 2.3381615 0 0 Z " fill="#F2EBFE" transform="translate(205,325)"/>
<path d="M0 0 C0.66 0.33 1.32 0.66 2 1 C2 2.32 2 3.64 2 5 C0.35 4.67 -1.3 4.34 -3 4 C-3.33 3.01 -3.66 2.02 -4 1 C-3.01 1.33 -2.02 1.66 -1 2 C-0.67 1.34 -0.34 0.68 0 0 Z " fill="#562AE5" transform="translate(164,329)"/>
<path d="M0 0 C0.99 0 1.98 0 3 0 C3 0.66 3 1.32 3 2 C3.99 2 4.98 2 6 2 C6.33 2.99 6.66 3.98 7 5 C4.61435923 4.42415568 2.33317216 3.77772405 0 3 C0 2.01 0 1.02 0 0 Z " fill="#572BE4" transform="translate(285,324)"/>
<path d="M0 0 C1.32 0.33 2.64 0.66 4 1 C4 2.32 4 3.64 4 5 C2.68 4.67 1.36 4.34 0 4 C0 2.68 0 1.36 0 0 Z " fill="#5F35EF" transform="translate(237,309)"/>
<path d="M0 0 C2.475 0.495 2.475 0.495 5 1 C5.33 2.65 5.66 4.3 6 6 C5.34 6 4.68 6 4 6 C0 1.41176471 0 1.41176471 0 0 Z " fill="#F2E3FE" transform="translate(291,308)"/>
<path d="M0 0 C2 2 2 2 2.125 4.625 C2.08375 5.40875 2.0425 6.1925 2 7 C0.66666667 7 -0.66666667 7 -2 7 C-2.125 4.625 -2.125 4.625 -2 2 C-1.34 1.34 -0.68 0.68 0 0 Z " fill="#EAE3F3" transform="translate(164,199)"/>
<path d="M0 0 C0.33 0 0.66 0 1 0 C1 1.65 1 3.3 1 5 C-0.32 5.33 -1.64 5.66 -3 6 C-3.33 4.68 -3.66 3.36 -4 2 C-2.68 2.33 -1.36 2.66 0 3 C0 2.01 0 1.02 0 0 Z " fill="#EBDBFF" transform="translate(247,321)"/>
<path d="M0 0 C0.33 0.66 0.66 1.32 1 2 C1.66 2 2.32 2 3 2 C2.67 3.32 2.34 4.64 2 6 C1.34 6 0.68 6 0 6 C-0.33 6.66 -0.66 7.32 -1 8 C-0.67 5.36 -0.34 2.72 0 0 Z " fill="#EFE6FC" transform="translate(104,169)"/>
</svg>
