<svg xmlns="http://www.w3.org/2000/svg" viewBox="0 0 500 500"><g id="freepik--Curve--inject-1"><path d="M453.11,72.58V438.85H39.18S375.41,348.59,453.11,72.58Z" style="fill:#92E3A9;opacity:0.4"></path></g><g id="freepik--Arrow--inject-1"><path d="M39.18,438.85V401s284.67-21.69,399.7-304l11.44,2.63S373.94,389,39.18,438.85Z" style="fill:#92E3A9"></path><polygon points="461 109.16 425.03 98.5 453.11 72.58 461 109.16" style="fill:#92E3A9"></polygon></g><g id="freepik--Plant--inject-1"><path d="M418.45,377.19a258.59,258.59,0,0,0-.38-27.42,348.28,348.28,0,0,0-8.59-55.87c-2.39-10.34-5.34-20.5-8.42-30.65-.09-.31-.58-.22-.49.1,9.5,35.79,17.3,72.72,16.76,109.93-.15,10.41-1.35,20.64-2.34,31,0,.28.43.39.49.11C417.44,395.51,418.08,386.23,418.45,377.19Z" style="fill:#92E3A9"></path><path d="M400.57,263.35s-14.4,36.54-11.18,45.13,9.87,10.43,9.87,10.43-8.81,12.58-2.65,24.37,19.83,11.24,20.74,24.62C417.35,367.9,418.11,312,400.57,263.35Z" style="fill:#92E3A9"></path><path d="M415.79,344.8a.32.32,0,0,0,0-.19,335,335,0,0,0-14-73.52c0-.07-.14,0-.12,0q4.28,16,7.56,32.25a16,16,0,0,0-6.88-3.83s-.07.05,0,.07a18.26,18.26,0,0,1,7.1,4.75q.63,3.16,1.22,6.35c-3.22-3.59-7.68-5.38-12.15-7.07-.06,0-.09.07,0,.1,4.65,1.89,9.28,4.33,12.43,8.34q1.65,9.09,2.89,18.25a17.43,17.43,0,0,0-8.58-4.92c-.1,0-.16.13-.06.16a18.14,18.14,0,0,1,8.71,5.57l.05,0q.44,3.22.82,6.46a22,22,0,0,0-6-3.63c-.06,0-.09.06,0,.09a20.56,20.56,0,0,1,6,4s0,0,.07,0c.24,2,.48,4.09.69,6.14a29.28,29.28,0,0,0-12.21-8.72.08.08,0,0,0-.06.15,31.82,31.82,0,0,1,12,9.26.27.27,0,0,0,.3.1c.31,3.14.59,6.29.82,9.45,0,0,.08,0,.08,0Q416.17,349.65,415.79,344.8Z" style="fill:#263238"></path><path d="M404.22,295.9a18,18,0,0,0-8.65-2.7c-.08,0-.08.1,0,.11a34.25,34.25,0,0,1,8.55,2.79C404.24,296.16,404.32,296,404.22,295.9Z" style="fill:#263238"></path><path d="M406,334.59a18.44,18.44,0,0,0-6.5-2.22c-.08,0-.08.11,0,.12a24.48,24.48,0,0,1,6.43,2.26C406,334.79,406.05,334.64,406,334.59Z" style="fill:#263238"></path><path d="M456.3,309.08a97.93,97.93,0,0,0-16.66,14.57A59.94,59.94,0,0,0,428,343.47a148.06,148.06,0,0,0-8.71,47.41,115.32,115.32,0,0,0,2.57,26.66.25.25,0,0,0,.5-.09,149.31,149.31,0,0,1,.26-46.61c2.47-15.12,6.36-31.57,16-43.85,5.23-6.69,11.76-12,18.21-17.4C457.09,309.31,456.65,308.84,456.3,309.08Z" style="fill:#92E3A9"></path><path d="M421.36,380a89.8,89.8,0,0,1,12.15-15.53c7.2-7.2,13.27-12.32,14.21-17.08s-7.22-8.27-7.22-8.27,10,1.79,12.7-2.39,4-28.42,4-28.42-18.14,12.95-26.58,31.1S421.36,380,421.36,380Z" style="fill:#92E3A9"></path><path d="M451,314.51c-7.63,7.5-15.31,15.48-19.81,25.33a97.29,97.29,0,0,0-4,10.44v0c-.23.72-.47,1.43-.68,2.15a.19.19,0,0,0,0,.12A205.69,205.69,0,0,0,421.28,375s.06.07.07,0c.78-3.78,1.65-7.6,2.61-11.4l.11,0a15.94,15.94,0,0,1,4.76-1.2c.1,0,.1-.2,0-.2a18,18,0,0,0-4.71.86c.88-3.43,1.83-6.85,2.9-10.23a50.77,50.77,0,0,1,10.76-1.4s0-.06,0-.06a40.36,40.36,0,0,0-10.58.9l.57-1.73a56.06,56.06,0,0,1,7.16-1.22c.05,0,0-.07,0-.07a34.45,34.45,0,0,0-7,.85c1-2.92,2.05-5.8,3.24-8.6a50.84,50.84,0,0,1,3.42-6.65,43.91,43.91,0,0,1,5.81-1c.05,0,0-.09,0-.09a15.82,15.82,0,0,0-5.43.53c1-1.54,2-3.05,3-4.51h0c4.07-.9,8.19-1.73,12.35-.95.07,0,.1-.11,0-.13-4-1-7.89-.44-11.83.34.43-.57.87-1.14,1.31-1.7a27.16,27.16,0,0,1,7.6-1.19,0,0,0,0,0,0-.09,20.17,20.17,0,0,0-7.09.63c3.36-4.18,7.08-8.1,10.75-12C451.28,314.44,451.15,314.34,451,314.51Z" style="fill:#263238"></path><path d="M450.76,331a16.08,16.08,0,0,0-3.6-.12.13.13,0,0,0,0,.25c1.19,0,2.39-.05,3.58,0C450.84,331.18,450.85,331,450.76,331Z" style="fill:#263238"></path><path d="M437.71,354.54a16.23,16.23,0,0,0-5.59,1.12s0,.09,0,.08c1.84-.44,3.71-.62,5.57-.93A.14.14,0,0,0,437.71,354.54Z" style="fill:#263238"></path><path d="M433.8,346.42a11.74,11.74,0,0,0-2.37.21c-.08,0-.08.14,0,.14a11.14,11.14,0,0,0,2.38-.11C433.94,346.63,433.94,346.42,433.8,346.42Z" style="fill:#263238"></path><path d="M368.2,334.8a82,82,0,0,1,16.85,7.93,50.4,50.4,0,0,1,14,13.34,124.54,124.54,0,0,1,18,36.36,96.61,96.61,0,0,1,4.08,22.17.21.21,0,0,1-.42,0,126,126,0,0,0-11-37.66c-5.5-11.66-12.45-24.08-23.07-31.8-5.78-4.21-12.27-7-18.75-9.87C367.62,335.16,367.86,334.68,368.2,334.8Z" style="fill:#92E3A9"></path><path d="M412.87,384.11a75.4,75.4,0,0,0-13.42-9.76c-7.5-4.17-13.59-6.91-15.45-10.54s3.93-8.37,3.93-8.37-7.65,3.76-10.83,1-9.84-22.06-9.84-22.06,17.67,6.29,28.7,19S412.87,384.11,412.87,384.11Z" style="fill:#92E3A9"></path><path d="M412,380.12c-8.84-16.58-20.63-31.59-36.79-41.49,0,0,0,0,0,0A80.57,80.57,0,0,1,387,347.89a18.7,18.7,0,0,0-9.5,2c-.06,0,0,.12,0,.1a26.1,26.1,0,0,1,9.77-1.66.14.14,0,0,0,.11,0c.58.55,1.14,1.1,1.7,1.66a29.7,29.7,0,0,0-5.07.67,0,0,0,1,0,0,.07,25.36,25.36,0,0,1,5.36-.44,112.11,112.11,0,0,1,8.34,9.46,8.5,8.5,0,0,0-3.55.26.07.07,0,1,0,0,.13,19.21,19.21,0,0,1,3.79-.05l1.45,1.85a34,34,0,0,0-10.73,1c-.05,0,0,.09,0,.08a42.81,42.81,0,0,1,11-.72c.45.6.88,1.22,1.32,1.82a23,23,0,0,0-6.38.73c-.08,0-.06.15,0,.13a24.48,24.48,0,0,1,6.61-.52c1.9,2.62,3.72,5.3,5.47,8a5.92,5.92,0,0,0-2.8.17c-.05,0,0,.08,0,.08a11.82,11.82,0,0,1,3,.14q2.35,3.67,4.55,7.41C411.73,380.5,412.06,380.34,412,380.12Z" style="fill:#263238"></path><path d="M398.2,366.37a13.71,13.71,0,0,0-5.13.62c-.05,0,0,.09,0,.08a39.85,39.85,0,0,1,5.11-.52C398.3,366.54,398.32,366.38,398.2,366.37Z" style="fill:#263238"></path><path d="M382.79,346.15a8.57,8.57,0,0,0-2.37.14c-.09,0-.06.15,0,.14.78-.08,1.54-.05,2.32-.08A.1.1,0,0,0,382.79,346.15Z" style="fill:#263238"></path><polygon points="435.66 438.96 395.77 438.96 401.46 397.3 402.91 386.62 428.52 386.62 429.97 397.3 435.66 438.96" style="fill:#455a64"></polygon><polygon points="429.97 397.3 401.46 397.3 402.91 386.62 428.52 386.62 429.97 397.3" style="fill:#263238"></polygon><rect x="399.25" y="382.91" width="32.93" height="9.05" style="fill:#455a64"></rect></g></svg>