<svg width="226" height="56" viewBox="0 0 226 56" fill="none" xmlns="http://www.w3.org/2000/svg">
<path fill-rule="evenodd" clip-rule="evenodd" d="M15.9023 24.623C15.9506 24.6156 15.9976 24.623 16.0044 24.6074C18.2593 20.1799 20.5087 15.7476 22.7698 11.3246C23.0761 10.7239 22.7265 10.7394 22.3062 10.7404C20.4636 10.7447 18.6193 10.7795 16.7757 10.7239C16.02 10.703 15.7907 10.9026 15.7989 11.6793C15.838 15.7367 15.8154 19.7933 15.8222 23.8519C15.8222 24.1061 15.7295 24.3842 15.9023 24.623ZM30.135 54.8084C30.1997 54.7922 30.2645 54.7766 30.3287 54.7603C30.3287 50.3581 30.3246 45.9559 30.3347 41.555C30.337 41.1 30.2184 40.8857 29.7139 40.8921C27.8074 40.9187 25.8967 40.925 23.9882 40.9113C23.236 40.9048 23.1829 41.1594 23.5018 41.7764C24.9294 44.5304 26.3263 47.3024 27.7339 50.071C28.5366 51.649 29.3343 53.2306 30.135 54.8084ZM30.1305 24.6959C30.1966 24.685 30.2618 24.6722 30.3287 24.6595C30.3287 20.2064 30.3205 15.755 30.337 11.301C30.3388 10.7447 30.0397 10.7357 29.6365 10.7394C27.7621 10.7466 25.8862 10.7758 24.0137 10.725C23.1951 10.7048 23.1531 10.9218 23.4927 11.5852C25.0346 14.5864 26.5416 17.6073 28.0625 20.6194C28.748 21.9803 29.4417 23.3395 30.1305 24.6959ZM15.8489 54.629C15.9165 54.6426 15.9836 54.6583 16.0501 54.6726C18.2807 50.2953 20.5041 45.915 22.7467 41.543C23.0734 40.9076 22.7434 40.8921 22.263 40.8931C20.3841 40.9032 18.5041 40.9221 16.6271 40.8839C15.9683 40.8703 15.8004 41.0955 15.803 41.7281C15.8271 45.854 15.8154 49.9808 15.817 54.1065C15.817 54.2817 15.838 54.454 15.8489 54.629ZM14.7666 54.6763C14.8421 54.6563 14.916 54.6389 14.9893 54.618C14.9893 50.2497 14.9811 45.8831 14.999 41.514C15.0012 40.9203 14.6927 40.8894 14.2433 40.8921C12.4268 40.904 10.6091 40.8958 8.79205 40.8985C7.74775 40.8995 7.73581 40.9076 8.19795 41.8156C9.53539 44.4455 10.8813 47.0719 12.2222 49.6981C13.0714 51.3581 13.9197 53.0182 14.7666 54.6763ZM23.058 25.8829C20.8714 25.8829 18.685 25.9028 16.499 25.8691C15.7897 25.8582 15.7205 26.1855 15.8809 26.7205C15.9416 26.9247 16.0581 27.1098 16.1557 27.303C18.2169 31.3578 20.2804 35.4143 22.3459 39.4674C22.4937 39.7591 22.5876 40.0872 23.0388 40.1C23.532 40.1191 23.6459 39.7737 23.8118 39.4491C24.8979 37.3088 25.9877 35.1745 27.0717 33.0334C28.0718 31.0597 29.0699 29.0862 30.0566 27.1042C30.5772 26.0605 30.4665 25.8829 29.3415 25.8829C27.2471 25.881 25.1542 25.8829 23.058 25.8829ZM0.895678 32.9284C0.895678 35.0516 0.922234 37.1746 0.881063 39.2959C0.867888 39.9614 1.08713 40.1218 1.7193 40.1072C3.6251 40.0699 5.53172 40.0744 7.43958 40.1072C7.9888 40.1165 8.25312 39.9077 8.48923 39.4363C9.56997 37.2631 10.6943 35.1128 11.7938 32.9513C12.7965 30.9804 13.7988 29.0114 14.7787 27.0313C15.2209 26.1363 15.0797 25.8847 14.1931 25.8829C10.0103 25.8792 5.82754 25.8946 1.64416 25.8691C1.02145 25.8645 0.874682 26.0696 0.884357 26.655C0.915853 28.7471 0.895678 30.8382 0.895678 32.9284ZM45.2497 33.006C45.2497 30.8802 45.246 28.7562 45.2538 26.6322C45.2538 26.2137 45.2944 25.8664 44.6649 25.8701C40.3563 25.8946 36.0472 25.8901 31.7372 25.8738C31.2022 25.8709 31.09 26.1254 31.1734 26.5519C31.2252 26.8172 31.3247 27.0824 31.4474 27.324C33.5094 31.3788 35.5832 35.4234 37.6333 39.482C37.8577 39.9269 38.117 40.1119 38.622 40.1037C40.592 40.0781 42.5623 40.0744 44.5323 40.1063C45.0988 40.1154 45.2688 39.9405 45.262 39.3762C45.2328 37.2522 45.2497 35.1282 45.2497 33.006ZM0.895678 17.7623C0.895678 19.9164 0.916675 22.0706 0.882915 24.2237C0.87324 24.8235 1.04657 25.0022 1.65322 24.9985C5.83783 24.973 10.0208 24.9775 14.2046 24.9967C14.7828 24.9985 15.0054 24.8645 15.0023 24.2346C14.9757 19.9903 14.9769 15.746 15.0023 11.4996C15.0054 10.8835 14.8086 10.7266 14.2173 10.7312C10.0336 10.7522 5.84936 10.7577 1.66557 10.725C0.971844 10.7194 0.873241 10.9819 0.884357 11.5799C0.916265 13.6393 0.895678 15.7021 0.895678 17.7623ZM45.2497 17.8937C45.2497 15.8024 45.2256 13.7084 45.2643 11.6174C45.2767 10.9673 45.1595 10.7176 44.4252 10.7229C40.2738 10.7622 36.1196 10.7559 31.9673 10.7285C31.3187 10.7239 31.14 10.9109 31.1437 11.5544C31.1707 15.7688 31.167 19.9849 31.146 24.1973C31.1437 24.7743 31.2709 25.0032 31.9039 24.9985C36.1184 24.973 40.3324 24.974 44.5469 24.9985C45.1313 25.0022 45.2688 24.8126 45.262 24.262C45.2328 22.138 45.2497 20.0168 45.2497 17.8937ZM38.5991 41.2322C40.0045 44.0234 41.406 46.8156 42.8171 49.6043C43.5683 51.0901 44.3332 52.5707 45.2001 54.2599C45.2001 49.6808 45.2001 45.3626 45.2001 41.0444C45.2046 40.957 45.1772 40.9076 45.0803 40.945C42.9211 40.8703 40.761 40.8693 38.601 40.946C38.539 40.9551 38.4779 40.9623 38.4159 40.9705C36.2678 40.8092 34.1128 40.9623 31.9636 40.8867C31.3002 40.8631 31.1415 41.1064 31.1456 41.7307C31.1682 45.853 31.1561 49.9744 31.1629 54.0966C31.1629 54.2599 31.0803 54.454 31.3164 54.6426C31.4076 54.4849 31.4988 54.3389 31.5781 54.1849C32.6265 52.1357 33.6537 50.0747 34.7272 48.0371C35.9702 45.6825 37.0517 43.2422 38.4205 40.9514C38.4798 41.0452 38.539 41.1401 38.5991 41.2322ZM1.06613 40.945C0.968139 40.9076 0.941789 40.957 0.947553 41.0444C0.930467 45.0664 0.912558 49.0911 0.895678 53.1139C0.895678 53.3683 0.895678 53.6225 0.895678 53.8786C1.45643 53.1859 1.82737 52.4611 2.19894 51.7337C3.90115 48.4045 5.61139 45.0773 7.29693 41.7371C7.43835 41.4601 8.00754 40.9003 7.05402 40.9032C5.05805 40.9076 3.06271 40.9312 1.06613 40.945ZM46.0241 32.9111C46.0241 40.2093 46.0095 47.5058 46.0433 54.804C46.047 55.6865 45.9018 56.0018 44.9078 56C30.3119 55.9616 15.7172 55.9654 1.12191 55.9928C0.227474 55.9944 -0.00123016 55.742 4.96748e-06 54.8606C0.0255309 40.2332 0.0255315 25.6085 0.000623134 10.9819C-0.00122956 10.1834 0.18198 9.94808 1.01384 9.94994C15.6995 9.97649 30.388 9.97546 45.0761 9.95179C45.8518 9.94994 46.0433 10.1642 46.041 10.9271C46.0118 18.2547 46.0241 25.5829 46.0241 32.9111Z" fill="#00A888"/>
<path fill-rule="evenodd" clip-rule="evenodd" d="M28.0384 8.71031C27.1697 8.71031 26.3 8.71031 25.4304 8.71031C24.8765 8.71031 24.3196 8.74304 23.7704 8.69837C23.3673 8.66564 22.6934 8.93449 22.6244 8.52978C22.5415 8.0419 23.2247 8.24446 23.5643 8.12054C23.8711 8.00917 23.9905 7.78417 23.9913 7.48136C23.9938 5.34109 23.9927 3.19876 23.9927 1.00003C23.5829 1.10481 23.558 1.42121 23.4458 1.64168C22.365 3.7803 21.3022 5.92613 20.2219 8.06578C20.0934 8.31919 20.0597 8.6957 19.6467 8.70105C19.2323 8.70661 19.1823 8.33833 19.0559 8.08307C18.1084 6.15236 17.1744 4.2161 16.2355 2.28168C16.0231 1.84692 15.803 1.41565 15.5286 0.864165C15.2342 1.39095 15.3594 1.82221 15.3522 2.22425C15.3318 3.39371 15.3444 4.56337 15.3444 5.73304C15.3444 7.70121 15.3444 7.70121 17.3797 8.59544C15.7279 8.59544 14.3326 8.59544 12.9141 8.59544C12.9392 8.49334 12.9447 8.44414 12.9542 8.44146C14.6585 8.18147 14.8172 6.99555 14.741 5.58812C14.669 4.29803 14.6795 3.00011 14.7425 1.71105C14.7793 0.965448 14.4866 0.700923 13.8007 0.710186C13.5878 0.712862 13.3723 0.679101 13.1621 0.642665C13.04 0.621668 12.9287 0.547771 12.9332 0.400173C12.9402 0.247017 13.065 0.214284 13.1903 0.212431C14.7295 0.212431 16.2693 0.203374 17.808 0.217784C18.2025 0.221489 18.2401 0.617966 18.3663 0.872402C19.1144 2.37658 19.8423 3.88796 20.6723 5.59532C21.5182 3.91534 22.3031 2.43751 23.0063 0.923453C23.2681 0.356324 23.5816 0.161382 24.1932 0.189584C25.2995 0.240636 26.4099 0.198843 27.5174 0.210577C27.708 0.212429 28.0046 0.0992126 28.0489 0.403877C28.094 0.721099 27.8113 0.71019 27.6022 0.709161C26.7932 0.699074 26.5713 1.10214 26.6021 1.87697C26.66 3.35192 26.6194 4.83139 26.6194 6.30902C26.6194 7.92271 26.6194 7.92271 28.0365 8.46946C28.0384 8.54892 28.0384 8.63003 28.0384 8.71031Z" fill="#00A888"/>
<path fill-rule="evenodd" clip-rule="evenodd" d="M28.9531 0.453131C29.2514 0.115941 29.5106 0.209809 29.7358 0.209809C32.719 0.202604 35.7021 0.222569 38.6867 0.191485C39.3152 0.18428 39.5734 0.339289 39.5363 0.999258C39.5032 1.61003 39.5686 2.22615 39.6084 2.83981C39.6211 3.05389 39.7146 3.29289 39.4087 3.35197C39.1845 3.39664 39.1024 3.2017 39.0108 3.04031C37.8257 0.928241 36.3635 0.271771 33.9951 0.760469C33.6999 0.820579 33.4364 0.902506 33.3685 1.20985C33.1733 2.08864 33.2742 2.98287 33.3032 3.87072C33.3148 4.15253 33.6023 4.12598 33.8138 4.13339C34.7177 4.16612 35.4336 3.8734 35.8435 3.00202C35.9489 2.77784 35.9419 2.37478 36.333 2.44951C36.7933 2.53802 36.5804 2.94643 36.5895 3.2126C36.615 4.10231 36.6027 4.99572 36.5946 5.88727C36.5936 6.09045 36.6552 6.35209 36.36 6.41138C36.06 6.47252 36.0491 6.20799 35.9571 6.01758C35.4583 4.99119 34.7864 4.58545 33.8029 4.61839C33.4035 4.63382 33.2341 4.76681 33.2728 5.15978C33.2755 5.19087 33.2728 5.21989 33.2728 5.25098C33.2829 6.05051 33.1902 6.86796 33.3294 7.64383C33.5134 8.66754 34.6392 8.07694 35.363 8.6311C33.1425 8.6311 31.1 8.6311 28.9883 8.6311C29.0754 8.50903 29.1141 8.39767 29.1719 8.38676C30.6656 8.08868 30.6656 8.0895 30.6656 6.59829C30.6656 5.12149 30.6183 3.64284 30.6833 2.16892C30.7218 1.27902 30.5969 0.658363 29.5361 0.654657C29.3683 0.654657 29.2016 0.541648 28.9531 0.453131Z" fill="#00A888"/>
<path fill-rule="evenodd" clip-rule="evenodd" d="M5.39078 2.36195C5.14004 2.82142 4.93213 3.12403 4.80121 3.45587C4.52557 4.15783 3.59799 4.94522 3.98376 5.45492C4.36335 5.9572 5.47909 5.56237 6.2708 5.61631C6.78359 5.65089 6.84102 5.45039 6.63413 5.02736C6.23251 4.20147 5.85601 3.36282 5.39078 2.36195ZM12.0242 8.64648C10.243 8.64648 8.46171 8.64648 6.66337 8.64648C6.69425 8.53244 6.69425 8.44495 6.72616 8.43116C7.15145 8.24075 7.87009 8.42766 7.81821 7.61989C7.76119 6.73204 7.15742 6.15585 6.32556 6.15318C5.67979 6.1505 5.03238 6.15235 4.38662 6.15235C3.42075 6.15421 2.79001 6.61903 2.80813 7.49226C2.82418 8.33565 3.57473 8.28995 4.175 8.35644C4.29666 8.36755 4.41853 8.37744 4.48049 8.61808C3.00966 8.61808 1.55921 8.61808 0.109375 8.61808C2.09896 8.14605 2.54463 6.35471 3.34006 4.88162C4.08484 3.50136 4.79545 2.10484 5.52191 0.715531C5.70203 0.372783 5.80681 0.00368595 6.35108 -1.90735e-05C6.88981 -0.00454807 7.01517 0.335526 7.19097 0.69289C8.13502 2.62627 9.07804 4.55781 10.0311 6.48872C10.7523 7.95091 10.7597 7.94823 12.0242 8.64648Z" fill="#00A888"/>
<path fill-rule="evenodd" clip-rule="evenodd" d="M45.9488 8.63818C44.0801 8.63818 42.2118 8.63818 40.3374 8.63818C40.307 8.26723 40.5869 8.22627 40.759 8.22895C41.7226 8.24171 41.8138 7.66099 41.7974 6.88986C41.7628 5.22718 41.7496 3.56243 41.8033 1.9016C41.8318 1.12676 41.5973 0.727408 40.8039 0.710116C40.59 0.705587 40.3066 0.687266 40.3294 0.406687C40.3554 0.0958471 40.6648 0.213386 40.8525 0.211533C42.3923 0.200623 43.9325 0.200623 45.4712 0.211533C45.6534 0.213386 45.9657 0.0929613 45.9616 0.439415C45.9608 0.651856 45.7243 0.703732 45.5373 0.701879C44.659 0.690145 44.4803 1.1842 44.5013 1.96089C44.5437 3.53053 44.5468 5.10222 44.5004 6.67207C44.4739 7.5663 44.5391 8.28823 45.6812 8.29091C45.7852 8.29091 45.8858 8.38663 45.9886 8.43768C45.9762 8.50438 45.9628 8.57252 45.9488 8.63818Z" fill="#00A888"/>
<path d="M72.7031 20.4844H68.9609L68.5156 21.5156C68.3698 21.8594 68.2969 22.1432 68.2969 22.3672C68.2969 22.6641 68.4167 22.8828 68.6562 23.0234C68.7969 23.1068 69.1432 23.1693 69.6953 23.2109V23.5H66.1719V23.2109C66.5521 23.1536 66.8646 22.9974 67.1094 22.7422C67.3542 22.4818 67.6562 21.9479 68.0156 21.1406L71.8047 12.6875H71.9531L75.7734 21.375C76.138 22.1979 76.4375 22.7161 76.6719 22.9297C76.849 23.0911 77.099 23.1849 77.4219 23.2109V23.5H72.2969V23.2109H72.5078C72.9193 23.2109 73.2083 23.1536 73.375 23.0391C73.4896 22.9557 73.5469 22.8359 73.5469 22.6797C73.5469 22.5859 73.5312 22.4896 73.5 22.3906C73.4896 22.3438 73.4115 22.1484 73.2656 21.8047L72.7031 20.4844ZM72.4375 19.9062L70.8594 16.2578L69.2344 19.9062H72.4375ZM83.0856 15.9922L83.2028 18.4844H82.9372C82.6195 17.7448 82.2887 17.2396 81.945 16.9688C81.6065 16.6979 81.2679 16.5625 80.9294 16.5625C80.7158 16.5625 80.5335 16.6354 80.3825 16.7812C80.2315 16.9219 80.1559 17.0859 80.1559 17.2734C80.1559 17.4141 80.208 17.5495 80.3122 17.6797C80.4789 17.8932 80.945 18.2604 81.7106 18.7812C82.4762 19.2969 82.9789 19.737 83.2184 20.1016C83.4632 20.4609 83.5856 20.8646 83.5856 21.3125C83.5856 21.7188 83.4841 22.1172 83.2809 22.5078C83.0778 22.8984 82.7914 23.1979 82.4216 23.4062C82.0518 23.6146 81.6429 23.7188 81.195 23.7188C80.846 23.7188 80.3799 23.6094 79.7966 23.3906C79.6403 23.3333 79.5335 23.3047 79.4762 23.3047C79.3044 23.3047 79.1611 23.4349 79.0466 23.6953H78.7887L78.6637 21.0703H78.9294C79.1637 21.7578 79.4841 22.2734 79.8903 22.6172C80.3018 22.9609 80.6898 23.1328 81.0544 23.1328C81.3044 23.1328 81.5075 23.0573 81.6637 22.9062C81.8252 22.75 81.9059 22.5625 81.9059 22.3438C81.9059 22.0938 81.8278 21.8776 81.6716 21.6953C81.5153 21.513 81.1664 21.237 80.6247 20.8672C79.8278 20.3151 79.3122 19.8932 79.0778 19.6016C78.7341 19.1745 78.5622 18.7031 78.5622 18.1875C78.5622 17.625 78.7549 17.1172 79.1403 16.6641C79.5309 16.2057 80.0934 15.9766 80.8278 15.9766C81.2236 15.9766 81.6065 16.0729 81.9762 16.2656C82.1169 16.3438 82.2315 16.3828 82.32 16.3828C82.4137 16.3828 82.4893 16.3646 82.5466 16.3281C82.6039 16.2865 82.695 16.1745 82.82 15.9922H83.0856ZM89.64 15.9922L89.7572 18.4844H89.4916C89.1739 17.7448 88.8431 17.2396 88.4994 16.9688C88.1608 16.6979 87.8223 16.5625 87.4837 16.5625C87.2702 16.5625 87.0879 16.6354 86.9369 16.7812C86.7858 16.9219 86.7103 17.0859 86.7103 17.2734C86.7103 17.4141 86.7624 17.5495 86.8666 17.6797C87.0332 17.8932 87.4994 18.2604 88.265 18.7812C89.0306 19.2969 89.5332 19.737 89.7728 20.1016C90.0176 20.4609 90.14 20.8646 90.14 21.3125C90.14 21.7188 90.0384 22.1172 89.8353 22.5078C89.6322 22.8984 89.3457 23.1979 88.9759 23.4062C88.6061 23.6146 88.1973 23.7188 87.7494 23.7188C87.4004 23.7188 86.9343 23.6094 86.3509 23.3906C86.1947 23.3333 86.0879 23.3047 86.0306 23.3047C85.8587 23.3047 85.7155 23.4349 85.6009 23.6953H85.3431L85.2181 21.0703H85.4837C85.7181 21.7578 86.0384 22.2734 86.4447 22.6172C86.8561 22.9609 87.2442 23.1328 87.6087 23.1328C87.8587 23.1328 88.0619 23.0573 88.2181 22.9062C88.3796 22.75 88.4603 22.5625 88.4603 22.3438C88.4603 22.0938 88.3822 21.8776 88.2259 21.6953C88.0697 21.513 87.7207 21.237 87.1791 20.8672C86.3822 20.3151 85.8666 19.8932 85.6322 19.6016C85.2884 19.1745 85.1166 18.7031 85.1166 18.1875C85.1166 17.625 85.3093 17.1172 85.6947 16.6641C86.0853 16.2057 86.6478 15.9766 87.3822 15.9766C87.778 15.9766 88.1608 16.0729 88.5306 16.2656C88.6712 16.3438 88.7858 16.3828 88.8744 16.3828C88.9681 16.3828 89.0436 16.3646 89.1009 16.3281C89.1582 16.2865 89.2494 16.1745 89.3744 15.9922H89.64ZM95.0225 15.9766C95.6579 15.9766 96.2491 16.1406 96.7959 16.4688C97.3428 16.7969 97.7569 17.263 98.0381 17.8672C98.3246 18.4714 98.4678 19.1328 98.4678 19.8516C98.4678 20.888 98.2048 21.7552 97.6787 22.4531C97.0433 23.2969 96.1657 23.7188 95.0459 23.7188C93.947 23.7188 93.1006 23.3333 92.5069 22.5625C91.9131 21.7917 91.6162 20.8984 91.6162 19.8828C91.6162 18.8359 91.9183 17.9245 92.5225 17.1484C93.1319 16.3672 93.9652 15.9766 95.0225 15.9766ZM95.0537 16.5312C94.7881 16.5312 94.559 16.6328 94.3662 16.8359C94.1787 17.0339 94.0537 17.4297 93.9912 18.0234C93.934 18.612 93.9053 19.4323 93.9053 20.4844C93.9053 21.0417 93.9418 21.5625 94.0147 22.0469C94.072 22.4167 94.1944 22.6979 94.3819 22.8906C94.5694 23.0833 94.7829 23.1797 95.0225 23.1797C95.2569 23.1797 95.4522 23.1146 95.6084 22.9844C95.8116 22.8073 95.947 22.5599 96.0147 22.2422C96.1189 21.7474 96.1709 20.7474 96.1709 19.2422C96.1709 18.3568 96.1215 17.75 96.0225 17.4219C95.9235 17.0885 95.7777 16.8464 95.585 16.6953C95.4496 16.5859 95.2725 16.5312 95.0537 16.5312ZM105.858 21.6172L106.1 21.8047C105.757 22.4505 105.327 22.9323 104.811 23.25C104.301 23.5625 103.757 23.7188 103.178 23.7188C102.204 23.7188 101.426 23.3516 100.842 22.6172C100.259 21.8828 99.9675 21 99.9675 19.9688C99.9675 18.974 100.233 18.099 100.764 17.3438C101.405 16.4323 102.288 15.9766 103.413 15.9766C104.168 15.9766 104.767 16.1667 105.21 16.5469C105.658 16.9271 105.882 17.3516 105.882 17.8203C105.882 18.1172 105.79 18.3542 105.608 18.5312C105.431 18.7083 105.197 18.7969 104.905 18.7969C104.598 18.7969 104.342 18.6953 104.139 18.4922C103.941 18.2891 103.819 17.9271 103.772 17.4062C103.741 17.0781 103.665 16.849 103.546 16.7188C103.426 16.5885 103.285 16.5234 103.124 16.5234C102.874 16.5234 102.66 16.6562 102.483 16.9219C102.212 17.3229 102.077 17.9375 102.077 18.7656C102.077 19.4531 102.186 20.112 102.405 20.7422C102.624 21.3672 102.923 21.8333 103.303 22.1406C103.59 22.3646 103.928 22.4766 104.319 22.4766C104.574 22.4766 104.816 22.4167 105.046 22.2969C105.275 22.1771 105.546 21.9505 105.858 21.6172ZM109.084 12.6562C109.423 12.6562 109.709 12.776 109.944 13.0156C110.178 13.25 110.295 13.5339 110.295 13.8672C110.295 14.2005 110.176 14.4844 109.936 14.7188C109.702 14.9531 109.418 15.0703 109.084 15.0703C108.751 15.0703 108.467 14.9531 108.233 14.7188C107.998 14.4844 107.881 14.2005 107.881 13.8672C107.881 13.5339 107.998 13.25 108.233 13.0156C108.467 12.776 108.751 12.6562 109.084 12.6562ZM110.178 16.1953V21.9844C110.178 22.5 110.238 22.8307 110.358 22.9766C110.478 23.1172 110.712 23.1979 111.061 23.2188V23.5H107.116V23.2188C107.439 23.2083 107.678 23.1146 107.834 22.9375C107.939 22.8177 107.991 22.5 107.991 21.9844V17.7188C107.991 17.2031 107.931 16.875 107.811 16.7344C107.691 16.5885 107.459 16.5052 107.116 16.4844V16.1953H110.178ZM116.131 22.4219C115.24 23.2083 114.441 23.6016 113.732 23.6016C113.316 23.6016 112.969 23.4661 112.693 23.1953C112.417 22.9193 112.279 22.5755 112.279 22.1641C112.279 21.6068 112.519 21.1068 112.998 20.6641C113.477 20.2161 114.522 19.6224 116.131 18.8828V18.1484C116.131 17.5964 116.1 17.25 116.037 17.1094C115.98 16.9635 115.868 16.8385 115.701 16.7344C115.535 16.625 115.347 16.5703 115.139 16.5703C114.8 16.5703 114.522 16.6458 114.303 16.7969C114.167 16.8906 114.1 17 114.1 17.125C114.1 17.2344 114.173 17.3698 114.318 17.5312C114.516 17.7552 114.615 17.9714 114.615 18.1797C114.615 18.4349 114.519 18.6536 114.326 18.8359C114.139 19.013 113.891 19.1016 113.584 19.1016C113.256 19.1016 112.98 19.0026 112.756 18.8047C112.537 18.6068 112.428 18.375 112.428 18.1094C112.428 17.7344 112.576 17.3776 112.873 17.0391C113.17 16.6953 113.584 16.4323 114.115 16.25C114.647 16.0677 115.199 15.9766 115.772 15.9766C116.464 15.9766 117.011 16.125 117.412 16.4219C117.818 16.7135 118.081 17.0312 118.201 17.375C118.274 17.5938 118.311 18.0964 118.311 18.8828V21.7188C118.311 22.0521 118.324 22.263 118.35 22.3516C118.376 22.4349 118.415 22.4974 118.467 22.5391C118.519 22.5807 118.579 22.6016 118.647 22.6016C118.782 22.6016 118.92 22.5052 119.061 22.3125L119.295 22.5C119.035 22.8854 118.764 23.1667 118.482 23.3438C118.206 23.5156 117.891 23.6016 117.537 23.6016C117.121 23.6016 116.795 23.5052 116.561 23.3125C116.326 23.1146 116.183 22.8177 116.131 22.4219ZM116.131 21.8516V19.4062C115.501 19.776 115.032 20.1719 114.725 20.5938C114.522 20.875 114.42 21.1589 114.42 21.4453C114.42 21.6849 114.506 21.8958 114.678 22.0781C114.808 22.2188 114.99 22.2891 115.225 22.2891C115.485 22.2891 115.787 22.1432 116.131 21.8516ZM123.318 13.5234V16.1953H125.053V16.9688H123.318V21.4766C123.318 21.8984 123.336 22.1719 123.373 22.2969C123.414 22.4167 123.485 22.5156 123.584 22.5938C123.683 22.6667 123.774 22.7031 123.857 22.7031C124.196 22.7031 124.516 22.4453 124.818 21.9297L125.053 22.1016C124.631 23.1016 123.946 23.6016 122.998 23.6016C122.534 23.6016 122.141 23.474 121.818 23.2188C121.5 22.9583 121.297 22.6693 121.209 22.3516C121.157 22.1745 121.131 21.6953 121.131 20.9141V16.9688H120.178V16.6953C120.834 16.2318 121.391 15.7448 121.849 15.2344C122.313 14.724 122.717 14.1536 123.06 13.5234H123.318ZM127.826 12.6562C128.164 12.6562 128.451 12.776 128.685 13.0156C128.919 13.25 129.037 13.5339 129.037 13.8672C129.037 14.2005 128.917 14.4844 128.677 14.7188C128.443 14.9531 128.159 15.0703 127.826 15.0703C127.492 15.0703 127.208 14.9531 126.974 14.7188C126.74 14.4844 126.623 14.2005 126.623 13.8672C126.623 13.5339 126.74 13.25 126.974 13.0156C127.208 12.776 127.492 12.6562 127.826 12.6562ZM128.919 16.1953V21.9844C128.919 22.5 128.979 22.8307 129.099 22.9766C129.219 23.1172 129.453 23.1979 129.802 23.2188V23.5H125.857V23.2188C126.18 23.2083 126.419 23.1146 126.576 22.9375C126.68 22.8177 126.732 22.5 126.732 21.9844V17.7188C126.732 17.2031 126.672 16.875 126.552 16.7344C126.432 16.5885 126.201 16.5052 125.857 16.4844V16.1953H128.919ZM134.286 15.9766C134.922 15.9766 135.513 16.1406 136.06 16.4688C136.607 16.7969 137.021 17.263 137.302 17.8672C137.588 18.4714 137.732 19.1328 137.732 19.8516C137.732 20.888 137.469 21.7552 136.942 22.4531C136.307 23.2969 135.429 23.7188 134.31 23.7188C133.211 23.7188 132.364 23.3333 131.771 22.5625C131.177 21.7917 130.88 20.8984 130.88 19.8828C130.88 18.8359 131.182 17.9245 131.786 17.1484C132.396 16.3672 133.229 15.9766 134.286 15.9766ZM134.317 16.5312C134.052 16.5312 133.823 16.6328 133.63 16.8359C133.442 17.0339 133.317 17.4297 133.255 18.0234C133.198 18.612 133.169 19.4323 133.169 20.4844C133.169 21.0417 133.206 21.5625 133.278 22.0469C133.336 22.4167 133.458 22.6979 133.646 22.8906C133.833 23.0833 134.047 23.1797 134.286 23.1797C134.521 23.1797 134.716 23.1146 134.872 22.9844C135.075 22.8073 135.211 22.5599 135.278 22.2422C135.383 21.7474 135.435 20.7474 135.435 19.2422C135.435 18.3568 135.385 17.75 135.286 17.4219C135.187 17.0885 135.041 16.8464 134.849 16.6953C134.713 16.5859 134.536 16.5312 134.317 16.5312ZM142.145 16.1953V17.1406C142.52 16.7344 142.88 16.4401 143.223 16.2578C143.567 16.0703 143.937 15.9766 144.333 15.9766C144.807 15.9766 145.2 16.1094 145.512 16.375C145.825 16.6354 146.033 16.9609 146.137 17.3516C146.221 17.6484 146.262 18.2188 146.262 19.0625V21.9062C146.262 22.4688 146.312 22.8203 146.411 22.9609C146.515 23.0964 146.729 23.1823 147.052 23.2188V23.5H143.356V23.2188C143.632 23.1823 143.83 23.0677 143.95 22.875C144.033 22.7448 144.075 22.4219 144.075 21.9062V18.6562C144.075 18.0573 144.052 17.6797 144.005 17.5234C143.958 17.3672 143.877 17.2474 143.762 17.1641C143.653 17.0755 143.531 17.0312 143.395 17.0312C142.947 17.0312 142.531 17.3516 142.145 17.9922V21.9062C142.145 22.4531 142.195 22.7995 142.294 22.9453C142.398 23.0911 142.588 23.1823 142.864 23.2188V23.5H139.169V23.2188C139.476 23.1875 139.695 23.0885 139.825 22.9219C139.914 22.8073 139.958 22.4688 139.958 21.9062V17.7812C139.958 17.2292 139.906 16.8854 139.802 16.75C139.703 16.6146 139.492 16.526 139.169 16.4844V16.1953H142.145ZM156.152 15.9766C156.788 15.9766 157.379 16.1406 157.926 16.4688C158.473 16.7969 158.887 17.263 159.168 17.8672C159.455 18.4714 159.598 19.1328 159.598 19.8516C159.598 20.888 159.335 21.7552 158.809 22.4531C158.173 23.2969 157.296 23.7188 156.176 23.7188C155.077 23.7188 154.231 23.3333 153.637 22.5625C153.043 21.7917 152.746 20.8984 152.746 19.8828C152.746 18.8359 153.048 17.9245 153.652 17.1484C154.262 16.3672 155.095 15.9766 156.152 15.9766ZM156.184 16.5312C155.918 16.5312 155.689 16.6328 155.496 16.8359C155.309 17.0339 155.184 17.4297 155.121 18.0234C155.064 18.612 155.035 19.4323 155.035 20.4844C155.035 21.0417 155.072 21.5625 155.145 22.0469C155.202 22.4167 155.324 22.6979 155.512 22.8906C155.699 23.0833 155.913 23.1797 156.152 23.1797C156.387 23.1797 156.582 23.1146 156.738 22.9844C156.942 22.8073 157.077 22.5599 157.145 22.2422C157.249 21.7474 157.301 20.7474 157.301 19.2422C157.301 18.3568 157.251 17.75 157.152 17.4219C157.054 17.0885 156.908 16.8464 156.715 16.6953C156.58 16.5859 156.402 16.5312 156.184 16.5312ZM164.23 16.9609V22.0312C164.23 22.5208 164.282 22.8281 164.387 22.9531C164.553 23.1458 164.861 23.2344 165.308 23.2188V23.5H161.004V23.2188C161.332 23.2135 161.564 23.1771 161.699 23.1094C161.84 23.0365 161.936 22.9375 161.988 22.8125C162.04 22.6875 162.066 22.4271 162.066 22.0312V16.9609H161.004V16.1953H162.066V15.6562L162.058 15.2891C162.058 14.5391 162.332 13.9141 162.879 13.4141C163.431 12.9141 164.176 12.6641 165.113 12.6641C165.754 12.6641 166.228 12.7839 166.535 13.0234C166.848 13.263 167.004 13.5286 167.004 13.8203C167.004 14.0547 166.907 14.2578 166.715 14.4297C166.522 14.6016 166.267 14.6875 165.949 14.6875C165.678 14.6875 165.462 14.6172 165.301 14.4766C165.144 14.3359 165.066 14.1797 165.066 14.0078C165.066 13.9609 165.082 13.8646 165.113 13.7188C165.134 13.6302 165.144 13.5469 165.144 13.4688C165.144 13.3594 165.113 13.2786 165.051 13.2266C164.967 13.1484 164.866 13.1094 164.746 13.1094C164.595 13.1094 164.467 13.1719 164.363 13.2969C164.264 13.4219 164.215 13.6224 164.215 13.8984L164.23 15.2656V16.1953H165.308V16.9609H164.23Z" fill="#1C252E"/>
<path d="M73.6719 38.8906L76.5469 31.9062H80.8594V32.1953H80.5156C80.2031 32.1953 79.9531 32.25 79.7656 32.3594C79.6354 32.4323 79.5312 32.5547 79.4531 32.7266C79.3958 32.8516 79.3672 33.1771 79.3672 33.7031V40.6875C79.3672 41.2292 79.3958 41.5677 79.4531 41.7031C79.5104 41.8385 79.6276 41.9583 79.8047 42.0625C79.9818 42.1615 80.2188 42.2109 80.5156 42.2109H80.8594V42.5H75.3281V42.2109H75.6719C75.9844 42.2109 76.2344 42.1562 76.4219 42.0469C76.5521 41.974 76.6562 41.849 76.7344 41.6719C76.7917 41.5469 76.8203 41.2188 76.8203 40.6875V32.8359L72.7578 42.5H72.5703L68.4453 32.9062V40.3672C68.4453 40.888 68.4583 41.2083 68.4844 41.3281C68.5521 41.5885 68.6979 41.8021 68.9219 41.9688C69.151 42.1302 69.5078 42.2109 69.9922 42.2109V42.5H66.3672V42.2109H66.4766C66.7109 42.2161 66.9297 42.1797 67.1328 42.1016C67.3359 42.0182 67.4896 41.9089 67.5938 41.7734C67.6979 41.638 67.7786 41.4479 67.8359 41.2031C67.8464 41.1458 67.8516 40.8802 67.8516 40.4062V33.7031C67.8516 33.1667 67.8229 32.8333 67.7656 32.7031C67.7083 32.5677 67.5911 32.4505 67.4141 32.3516C67.237 32.2474 67 32.1953 66.7031 32.1953H66.3672V31.9062H70.6953L73.6719 38.8906ZM88.91 35.1953V40.9141C88.91 41.4714 88.9621 41.8203 89.0662 41.9609C89.1704 42.0964 89.3814 42.1823 89.6991 42.2188V42.5H86.7225V41.5234C86.3735 41.9401 86.0246 42.2448 85.6756 42.4375C85.3267 42.625 84.936 42.7188 84.5037 42.7188C84.0923 42.7188 83.7251 42.5938 83.4022 42.3438C83.0845 42.0885 82.8709 41.7917 82.7616 41.4531C82.6522 41.1146 82.5975 40.5234 82.5975 39.6797V36.7812C82.5975 36.2292 82.5454 35.8854 82.4412 35.75C82.3423 35.6146 82.1314 35.526 81.8084 35.4844V35.1953H84.785V40.1875C84.785 40.7083 84.8084 41.0443 84.8553 41.1953C84.9074 41.3464 84.9855 41.4609 85.0897 41.5391C85.1991 41.6172 85.3241 41.6562 85.4647 41.6562C85.6522 41.6562 85.8215 41.6068 85.9725 41.5078C86.1808 41.3724 86.4308 41.099 86.7225 40.6875V36.7812C86.7225 36.2292 86.6704 35.8854 86.5662 35.75C86.4673 35.6146 86.2564 35.526 85.9334 35.4844V35.1953H88.91ZM93.82 32.5234V35.1953H95.5544V35.9688H93.82V40.4766C93.82 40.8984 93.8382 41.1719 93.8747 41.2969C93.9164 41.4167 93.9867 41.5156 94.0856 41.5938C94.1846 41.6667 94.2757 41.7031 94.3591 41.7031C94.6976 41.7031 95.0179 41.4453 95.32 40.9297L95.5544 41.1016C95.1325 42.1016 94.4476 42.6016 93.4997 42.6016C93.0361 42.6016 92.6429 42.474 92.32 42.2188C92.0023 41.9583 91.7992 41.6693 91.7106 41.3516C91.6585 41.1745 91.6325 40.6953 91.6325 39.9141V35.9688H90.6794V35.6953C91.3356 35.2318 91.8929 34.7448 92.3512 34.2344C92.8148 33.724 93.2184 33.1536 93.5622 32.5234H93.82ZM103.464 35.1953V40.9141C103.464 41.4714 103.516 41.8203 103.621 41.9609C103.725 42.0964 103.936 42.1823 104.253 42.2188V42.5H101.277V41.5234C100.928 41.9401 100.579 42.2448 100.23 42.4375C99.881 42.625 99.4904 42.7188 99.0581 42.7188C98.6467 42.7188 98.2795 42.5938 97.9566 42.3438C97.6389 42.0885 97.4253 41.7917 97.3159 41.4531C97.2066 41.1146 97.1519 40.5234 97.1519 39.6797V36.7812C97.1519 36.2292 97.0998 35.8854 96.9956 35.75C96.8967 35.6146 96.6857 35.526 96.3628 35.4844V35.1953H99.3394V40.1875C99.3394 40.7083 99.3628 41.0443 99.4097 41.1953C99.4618 41.3464 99.5399 41.4609 99.6441 41.5391C99.7534 41.6172 99.8784 41.6562 100.019 41.6562C100.207 41.6562 100.376 41.6068 100.527 41.5078C100.735 41.3724 100.985 41.099 101.277 40.6875V36.7812C101.277 36.2292 101.225 35.8854 101.121 35.75C101.022 35.6146 100.811 35.526 100.488 35.4844V35.1953H103.464ZM109.507 41.4219C108.617 42.2083 107.817 42.6016 107.109 42.6016C106.692 42.6016 106.346 42.4661 106.07 42.1953C105.794 41.9193 105.656 41.5755 105.656 41.1641C105.656 40.6068 105.895 40.1068 106.374 39.6641C106.854 39.2161 107.898 38.6224 109.507 37.8828V37.1484C109.507 36.5964 109.476 36.25 109.413 36.1094C109.356 35.9635 109.244 35.8385 109.077 35.7344C108.911 35.625 108.723 35.5703 108.515 35.5703C108.176 35.5703 107.898 35.6458 107.679 35.7969C107.544 35.8906 107.476 36 107.476 36.125C107.476 36.2344 107.549 36.3698 107.695 36.5312C107.893 36.7552 107.992 36.9714 107.992 37.1797C107.992 37.4349 107.895 37.6536 107.702 37.8359C107.515 38.013 107.268 38.1016 106.96 38.1016C106.632 38.1016 106.356 38.0026 106.132 37.8047C105.913 37.6068 105.804 37.375 105.804 37.1094C105.804 36.7344 105.952 36.3776 106.249 36.0391C106.546 35.6953 106.96 35.4323 107.492 35.25C108.023 35.0677 108.575 34.9766 109.148 34.9766C109.841 34.9766 110.387 35.125 110.788 35.4219C111.195 35.7135 111.458 36.0312 111.577 36.375C111.65 36.5938 111.687 37.0964 111.687 37.8828V40.7188C111.687 41.0521 111.7 41.263 111.726 41.3516C111.752 41.4349 111.791 41.4974 111.843 41.5391C111.895 41.5807 111.955 41.6016 112.023 41.6016C112.158 41.6016 112.296 41.5052 112.437 41.3125L112.671 41.5C112.411 41.8854 112.14 42.1667 111.859 42.3438C111.583 42.5156 111.268 42.6016 110.913 42.6016C110.497 42.6016 110.171 42.5052 109.937 42.3125C109.702 42.1146 109.559 41.8177 109.507 41.4219ZM109.507 40.8516V38.4062C108.877 38.776 108.408 39.1719 108.101 39.5938C107.898 39.875 107.796 40.1589 107.796 40.4453C107.796 40.6849 107.882 40.8958 108.054 41.0781C108.184 41.2188 108.367 41.2891 108.601 41.2891C108.861 41.2891 109.163 41.1432 109.507 40.8516ZM116.495 31.9062V40.9844C116.495 41.5 116.555 41.8307 116.675 41.9766C116.795 42.1172 117.029 42.1979 117.378 42.2188V42.5H113.433V42.2188C113.756 42.2083 113.995 42.1146 114.152 41.9375C114.256 41.8177 114.308 41.5 114.308 40.9844V33.4219C114.308 32.9115 114.248 32.5859 114.128 32.4453C114.008 32.2995 113.777 32.2161 113.433 32.1953V31.9062H116.495ZM126.268 32.5156V36.8672H126.573C127.042 36.8672 127.425 36.7969 127.722 36.6562C128.018 36.5156 128.268 36.2786 128.472 35.9453C128.68 35.612 128.815 35.1615 128.878 34.5938H129.151V39.9141H128.878C128.779 38.9089 128.508 38.2474 128.065 37.9297C127.628 37.6068 127.13 37.4453 126.573 37.4453H126.268V40.6875C126.268 41.2292 126.297 41.5677 126.354 41.7031C126.417 41.8385 126.534 41.9583 126.706 42.0625C126.883 42.1615 127.12 42.2109 127.417 42.2109H127.768V42.5H122.229V42.2109H122.581C122.888 42.2109 123.136 42.1562 123.323 42.0469C123.459 41.974 123.563 41.849 123.636 41.6719C123.693 41.5469 123.722 41.2188 123.722 40.6875V33.7188C123.722 33.1771 123.693 32.8385 123.636 32.7031C123.578 32.5677 123.461 32.4505 123.284 32.3516C123.112 32.2474 122.878 32.1953 122.581 32.1953H122.229V31.9062H131.167V34.9453H130.847C130.774 34.2318 130.586 33.7031 130.284 33.3594C129.987 33.0156 129.555 32.7734 128.987 32.6328C128.675 32.5547 128.097 32.5156 127.253 32.5156H126.268ZM139.405 35.1953V40.9141C139.405 41.4714 139.457 41.8203 139.561 41.9609C139.665 42.0964 139.876 42.1823 140.194 42.2188V42.5H137.217V41.5234C136.869 41.9401 136.52 42.2448 136.171 42.4375C135.822 42.625 135.431 42.7188 134.999 42.7188C134.587 42.7188 134.22 42.5938 133.897 42.3438C133.579 42.0885 133.366 41.7917 133.257 41.4531C133.147 41.1146 133.092 40.5234 133.092 39.6797V36.7812C133.092 36.2292 133.04 35.8854 132.936 35.75C132.837 35.6146 132.626 35.526 132.303 35.4844V35.1953H135.28V40.1875C135.28 40.7083 135.303 41.0443 135.35 41.1953C135.402 41.3464 135.481 41.4609 135.585 41.5391C135.694 41.6172 135.819 41.6562 135.96 41.6562C136.147 41.6562 136.316 41.6068 136.467 41.5078C136.676 41.3724 136.926 41.099 137.217 40.6875V36.7812C137.217 36.2292 137.165 35.8854 137.061 35.75C136.962 35.6146 136.751 35.526 136.428 35.4844V35.1953H139.405ZM144.401 35.1953V36.1406C144.776 35.7344 145.135 35.4401 145.479 35.2578C145.823 35.0703 146.193 34.9766 146.588 34.9766C147.062 34.9766 147.456 35.1094 147.768 35.375C148.081 35.6354 148.289 35.9609 148.393 36.3516C148.476 36.6484 148.518 37.2188 148.518 38.0625V40.9062C148.518 41.4688 148.568 41.8203 148.667 41.9609C148.771 42.0964 148.984 42.1823 149.307 42.2188V42.5H145.612V42.2188C145.888 42.1823 146.086 42.0677 146.206 41.875C146.289 41.7448 146.331 41.4219 146.331 40.9062V37.6562C146.331 37.0573 146.307 36.6797 146.26 36.5234C146.213 36.3672 146.133 36.2474 146.018 36.1641C145.909 36.0755 145.786 36.0312 145.651 36.0312C145.203 36.0312 144.786 36.3516 144.401 36.9922V40.9062C144.401 41.4531 144.45 41.7995 144.549 41.9453C144.654 42.0911 144.844 42.1823 145.12 42.2188V42.5H141.424V42.2188C141.732 42.1875 141.95 42.0885 142.081 41.9219C142.169 41.8073 142.213 41.4688 142.213 40.9062V36.7812C142.213 36.2292 142.161 35.8854 142.057 35.75C141.958 35.6146 141.747 35.526 141.424 35.4844V35.1953H144.401ZM157.584 31.9062V40.3125C157.584 40.8802 157.6 41.2161 157.631 41.3203C157.673 41.4922 157.751 41.6198 157.866 41.7031C157.985 41.7865 158.191 41.8385 158.483 41.8594V42.1172L155.397 42.7188V41.5625C155.027 42.0104 154.696 42.3151 154.405 42.4766C154.118 42.638 153.793 42.7188 153.428 42.7188C152.496 42.7188 151.759 42.3021 151.217 41.4688C150.78 40.7917 150.561 39.9609 150.561 38.9766C150.561 38.1901 150.696 37.487 150.967 36.8672C151.238 36.2422 151.608 35.7708 152.077 35.4531C152.551 35.1354 153.058 34.9766 153.6 34.9766C153.949 34.9766 154.259 35.0443 154.53 35.1797C154.801 35.3151 155.09 35.5521 155.397 35.8906V33.6875C155.397 33.1302 155.373 32.7943 155.327 32.6797C155.264 32.5286 155.17 32.4167 155.045 32.3438C154.92 32.2708 154.686 32.2344 154.342 32.2344V31.9062H157.584ZM155.397 36.8594C155.011 36.1198 154.54 35.75 153.983 35.75C153.79 35.75 153.631 35.8021 153.506 35.9062C153.314 36.0677 153.155 36.3516 153.03 36.7578C152.91 37.1641 152.85 37.7865 152.85 38.625C152.85 39.5469 152.918 40.2292 153.053 40.6719C153.189 41.1146 153.373 41.4349 153.608 41.6328C153.728 41.7318 153.892 41.7812 154.1 41.7812C154.558 41.7812 154.991 41.4219 155.397 40.7031V36.8594ZM164.166 34.9922L164.283 37.4844H164.018C163.7 36.7448 163.369 36.2396 163.026 35.9688C162.687 35.6979 162.349 35.5625 162.01 35.5625C161.796 35.5625 161.614 35.6354 161.463 35.7812C161.312 35.9219 161.237 36.0859 161.237 36.2734C161.237 36.4141 161.289 36.5495 161.393 36.6797C161.559 36.8932 162.026 37.2604 162.791 37.7812C163.557 38.2969 164.059 38.737 164.299 39.1016C164.544 39.4609 164.666 39.8646 164.666 40.3125C164.666 40.7188 164.565 41.1172 164.362 41.5078C164.158 41.8984 163.872 42.1979 163.502 42.4062C163.132 42.6146 162.724 42.7188 162.276 42.7188C161.927 42.7188 161.461 42.6094 160.877 42.3906C160.721 42.3333 160.614 42.3047 160.557 42.3047C160.385 42.3047 160.242 42.4349 160.127 42.6953H159.869L159.744 40.0703H160.01C160.244 40.7578 160.565 41.2734 160.971 41.6172C161.382 41.9609 161.77 42.1328 162.135 42.1328C162.385 42.1328 162.588 42.0573 162.744 41.9062C162.906 41.75 162.987 41.5625 162.987 41.3438C162.987 41.0938 162.908 40.8776 162.752 40.6953C162.596 40.513 162.247 40.237 161.705 39.8672C160.908 39.3151 160.393 38.8932 160.158 38.6016C159.815 38.1745 159.643 37.7031 159.643 37.1875C159.643 36.625 159.836 36.1172 160.221 35.6641C160.612 35.2057 161.174 34.9766 161.908 34.9766C162.304 34.9766 162.687 35.0729 163.057 35.2656C163.198 35.3438 163.312 35.3828 163.401 35.3828C163.494 35.3828 163.57 35.3646 163.627 35.3281C163.684 35.2865 163.776 35.1745 163.901 34.9922H164.166ZM171.861 31.6562C172.2 31.6562 172.486 31.776 172.721 32.0156C172.955 32.25 173.072 32.5339 173.072 32.8672C173.072 33.2005 172.952 33.4844 172.713 33.7188C172.478 33.9531 172.195 34.0703 171.861 34.0703C171.528 34.0703 171.244 33.9531 171.01 33.7188C170.775 33.4844 170.658 33.2005 170.658 32.8672C170.658 32.5339 170.775 32.25 171.01 32.0156C171.244 31.776 171.528 31.6562 171.861 31.6562ZM172.955 35.1953V40.9844C172.955 41.5 173.015 41.8307 173.135 41.9766C173.254 42.1172 173.489 42.1979 173.838 42.2188V42.5H169.893V42.2188C170.215 42.2083 170.455 42.1146 170.611 41.9375C170.715 41.8177 170.768 41.5 170.768 40.9844V36.7188C170.768 36.2031 170.708 35.875 170.588 35.7344C170.468 35.5885 170.236 35.5052 169.893 35.4844V35.1953H172.955ZM177.701 35.1953V36.1406C178.076 35.7344 178.435 35.4401 178.779 35.2578C179.123 35.0703 179.493 34.9766 179.888 34.9766C180.362 34.9766 180.756 35.1094 181.068 35.375C181.381 35.6354 181.589 35.9609 181.693 36.3516C181.776 36.6484 181.818 37.2188 181.818 38.0625V40.9062C181.818 41.4688 181.868 41.8203 181.967 41.9609C182.071 42.0964 182.284 42.1823 182.607 42.2188V42.5H178.912V42.2188C179.188 42.1823 179.386 42.0677 179.506 41.875C179.589 41.7448 179.631 41.4219 179.631 40.9062V37.6562C179.631 37.0573 179.607 36.6797 179.56 36.5234C179.513 36.3672 179.433 36.2474 179.318 36.1641C179.209 36.0755 179.086 36.0312 178.951 36.0312C178.503 36.0312 178.086 36.3516 177.701 36.9922V40.9062C177.701 41.4531 177.75 41.7995 177.849 41.9453C177.954 42.0911 178.144 42.1823 178.42 42.2188V42.5H174.724V42.2188C175.032 42.1875 175.25 42.0885 175.381 41.9219C175.469 41.8073 175.513 41.4688 175.513 40.9062V36.7812C175.513 36.2292 175.461 35.8854 175.357 35.75C175.258 35.6146 175.047 35.526 174.724 35.4844V35.1953H177.701ZM193.263 42.2109V42.5H187.724V42.2109H188.076C188.383 42.2109 188.63 42.1562 188.818 42.0469C188.953 41.974 189.057 41.849 189.13 41.6719C189.188 41.5469 189.216 41.2188 189.216 40.6875V33.7188C189.216 33.1771 189.188 32.8385 189.13 32.7031C189.073 32.5677 188.956 32.4505 188.779 32.3516C188.607 32.2474 188.372 32.1953 188.076 32.1953H187.724V31.9062H193.263V32.1953H192.912C192.604 32.1953 192.357 32.25 192.169 32.3594C192.034 32.4323 191.927 32.5573 191.849 32.7344C191.792 32.8594 191.763 33.1875 191.763 33.7188V40.6875C191.763 41.2292 191.792 41.5677 191.849 41.7031C191.912 41.8385 192.029 41.9583 192.201 42.0625C192.378 42.1615 192.615 42.2109 192.912 42.2109H193.263ZM197.322 35.1953V36.1406C197.697 35.7344 198.056 35.4401 198.4 35.2578C198.743 35.0703 199.113 34.9766 199.509 34.9766C199.983 34.9766 200.376 35.1094 200.689 35.375C201.001 35.6354 201.21 35.9609 201.314 36.3516C201.397 36.6484 201.439 37.2188 201.439 38.0625V40.9062C201.439 41.4688 201.488 41.8203 201.587 41.9609C201.691 42.0964 201.905 42.1823 202.228 42.2188V42.5H198.533V42.2188C198.809 42.1823 199.006 42.0677 199.126 41.875C199.21 41.7448 199.251 41.4219 199.251 40.9062V37.6562C199.251 37.0573 199.228 36.6797 199.181 36.5234C199.134 36.3672 199.053 36.2474 198.939 36.1641C198.829 36.0755 198.707 36.0312 198.572 36.0312C198.124 36.0312 197.707 36.3516 197.322 36.9922V40.9062C197.322 41.4531 197.371 41.7995 197.47 41.9453C197.574 42.0911 197.764 42.1823 198.04 42.2188V42.5H194.345V42.2188C194.652 42.1875 194.871 42.0885 195.001 41.9219C195.09 41.8073 195.134 41.4688 195.134 40.9062V36.7812C195.134 36.2292 195.082 35.8854 194.978 35.75C194.879 35.6146 194.668 35.526 194.345 35.4844V35.1953H197.322ZM210.505 31.9062V40.3125C210.505 40.8802 210.521 41.2161 210.552 41.3203C210.594 41.4922 210.672 41.6198 210.786 41.7031C210.906 41.7865 211.112 41.8385 211.403 41.8594V42.1172L208.318 42.7188V41.5625C207.948 42.0104 207.617 42.3151 207.325 42.4766C207.039 42.638 206.713 42.7188 206.349 42.7188C205.416 42.7188 204.679 42.3021 204.138 41.4688C203.7 40.7917 203.482 39.9609 203.482 38.9766C203.482 38.1901 203.617 37.487 203.888 36.8672C204.159 36.2422 204.528 35.7708 204.997 35.4531C205.471 35.1354 205.979 34.9766 206.521 34.9766C206.87 34.9766 207.179 35.0443 207.45 35.1797C207.721 35.3151 208.01 35.5521 208.318 35.8906V33.6875C208.318 33.1302 208.294 32.7943 208.247 32.6797C208.185 32.5286 208.091 32.4167 207.966 32.3438C207.841 32.2708 207.607 32.2344 207.263 32.2344V31.9062H210.505ZM208.318 36.8594C207.932 36.1198 207.461 35.75 206.903 35.75C206.711 35.75 206.552 35.8021 206.427 35.9062C206.234 36.0677 206.075 36.3516 205.95 36.7578C205.831 37.1641 205.771 37.7865 205.771 38.625C205.771 39.5469 205.838 40.2292 205.974 40.6719C206.109 41.1146 206.294 41.4349 206.528 41.6328C206.648 41.7318 206.812 41.7812 207.021 41.7812C207.479 41.7812 207.911 41.4219 208.318 40.7031V36.8594ZM214.227 31.6562C214.566 31.6562 214.852 31.776 215.087 32.0156C215.321 32.25 215.438 32.5339 215.438 32.8672C215.438 33.2005 215.319 33.4844 215.079 33.7188C214.845 33.9531 214.561 34.0703 214.227 34.0703C213.894 34.0703 213.61 33.9531 213.376 33.7188C213.142 33.4844 213.024 33.2005 213.024 32.8672C213.024 32.5339 213.142 32.25 213.376 32.0156C213.61 31.776 213.894 31.6562 214.227 31.6562ZM215.321 35.1953V40.9844C215.321 41.5 215.381 41.8307 215.501 41.9766C215.621 42.1172 215.855 42.1979 216.204 42.2188V42.5H212.259V42.2188C212.582 42.2083 212.821 42.1146 212.977 41.9375C213.082 41.8177 213.134 41.5 213.134 40.9844V36.7188C213.134 36.2031 213.074 35.875 212.954 35.7344C212.834 35.5885 212.602 35.5052 212.259 35.4844V35.1953H215.321ZM221.114 41.4219C220.223 42.2083 219.424 42.6016 218.716 42.6016C218.299 42.6016 217.953 42.4661 217.677 42.1953C217.401 41.9193 217.262 41.5755 217.262 41.1641C217.262 40.6068 217.502 40.1068 217.981 39.6641C218.46 39.2161 219.505 38.6224 221.114 37.8828V37.1484C221.114 36.5964 221.083 36.25 221.02 36.1094C220.963 35.9635 220.851 35.8385 220.684 35.7344C220.518 35.625 220.33 35.5703 220.122 35.5703C219.783 35.5703 219.505 35.6458 219.286 35.7969C219.151 35.8906 219.083 36 219.083 36.125C219.083 36.2344 219.156 36.3698 219.302 36.5312C219.499 36.7552 219.598 36.9714 219.598 37.1797C219.598 37.4349 219.502 37.6536 219.309 37.8359C219.122 38.013 218.874 38.1016 218.567 38.1016C218.239 38.1016 217.963 38.0026 217.739 37.8047C217.52 37.6068 217.411 37.375 217.411 37.1094C217.411 36.7344 217.559 36.3776 217.856 36.0391C218.153 35.6953 218.567 35.4323 219.098 35.25C219.63 35.0677 220.182 34.9766 220.755 34.9766C221.447 34.9766 221.994 35.125 222.395 35.4219C222.802 35.7135 223.065 36.0312 223.184 36.375C223.257 36.5938 223.294 37.0964 223.294 37.8828V40.7188C223.294 41.0521 223.307 41.263 223.333 41.3516C223.359 41.4349 223.398 41.4974 223.45 41.5391C223.502 41.5807 223.562 41.6016 223.63 41.6016C223.765 41.6016 223.903 41.5052 224.044 41.3125L224.278 41.5C224.018 41.8854 223.747 42.1667 223.466 42.3438C223.19 42.5156 222.874 42.6016 222.52 42.6016C222.104 42.6016 221.778 42.5052 221.544 42.3125C221.309 42.1146 221.166 41.8177 221.114 41.4219ZM221.114 40.8516V38.4062C220.484 38.776 220.015 39.1719 219.708 39.5938C219.505 39.875 219.403 40.1589 219.403 40.4453C219.403 40.6849 219.489 40.8958 219.661 41.0781C219.791 41.2188 219.973 41.2891 220.208 41.2891C220.468 41.2891 220.77 41.1432 221.114 40.8516Z" fill="#1C252E"/>
</svg>
